<svg xmlns="http://www.w3.org/2000/svg" width="249.5" height="127.531" viewBox="0 0 249.5 127.531"><path d="M725.187,188.98l-.782,6.224-1.94,15.458H683.5c.3-3.465.72-8.451,1.165-13.835.044-.538.09-1.079.134-1.623,1.114-13.532,2.334-28.846,2.334-28.846l5.123.954,9.94,1.848,4.05.753,10.846,2.02c5.408,1,9.127,8.835,8.1,17.047Z" transform="translate(-486.762 -118.474)" fill="#f2f2f2"/><path d="M705.277,79.358l4.792,8.386-9.211,6.527L696.93,83.963Z" transform="translate(-496.328 -56.516)" fill="#ffb6b6"/><circle cx="11.872" cy="11.872" r="11.872" transform="translate(190.977 7.032)" fill="#ffb6b6"/><path d="M667.57,33.207c-.943-1.435-.573-2.185-1.362-2.712a7.775,7.775,0,0,0-2.59-.333h0c-.509-3.662-1.144-4.107-1.144-4.107a2.671,2.671,0,0,0-2.495-.032c-1.429.662-1.264,2.092-2.226,2.366-1.33.378-3.749-1.753-3.987-4.193-.194-1.99,1.088-3.924,1.6-3.821s1.712-1.44,2.364-1.416c.445.016,2.264-.774,2.754-.713.534.068,2.3.987,2.37.777.51-1.46.36-1.865.793-2.283.767-.74,2.022-.225,3.991.052,4.051.569,4.758-.766,6.834.139,1.049.457,1.926,1.691,3.639,4.139,2.395,3.424,3.592,5.136,3.6,7.132.008,2.036-.978,1.907-1.411,4.922-.482,3.356.542,4.89-.577,5.98a2.967,2.967,0,0,1-3.547.3c-1.582-1.266.488-4.321-1.262-6.553-1.074-1.37-3.235-1.98-4.224-1.3-1.119.766-.5,3.013-1.289,3.227-.674.183-1.661-1.321-1.826-1.571Z" transform="translate(-465.574 -11.649)" fill="#2f2e41"/><path d="M708.328,140.778c-.331,5.662-1.646,7.449-2.107,14.136-.1,1.468-.161,3.172-.161,5.2,0,.518,0,1.019,0,1.508a24.868,24.868,0,0,1-.141,3.025,13.337,13.337,0,0,1-.512,2.447H679.841c0-.006,0-.012-.006-.017a17.765,17.765,0,0,1-.316-1.868q-.035-.285-.06-.561c-.023-.216-.043-.429-.063-.639a16.592,16.592,0,0,0-.34-2.386,6.113,6.113,0,0,0-1.618-2.979,8.158,8.158,0,0,0-1.122-.956l-.213-.147a7.617,7.617,0,0,1-2.818-2.631c-.014-.02-.026-.043-.037-.063a8.75,8.75,0,0,1-.789-1.782,5.806,5.806,0,0,1-.147-3.221c.74-2.769,3.48-3.045,5.719-5.843a9.806,9.806,0,0,0,.708-1.007,12.789,12.789,0,0,0,1.609-4.821c.052-.279.1-.556.135-.823.029-.2.055-.4.075-.6a15.686,15.686,0,0,0-.118-4.326c-.685-4.148-2.706-6.715-1.278-10.437a9.449,9.449,0,0,1,1.727-2.8c1.359-1.592,2.755-2.625,2.513-4.68-.245-2.072-1.816-2.358-1.992-4.168a4.724,4.724,0,0,1,.771-2.827v0c1.8-3.048,6.281-5.855,9.13-5.765a2.86,2.86,0,0,1,1.382.36c1.408.829.82,2.639,2.976,5.178a11.807,11.807,0,0,0,4.1,3c2.726,1.422,4.942,5.616,6.447,10.978.012.04.023.081.035.124a61.4,61.4,0,0,1,1.911,11.041c.138,1.638.219,3.284.236,4.913C708.417,138.645,708.388,139.773,708.328,140.778Z" transform="translate(-478.677 -72.463)" fill="#6c63ff"/><g transform="translate(199.834 41.679)"><path d="M711.162,300.483l-.521,1.451-.328.909-.76,2.116-.881,2.447H703.01l.95-2.447.44-1.14.731-1.885,1.226-3.166Z" transform="translate(-700.491 -254.451)" fill="#ffb6b6"/><path d="M722.059,151.429c-.014.187-.035.394-.055.619-.224,2.285-.754,6.376-1.528,11.041-.409,2.461-.887,5.083-1.425,7.688a78.841,78.841,0,0,1-4.223,14.795,18.057,18.057,0,0,1-.9,1.773q-.35.6-.734,1.183a34.765,34.765,0,0,1-2.723,3.612c-.037.049-.081.1-.124.144-.155.184-.317.366-.478.547-.789.889-1.595,1.718-2.375,2.478-.95.927-1.865,1.747-2.686,2.447h-9.194l-.037-.017-1.324-.587s.377-.443,1.007-1.281c.13-.17.268-.357.417-.561.184-.25.383-.527.6-.826.443-.627.947-1.364,1.488-2.2,1.048-1.615,2.242-3.6,3.448-5.9.138-.268.279-.538.42-.812,0-.009.009-.017.012-.026.239-.466.475-.947.711-1.436a30.688,30.688,0,0,0,2.738-8.736,34.1,34.1,0,0,0,.463-6.232,17.975,17.975,0,0,0-.846-4.991v0c-.115-.354-.245-.708-.392-1.059a14.161,14.161,0,0,0-.941-1.865c-1.626-2.7-2.947-2.812-4-5.754a11.422,11.422,0,0,1-.8-4.919v0a6.712,6.712,0,0,1,.127-.774v0c.014-.072.035-.147.055-.219a5.847,5.847,0,0,1,.846-1.865,6.493,6.493,0,0,1,2.881-2.265l0,0a8.223,8.223,0,0,1,2.3-.59c4.205-.374,7.466,3.16,9.248,5.092q1.032,1.118,1.894,1.88c4.481,4,5.711,1.445,6.03.124a4.556,4.556,0,0,0,.089-.5Z" transform="translate(-694.26 -144.802)" fill="#6c63ff"/><path d="M790.855,167.308a1.251,1.251,0,0,1-.014.144c.006-.043.009-.086.012-.127C790.852,167.317,790.852,167.311,790.855,167.308Z" transform="translate(-763.041 -160.83)" fill="#6c63ff"/></g><path d="M323.277,378.318h-154.3a2.6,2.6,0,1,0,0,5.2h154.3a2.6,2.6,0,0,0,0-5.2Z" transform="translate(-118.49 -269.424)" fill="#e6e6e6"/><path d="M373.755,425H287.939a2.6,2.6,0,0,0,0,5.2h85.816a2.6,2.6,0,1,0,0-5.2Z" transform="translate(-203.209 -302.668)" fill="#e6e6e6"/><path d="M235.069,71.149l9.724-4.092,4.171,8.55-10.219,4.171Z" transform="translate(-167.407 -47.755)" fill="#ffb6b6"/><path d="M235.069,71.149l9.724-4.092,4.171,8.55-10.219,4.171Z" transform="translate(-167.407 -47.755)" opacity="0.1"/><path d="M145.448,67.891l9.593,11.053s-6.673,21.063-13.347,22.94-18.978,11.053-18.978,11.053l-15.432-10.01,7.508-11.053s18.143-24.817,22.94-24.817a30.824,30.824,0,0,1,7.716.834Z" transform="translate(-76.404 -47.755)" fill="#6c63ff"/><path d="M108.4,223.532H86.067l-1.412-1.887-5.764-7.706-1.326-1.773S72.56,202.99,73.6,194.649,85.49,184.43,85.49,184.43h.446L99.212,196.1l-.792,10.857,4.2,6.986,5.775,9.593Z" transform="translate(-52.315 -131.344)" fill="#2f2e41"/><path d="M118.341,298.349h-5.985v-8.863Z" transform="translate(-80.016 -206.161)" fill="#2f2e41"/><path d="M483.391,238.8l-.745,3.862-1.848,9.593H443.68c.29-2.15.686-5.245,1.109-8.586.042-.334.086-.669.127-1.007,1.062-8.4,2.223-17.9,2.223-17.9l4.88.592,9.468,1.147,3.858.467,10.331,1.253a8.952,8.952,0,0,1,7.714,10.579Z" transform="translate(-315.973 -160.064)" fill="#f2f2f2"/><path d="M714.331,311.326H694.2c.307-.361.48-.569.48-.569l6.035-1,12.435-2.052S713.716,309.174,714.331,311.326Z" transform="translate(-494.383 -219.138)" fill="#2f2e41"/><path d="M447.275,95.766l8.755,12.382-15.272.456-1.639-11.636Z" transform="translate(-312.724 -68.201)" fill="#a0616a"/><path d="M447.275,95.766l8.755,12.382-15.272.456-1.639-11.636Z" transform="translate(-312.724 -68.201)" opacity="0.1"/><path d="M297.685,173.229c-1.123-3.241-3.706-5.288-5.769-4.573s-2.823,3.922-1.7,7.164a8.584,8.584,0,0,0,2.148,3.438L297.3,192.93l6.366-2.452-5.539-13.217a8.584,8.584,0,0,0-.441-4.031Z" transform="translate(-206.312 -120.01)" fill="#a0616a"/><path d="M420.927,134.211l-.012,12.619-1.174,4.661-2.415,9.587-1.758,8.817-1.31,6.569-.467,2.346q-.529.353-1.053.678h-30.5a23.457,23.457,0,0,1-2.7-1.85,10.28,10.28,0,0,0,1.028-1.174c.926-1.222,2.046-3.224,1.36-5.136a3.466,3.466,0,0,1-.138-1.433c.279-3.591,4.046-9.664,4.046-9.664l-.78-9.013-.342-3.95,2.411-19.259,7.86-4.569,1.357-.131,13.395-.724,5.536.319.252.069,5.41,11.238Z" transform="translate(-270.288 -87.3)" fill="#ccc"/><g transform="translate(142.151 35.557)"><path d="M508.16,311.5h-6.674l-.294-3.024-.006-.06,1.889-.129,4.915-.336.086,1.81.067,1.389Z" transform="translate(-499.077 -254.866)" fill="#ffb6b6"/><path d="M504.586,137.937l2.8,16.448L505.1,170.57l-.357,2.519-.63,4.448-.194,1.368.006.148.048,1.109H496.05l-.292-3.024-.025-.271-.6-6.194-.01-.1-1.266-13.134,2.482-9.493.184-.7v0l1.08-16.254-.836-7.387-.008-.069.048.031c.044.027.088.054.129.083a16.493,16.493,0,0,1,7.647,14.289Z" transform="translate(-493.861 -123.533)" fill="#ccc"/></g><path d="M333.422,144.58l-3.047-3.152s-6.524,2.941-6.849,4.573-11.844,25.6-11.844,25.6l-5.011-13.384-6.523,4.355s5.234,20.779,10.129,21.755,21.3-24.595,21.3-24.595l1.845-15.148Z" transform="translate(-213.754 -100.72)" fill="#ccc"/><path d="M243.407,286.447H6.091a6.092,6.092,0,0,0,0,12.184H243.407a6.092,6.092,0,1,0,0-12.184Z" transform="translate(0 -203.997)" fill="#e6e6e6"/><path d="M397.509,212.254l-.461,21.531a3.833,3.833,0,0,1-3.832,3.751H353.608a3.833,3.833,0,0,1-3.827-3.623L348.6,212.381a3.833,3.833,0,0,1,3.827-4.042h41.246a3.833,3.833,0,0,1,3.832,3.915Z" transform="translate(-248.259 -148.372)" fill="#3f3d56"/><circle cx="9.476" cy="9.476" r="9.476" transform="translate(75.834 9.639)" fill="#ffb6b6"/><path d="M217.145,148.423l1.043,11.261,7.091,28.571-6.126,2.147L208.8,159.268l-1.429-12.513Z" transform="translate(-147.684 -104.513)" fill="#ffb6b6"/><path d="M110.509,212.254l-.461,21.531a3.833,3.833,0,0,1-3.832,3.751H66.609a3.833,3.833,0,0,1-3.827-3.623L61.6,212.381a3.833,3.833,0,0,1,3.827-4.042h41.246a3.833,3.833,0,0,1,3.832,3.915Z" transform="translate(-43.869 -148.372)" fill="#3f3d56"/><ellipse cx="7.484" cy="3.31" rx="7.484" ry="3.31" transform="translate(71.24 82.689)" fill="#ffb6b6"/><path d="M190.242,101.3l4.275-22.785s11.887-1.668,12.3,2.294-.3,23.327-.3,23.327L190.242,101.3Z" transform="translate(-135.483 -55.664)" fill="#6c63ff"/><path d="M224.242,22.785s5.862-2.092,8.335-3.218,7.385,6.726,7.494,2.579-1.588-5.885-1.588-5.885-.424-9.071-9.563-7.937c0,0,2.01-4.538-4.588-5.24S207.467,18.317,208.386,20.7s2.021,4.35-.587,6.9-7.492,16.916-3.776,20.783,3.96,5.545,1.414,7.95-8.564,7.636-2.057,8.544-.6.23,4.256-4.037,11.93-4.093,9.287-10.939,1.949-16.657,1.374-18.145,1.287-10.939,1.287-10.939,4.333-.637,4.657,1.974Z" transform="translate(-142.756 -2.18)" fill="#2f2e41"/><g transform="translate(118.694)"><circle cx="10.315" cy="10.315" r="10.315" transform="translate(0.86 11.416)" fill="#a0616a"/><path d="M424.363,7.863c-.3.174-.7-.089-.794-.421a1.728,1.728,0,0,1,.126-1.012l.557-1.648a8.465,8.465,0,0,1,1.669-3.269A6.058,6.058,0,0,1,431.108.074,7.619,7.619,0,0,1,436.92,3.8a5.079,5.079,0,0,1-1.359,6.409A15.16,15.16,0,0,1,439.233,21.4c-.156,4.315-4.858,8.286-7.925,11.326a3.319,3.319,0,0,1-.931-3.067c.377-.707-.163-1.525.3-2.176s.857.386.385-.262c-.3-.408.864-1.348.421-1.593-2.139-1.182-2.851-3.849-4.194-5.89a10.036,10.036,0,0,0-7.329-4.407,6.93,6.93,0,0,0-4.65,1.062,4.358,4.358,0,0,0-1.876,4.211,3.74,3.74,0,0,1,.778-5.853,6.109,6.109,0,0,1,1.3-5.758c1.382-1.524,6.989-1.264,9.007-.863l-.156-.268Z" transform="translate(-412.364 0)" fill="#2f2e41"/><path d="M455.14,53.475c2.673.288,4.6,2.6,6.232,4.741.939,1.232,1.923,2.593,1.9,4.142-.024,1.566-1.071,2.91-1.571,4.394a6.622,6.622,0,0,0,1.927,6.975,3.847,3.847,0,0,1-4.336-3.008c-.387-2.247,1.317-4.415,1.115-6.686-.178-2-1.754-3.541-3.095-5.036s-2.6-3.481-1.983-5.393l-.187-.129Z" transform="translate(-442.828 -38.083)" fill="#2f2e41"/></g><g transform="translate(167.596 35.409)"><path d="M585.625,271.147c-2.647,1.506-4.016,4.092-3.058,5.777s3.881,1.829,6.529.323a7.621,7.621,0,0,0,2.653-2.432l11.136-6.521-3.172-5.16-10.641,6.977a7.623,7.623,0,0,0-3.448,1.038Z" transform="translate(-582.262 -222.802)" fill="#ffb6b6"/><path d="M647.05,123.542a7.4,7.4,0,0,0-5.918.222c-3.062,1.677-3.535,5.505-3.7,6.848-.383,3.1.746,3.8.984,6.937.446,5.875,1.622-.827-.256,1.854-.65.928-7.287,15.312-10.948,18.13-7.119,5.48-11.64,9.339-11.64,9.339l5.161,5.606a60.744,60.744,0,0,0,15.364-6.853c7.394-4.8,11.091-7.2,13.951-11.9.246-.4,6.14-10.413,2.975-21.48-.722-2.524-2.045-7.149-5.972-8.706Z" transform="translate(-605.984 -123.017)" fill="#6c63ff"/></g><path d="M696.509,212.254l-.461,21.531a3.833,3.833,0,0,1-3.832,3.751H652.608a3.833,3.833,0,0,1-3.827-3.623L647.6,212.381a3.833,3.833,0,0,1,3.827-4.042h41.246a3.833,3.833,0,0,1,3.832,3.915Z" transform="translate(-461.196 -148.372)" fill="#3f3d56"/></svg>