<svg xmlns="http://www.w3.org/2000/svg" xmlns:xlink="http://www.w3.org/1999/xlink" width="197.957" height="140.242" viewBox="0 0 197.957 140.242"><defs><linearGradient id="a" x1="0.5" y1="1" x2="0.5" gradientUnits="objectBoundingBox"><stop offset="0" stop-color="gray" stop-opacity="0.251"/><stop offset="0.54" stop-color="gray" stop-opacity="0.122"/><stop offset="1" stop-color="gray" stop-opacity="0.102"/></linearGradient><linearGradient id="b" x1="0.5" y1="1.001" x2="0.5" y2="0" xlink:href="#a"/></defs><ellipse cx="40.62" cy="7.895" rx="40.62" ry="7.895" transform="translate(115.946 104.558)" fill="#6c63ff" opacity="0.1"/><g transform="translate(115.994 18.682)" opacity="0.5"><path d="M694.32,183.572a2.232,2.232,0,0,0-1.549,1.67c-.648,2.174.857,3.652.361,5.917a4.421,4.421,0,0,1-.769,1.66,11.245,11.245,0,0,1-1.9,1.783,5.67,5.67,0,0,0-1.67,2.742,7.591,7.591,0,0,0-.075,3.565,13.986,13.986,0,0,0,.951,2.5,18.447,18.447,0,0,1,.982,3.146,7.662,7.662,0,0,1,.215,1.6,14.082,14.082,0,0,1-.192,2.137l-.921,6.423a19.3,19.3,0,0,0-.252,2.539,12.614,12.614,0,0,0,.294,2.535c.323,1.7.671,3.459,1.411,4.359s2,.577,2.775-1.243c.736-1.741.753-4.065,1.4-5.925,1.024-2.931,3.06-3.325,4.19-6.121,1.084-2.691.751-5.973,1.3-9.033.384-2.193,1.232-4.192,1.73-6.357a20.135,20.135,0,0,0,.073-8.756,11.638,11.638,0,0,0-2.725-5.293,2.662,2.662,0,0,0-1.593-1.047c-.64-.05-1.2.755-1.832,1C695.8,183.654,695.064,183.36,694.32,183.572Z" transform="translate(-688.542 -182.368)" fill="#6c63ff"/><path d="M712.923,183.23s-1.084,27.74-5.643,44.1" transform="translate(-703.679 -183.064)" fill="none" stroke="#535461" stroke-miterlimit="10" stroke-width="2"/><path d="M710.41,198s4.872,4.436,3.948,12.876" transform="translate(-706.207 -194.996)" fill="none" stroke="#535461" stroke-miterlimit="10" stroke-width="2"/><path d="M689.14,263.68s8,1.609,7.4,6.392" transform="translate(-689.025 -248.053)" fill="none" stroke="#535461" stroke-miterlimit="10" stroke-width="2"/><path d="M736.449,215.07s-3.236,2.833-6.119,10.857" transform="translate(-722.299 -208.785)" fill="none" stroke="#535461" stroke-miterlimit="10" stroke-width="2"/><path d="M728.99,323.066s-2.208,1.73-3.98-4.326" transform="translate(-718.001 -292.531)" fill="none" stroke="#535461" stroke-miterlimit="10" stroke-width="2"/><path d="M696.14,345.337s4.5-.588,4.918-3.407" transform="translate(-694.68 -311.265)" fill="none" stroke="#535461" stroke-miterlimit="10" stroke-width="2"/></g><path d="M732.787,86.44a3.466,3.466,0,0,0-3.008,2.275c-1.082,3.125,2.206,5.491,1.449,8.756a4.907,4.907,0,0,1-1.372,2.354,18.278,18.278,0,0,1-3.721,2.4A7.015,7.015,0,0,0,723,106.072a8.1,8.1,0,0,0,.267,5.241,20.984,20.984,0,0,0,2.264,3.792,25.692,25.692,0,0,1,2.4,4.747,9.019,9.019,0,0,1,.638,2.37,14.361,14.361,0,0,1-.156,3.125l-1.143,9.367a19.612,19.612,0,0,0-.219,3.709,14.57,14.57,0,0,0,.911,3.767c.869,2.541,1.8,5.189,3.438,6.588s4.211,1.1,5.6-1.5c1.318-2.477,1.076-5.9,2.2-8.558,1.772-4.2,5.938-4.536,7.943-8.518,1.922-3.821.848-8.708,1.62-13.147.553-3.181,2.053-6.025,2.821-9.156a21.565,21.565,0,0,0-.888-12.876,19.758,19.758,0,0,0-6.265-8.116,7.009,7.009,0,0,0-3.421-1.73c-1.33-.148-2.393.971-3.671,1.253C735.852,86.736,734.3,86.215,732.787,86.44Z" transform="translate(-600.129 -85.16)" fill="#6c63ff"/><path d="M784.82,86s1.049,40.722-6.45,64.271" transform="translate(-645.112 -85.839)" fill="none" stroke="#535461" stroke-miterlimit="10" stroke-width="2"/><path d="M759.38,104.68s10.609,7.111,9.7,19.441" transform="translate(-629.772 -100.929)" fill="none" stroke="#535461" stroke-miterlimit="10" stroke-width="2"/><path d="M723.15,198.85s16.743,3.317,16.082,10.29" transform="translate(-600.505 -177.001)" fill="none" stroke="#535461" stroke-miterlimit="10" stroke-width="2"/><path d="M820.725,135.92s-6.363,3.788-11.375,15.261" transform="translate(-670.138 -126.165)" fill="none" stroke="#535461" stroke-miterlimit="10" stroke-width="2"/><path d="M812.65,291.024s-4.363,2.306-8.75-6.844" transform="translate(-665.736 -245.931)" fill="none" stroke="#535461" stroke-miterlimit="10" stroke-width="2"/><path d="M749,322.356s9.25-.332,9.776-4.436" transform="translate(-621.387 -273.187)" fill="none" stroke="#535461" stroke-miterlimit="10" stroke-width="2"/><path d="M133.611,663.66s1.611,2.114-.744,5.285-4.3,5.866-3.509,7.849c0,0,3.552-5.906,6.442-5.988S136.792,667.212,133.611,663.66Z" transform="translate(-120.686 -552.481)" fill="#6c63ff"/><path d="M134.04,663.66a2.609,2.609,0,0,1,.338.661c2.821,3.313,4.322,6.406,1.612,6.484-2.525.073-5.554,4.587-6.281,5.729a2.453,2.453,0,0,0,.086.259s3.552-5.906,6.442-5.988S137.221,667.212,134.04,663.66Z" transform="translate(-121.115 -552.481)" opacity="0.1"/><path d="M166.2,675.65c0,.742-.083,1.345-.192,1.345s-.192-.6-.192-1.345.1-.384.206-.384S166.2,674.908,166.2,675.65Z" transform="translate(-150.285 -561.786)" fill="#ffd037"/><path d="M167.833,680.1c-.652.356-1.218.577-1.267.479s.438-.452,1.09-.805.394-.1.444,0S168.482,679.741,167.833,680.1Z" transform="translate(-150.885 -565.349)" fill="#ffd037"/><path d="M92.8,663.66s-1.611,2.114.744,5.285,4.3,5.864,3.509,7.847c0,0-3.552-5.906-6.442-5.988S89.619,667.212,92.8,663.66Z" transform="translate(-88.38 -552.481)" fill="#6c63ff"/><path d="M92.8,663.66a2.609,2.609,0,0,0-.329.661c-2.821,3.313-4.322,6.406-1.612,6.484,2.525.073,5.554,4.587,6.281,5.729a2.45,2.45,0,0,1-.086.259s-3.552-5.906-6.442-5.988S89.619,667.212,92.8,663.66Z" transform="translate(-88.38 -552.481)" opacity="0.1"/><path d="M92.4,675.65c0,.742.083,1.345.192,1.345s.192-.6.192-1.345-.1-.384-.206-.384S92.4,674.908,92.4,675.65Z" transform="translate(-90.975 -561.786)" fill="#ffd037"/><path d="M85.384,680.1c.652.356,1.218.577,1.266.479s-.438-.452-1.09-.805-.394-.1-.444,0S84.734,679.741,85.384,680.1Z" transform="translate(-84.987 -565.349)" fill="#ffd037"/><path d="M95.07,720.337s4.5-.138,5.86-1.105,6.919-2.114,7.263-.577,6.767,7.709,1.684,7.749-11.812-.792-13.167-1.616S95.07,720.337,95.07,720.337Z" transform="translate(-93.132 -596.301)" fill="#a8a8a8"/><path d="M109.966,736.069c-5.083.04-11.812-.792-13.167-1.616-1.032-.628-1.443-2.883-1.58-3.922h-.15s.284,3.632,1.639,4.457,8.083,1.659,13.167,1.616c1.468-.011,1.974-.534,1.947-1.307C111.619,735.769,111.06,736.061,109.966,736.069Z" transform="translate(-93.132 -606.5)" opacity="0.2"/><path d="M1037.3,644.149a2.243,2.243,0,0,0,.736-1.111.986.986,0,0,0-.515-1.132,1.444,1.444,0,0,0-1.361.479,1.81,1.81,0,0,1-1.324.638,2.014,2.014,0,0,0,.623-1.885.788.788,0,0,0-.173-.384c-.263-.281-.738-.159-1.053.062a3.922,3.922,0,0,0-1.284,3.282,6.294,6.294,0,0,1-.019-1.345,1.389,1.389,0,0,0-.507-1.2,1.537,1.537,0,0,0-.769-.183,1.6,1.6,0,0,0-1.257.357,1.236,1.236,0,0,0,.05,1.538,5,5,0,0,0,1.3,1.042,2.883,2.883,0,0,1,.93.886.882.882,0,0,1,.069.158h2.816A7.844,7.844,0,0,0,1037.3,644.149Z" transform="translate(-848.5 -533.845)" fill="#6c63ff"/><path d="M188.157,266.759c6.115,7.776,3.74,19.136-.146,28.232-1.3,3.046-2.773,6.269-2.224,9.534.671,3.994,4.228,6.919,7.98,8.456a23.752,23.752,0,0,0,21.258-1.751c5.418-3.371,9.3-8.852,14.808-12.069,9.225-5.381,20.96-3.35,30.973.357,7.084,2.623,14.829,6.037,21.869,3.294,4.953-1.922,8.377-6.625,10.243-11.6.9-2.4,1.555-5,3.267-6.919a12.182,12.182,0,0,1,3.725-2.614c12.492-6.19,28.251-2.883,40.374-9.74,8.189-4.635,13.432-13.382,15.759-22.5s2.051-18.682,1.461-28.072c-.419-6.675-1.17-13.8-5.435-18.951-4.511-5.448-12.254-7.476-19.251-6.44s-13.343,4.745-18.917,9.092c-6.974,5.433-13.441,12.2-22.005,14.4-5.831,1.5-11.965.678-17.981.4-10.055-.475-20.112.577-30.112,1.73-9.573,1.107-19.218,2.325-28.334,5.439-6.454,2.2-11.627,6.2-17.721,9-3.972,1.822-8.3,2.325-12.063,4.645-4.634,2.858-8.879,7.83-7.687,13.645C179.115,259.857,184.909,262.632,188.157,266.759Z" transform="translate(-159.957 -174.466)" fill="#6c63ff" opacity="0.1"/><ellipse cx="82.192" cy="7.895" rx="82.192" ry="7.895" transform="translate(23.962 76.499)" fill="#6c63ff" opacity="0.1"/><ellipse cx="40.62" cy="7.895" rx="40.62" ry="7.895" transform="translate(2.364 122.047)" fill="#6c63ff" opacity="0.1"/><path d="M522,511.48l-.644.936s.7.936.769,1.053a11.758,11.758,0,0,0,2.047-.058l.175-.7-.292-.819Z" transform="translate(-437.496 -429.548)" fill="#e6e6f0"/><path d="M321.678,423.67l-1.288.233.819,1.582.878.467.819.584.234-.642-.586-1.23Z" transform="translate(-258.815 -342.264)" fill="#fdc2cc"/><path d="M505.605,429.409s6.846,1.637,8.131,3.459c0,0,1.17,1,0,2.808a48.055,48.055,0,0,0-2.808,5.91s-1.17,3.978-1.637,4.27-3.16.527-3.394-.577c0,0,1.52-2.4,1.52-3.511s2.516-6.377,2.516-6.377-5.733-.644-7.547-.234S503.207,428.765,505.605,429.409Z" transform="translate(-421.681 -363.215)" fill="#565171"/><path d="M505.605,429.409s6.846,1.637,8.131,3.459c0,0,1.17,1,0,2.808a48.055,48.055,0,0,0-2.808,5.91s-1.17,3.978-1.637,4.27-3.16.527-3.394-.577c0,0,1.52-2.4,1.52-3.511s2.516-6.377,2.516-6.377-5.733-.644-7.547-.234S503.207,428.765,505.605,429.409Z" transform="translate(-421.681 -363.215)" opacity="0.1"/><path d="M429.758,431.21c-.013.34-.05.723-.1,1.134a67.075,67.075,0,0,1-1.6,7.409,26.046,26.046,0,0,0-1.58,4.33c-.352,1.7-2.75,2.114-2.75,2.114s-6.553.769-7.9.469-3.459.878-4.5.7-1.7-2.633-1.7-2.633a12.683,12.683,0,0,0,5.266-1.111c2.691-1.228,6.553-.644,6.553-.644a2.2,2.2,0,0,0,1.345-1.111c.409-.878.409-6.2.292-6.554a8.368,8.368,0,0,1-.484-4.649,2.32,2.32,0,0,1,.484-1.026Z" transform="translate(-347.239 -363.436)" fill="#565171"/><path d="M484.317,431.17c-.013.34-.05.723-.1,1.134a6.162,6.162,0,0,1-3.459-.665,9.269,9.269,0,0,0-3.586-1.022,2.32,2.32,0,0,1,.484-1.026Z" transform="translate(-401.798 -363.396)" opacity="0.1"/><path d="M483.446,422.327c-.273.769-.692,1.67-.692,1.67a6.441,6.441,0,0,1-3.686-.644,10.009,10.009,0,0,0-3.978-1.053,2.926,2.926,0,0,0,.834-1.635,10.37,10.37,0,0,0,.219-1.115s7.2,1.462,7.5,1.7C483.75,421.339,483.631,421.8,483.446,422.327Z" transform="translate(-400.118 -355.285)" fill="#e6e6f0"/><path d="M544.964,280.164l-8.727,5.268-.867.523v-2.573l.6-.288,7.355-3.515s.352-6.377,1.288-5.381S544.964,280.164,544.964,280.164Z" transform="translate(-448.813 -237.781)" fill="#fdc2cc"/><path d="M536.237,323.269l-.867.523v-2.573l.6-.288a18.928,18.928,0,0,0,.265,2.339Z" transform="translate(-448.813 -275.619)" opacity="0.1"/><path d="M504.93,322.757l6.259-3.627s.117,3.511.819,4.036c0,0-2.573.769-3.569,2.4Z" transform="translate(-424.223 -274.165)" fill="#b45181"/><path d="M504.93,322.757l6.259-3.627s.117,3.511.819,4.036c0,0-2.573.769-3.569,2.4Z" transform="translate(-424.223 -274.165)" opacity="0.1"/><path d="M556.259,328.451a39.05,39.05,0,0,1-4.949,1.774,3.887,3.887,0,0,1-1.37.158c-1.345-.234.352-1.922.352-1.922l.707-.11,3.8-.592s.409-5.85,1.111-5.381S556.259,328.451,556.259,328.451Z" transform="translate(-460.164 -276.766)" fill="#fdc2cc"/><path d="M492.486,315.357s-2.516,1.872-1.58,4.213-4.856-1.4-4.856-1.4a17.513,17.513,0,0,0,2.281-4.914C488.741,311.145,492.486,315.357,492.486,315.357Z" transform="translate(-408.972 -268.939)" fill="#fdc2cc"/><path d="M486.96,422.327a13.259,13.259,0,0,0-3.382-.788,18.046,18.046,0,0,1-4.138-.874,10.369,10.369,0,0,0,.219-1.115s7.2,1.463,7.5,1.7C487.264,421.339,487.145,421.8,486.96,422.327Z" transform="translate(-403.632 -355.285)" opacity="0.1"/><path d="M551.3,355.444a3.888,3.888,0,0,1-1.37.158c-1.345-.234.352-1.922.352-1.922l.707-.11A2.063,2.063,0,0,1,551.3,355.444Z" transform="translate(-460.156 -301.986)" opacity="0.1"/><path d="M479.634,332.163s-2.281-.058-3.1.878-.644,3.459-.644,3.459-.171,5.053,1.111,7.88a.384.384,0,0,1,.013.29c-.013.035-.013.013-.013.013s-.819,3.686-1.637,4.33,1.755,1.4,4.8,1.755a9.756,9.756,0,0,1,4.27,1.228,3.051,3.051,0,0,0,.577-1.872c.05-1.3-.813-10.707-.813-10.707s3.217.819,5.149-.175c0,0,.878.469,1.7-.819s-.577-2.691-.577-2.691-1.288,1.288-4.857-.409S480.743,332.106,479.634,332.163Z" transform="translate(-400.215 -284.692)" fill="#b45181"/><path d="M404.261,509.35h-.7v1l.7,1.58s.936.175,1,.175.819-.175.819-.175l.234-.409S403.735,510.518,404.261,509.35Z" transform="translate(-342.335 -427.827)" fill="#e6e6f0"/><path d="M517.243,513.808l-1.053,2.341,4.447,2.114,3.511.117s.292-.819-.878-1.228l-.936-.175a13.8,13.8,0,0,1-1.345-3.267s-1.17.234-1.345,1.111A1.733,1.733,0,0,1,517.243,513.808Z" transform="translate(-433.319 -431.349)" fill="#b45181"/><path d="M396.36,508.13l-.357.292-1.572,1.288,3.627,4.8s2.047.878,2.985,0c0,0,.577-.576-.7-1.053a.8.8,0,0,1-1-.819,3.516,3.516,0,0,1,.577-2.281s-.878-.292-1.111-.058a3.711,3.711,0,0,0-.469.644A3.109,3.109,0,0,1,396.36,508.13Z" transform="translate(-334.96 -426.842)" fill="#b45181"/><path d="M496.334,313.861a7.108,7.108,0,0,1-.234.876,3.042,3.042,0,0,0,3.9,1.674,4.841,4.841,0,0,1,.494-.444S496.744,311.755,496.334,313.861Z" transform="translate(-417.09 -269.432)" opacity="0.1"/><path d="M495.64,357a6.5,6.5,0,0,0,4.447,2.458" transform="translate(-416.719 -304.756)" opacity="0.1"/><g transform="translate(74.933 47.479)" opacity="0.1"><path d="M550.881,369.05a.657.657,0,0,1-.108-.04q-.085.044-.173.083A1.092,1.092,0,0,0,550.881,369.05Z" transform="translate(-536.049 -361.938)"/><path d="M548.837,351.014a2.918,2.918,0,0,0-.2-.234,2.179,2.179,0,0,1-1.334.457A3.229,3.229,0,0,0,548.837,351.014Z" transform="translate(-533.384 -347.211)"/><path d="M524.71,369.92l.012.125a11.623,11.623,0,0,0,2.341.192A12.183,12.183,0,0,1,524.71,369.92Z" transform="translate(-515.135 -362.673)"/><path d="M480.427,350.812c-3.042-.352-5.616-1.111-4.8-1.755s1.637-4.33,1.637-4.33,0,.021.013-.013a.384.384,0,0,0-.013-.29c-1.282-2.835-1.111-7.88-1.111-7.88s-.175-2.516.644-3.459a4.224,4.224,0,0,1,2.716-.871,1.247,1.247,0,0,0-.192,0s-2.281-.058-3.1.878-.644,3.459-.644,3.459-.171,5.053,1.111,7.88a.384.384,0,0,1,.013.29c-.013.035-.013.013-.013.013s-.813,3.675-1.639,4.318,1.755,1.4,4.8,1.755a9.755,9.755,0,0,1,4.27,1.228,1.5,1.5,0,0,0,.161-.236A12.006,12.006,0,0,0,480.427,350.812Z" transform="translate(-474.888 -332.211)"/></g><circle cx="3.042" cy="3.042" r="3.042" transform="translate(78.892 40.978)" fill="#fdc2cc"/><path d="M472.1,291.848c-.252.63-1,.869-1.662,1.032a4.758,4.758,0,0,1-2.858.1.624.624,0,0,0-.384-.075.511.511,0,0,0-.254.221c-.994,1.414-.832,3.3-1.09,5.01a2.783,2.783,0,0,1-.577,1.48c-.7.769-2.02.74-2.664,1.557a3.1,3.1,0,0,0-.425,1.972q0,1.1-.019,2.2a3.244,3.244,0,0,1-.252,1.4,3.3,3.3,0,0,1-1.951,1.345,3.345,3.345,0,0,1-1.468.307,1.147,1.147,0,0,1-1.08-.892c-.09-.688.619-1.168,1.107-1.664a4.473,4.473,0,0,0,1.13-3.05,3.268,3.268,0,0,0-.192-1.32c-.179-.436-.5-.8-.69-1.234-.592-1.326.138-2.86,1.013-4.021s1.949-2.293,2.135-3.732a5.478,5.478,0,0,1,.938-2.766,4.184,4.184,0,0,1,1.922-.8c.54-.079,1.092-.05,1.628-.154.627-.121,1.209-.419,1.835-.53,1.355-.24,2.825,1.334,3.419,2.575C471.825,291.193,472.254,291.462,472.1,291.848Z" transform="translate(-385.835 -249.189)" opacity="0.1"/><path d="M472.1,291.238c-.252.63-1,.869-1.662,1.032a4.757,4.757,0,0,1-2.858.1.625.625,0,0,0-.384-.075.511.511,0,0,0-.254.221c-.994,1.414-.832,3.3-1.09,5.01a2.783,2.783,0,0,1-.577,1.48c-.7.769-2.02.74-2.664,1.557a3.1,3.1,0,0,0-.425,1.972q0,1.1-.019,2.2a3.244,3.244,0,0,1-.252,1.4,3.3,3.3,0,0,1-1.951,1.345,3.345,3.345,0,0,1-1.468.307,1.147,1.147,0,0,1-1.08-.892c-.09-.688.619-1.168,1.107-1.664a4.473,4.473,0,0,0,1.13-3.05,3.268,3.268,0,0,0-.192-1.32c-.179-.436-.5-.8-.69-1.234-.592-1.326.138-2.86,1.013-4.021s1.949-2.293,2.135-3.732a5.478,5.478,0,0,1,.938-2.766,4.184,4.184,0,0,1,1.922-.8c.54-.079,1.092-.05,1.628-.154.627-.121,1.209-.419,1.835-.53,1.355-.24,2.825,1.334,3.419,2.575C471.825,290.583,472.254,290.852,472.1,291.238Z" transform="translate(-385.835 -248.696)" fill="#f569bc"/><path d="M585,276.09h50.577v50.573H585Z" transform="translate(-488.905 -239.396)" fill="#f7df1e"/><path d="M654.21,414.782l3.871-2.343c.748,1.324,1.426,2.445,3.056,2.445,1.563,0,2.547-.611,2.547-2.987V395.737h4.753v16.226c0,4.922-2.883,7.163-7.1,7.163a7.377,7.377,0,0,1-7.128-4.345m16.8-.509,3.869-2.241a5.169,5.169,0,0,0,4.686,2.883c1.97,0,3.225-.984,3.225-2.343,0-1.63-1.29-2.206-3.459-3.158l-1.188-.509c-3.429-1.459-5.7-3.292-5.7-7.163,0-3.565,2.716-6.281,6.959-6.281a7.026,7.026,0,0,1,6.755,3.8l-3.7,2.377A3.235,3.235,0,0,0,679.4,399.6a2.069,2.069,0,0,0-2.276,2.037c0,1.426.882,2,2.919,2.883l1.188.509c4.036,1.73,6.315,3.5,6.315,7.468,0,4.278-3.361,6.621-7.88,6.621-4.42,0-7.265-2.114-8.648-4.855" transform="translate(-544.814 -335.825)"/><path d="M833.39,425.182a3.621,3.621,0,0,1-3.192-1.976,7.087,7.087,0,0,0-.84-1.193,4.036,4.036,0,0,1-.59-2.143c.067-1.566-1.566-10.145-1.566-10.145s.2-3.267-1.43-5.31c-1.076-1.345-2.623-5.189-3.555-7.672a.513.513,0,0,0,.219.115l-.038-.213h.038l-.482-2.65a12.083,12.083,0,0,1-1.76-2.668l.11-.023,1.445-.3s2.349-3.338,2.5-4.98h.463a56.5,56.5,0,0,1,6.507.34h0c0-.01-.015-.052-.035-.119h0a8.164,8.164,0,0,1-.211-1.005h.135l1.345-.088s4.63-5.174,2.927-6.127-3.473,4.29-3.473,4.29l-.577.1-.156.029a.81.81,0,0,1,.048-.065c.017-.021-7.557-.338-8.723-2.179,0,0-3.336-2.656-3.473-4.42a2,2,0,0,0-1.2-1.7,2.617,2.617,0,0,0-1.324-.248l-1.563.108.11.192H815a5.256,5.256,0,0,1-.246-.692h.033c-.012-.048-.021-.1-.031-.144a3.677,3.677,0,0,0,2.708-4.528,1.471,1.471,0,0,0,.459-.013,1.346,1.346,0,0,0,1-1.286v-.136a1.976,1.976,0,0,0-.759-1.518,11.083,11.083,0,0,1-.961-.732,7.208,7.208,0,0,1-.782-1.211,3.594,3.594,0,0,0-1.845-1.436,1.7,1.7,0,0,0-1.687.192c-.223.209-.352.513-.6.69a2.673,2.673,0,0,1-1.288.233,2.456,2.456,0,0,0-1.851,1.386,3.191,3.191,0,0,0-.3,1.464,3.911,3.911,0,0,0,.123,1.028c.085.334.21.657.3.992.192.692.236,1.42.457,2.1a2.647,2.647,0,0,0,.851,1.293l-.065.281c-.042,0-1.1.236-1.835,1.837-.577,1.263-2.539,2.566-3.4,3.092a1.419,1.419,0,0,0-.642.892,4.63,4.63,0,0,0-.109,1.132,7.835,7.835,0,0,0,.815,3.4,27.187,27.187,0,0,0,2.587,4.7s.083,1,.088,2.056a6.067,6.067,0,0,1-.225,1.96,7.133,7.133,0,0,0-.181,2.139c0,1.849.181,4.261.181,4.261s.521.1,1.326.217l.5,8.825a4.243,4.243,0,0,1-.961,2.948,6.525,6.525,0,0,1-1.209,1.153c-1.43,1.021-4.493,11.779-4.493,11.779a3.776,3.776,0,0,1,.4.029l-.942,2.627s3.763,2.883,6.052,2.095a2.218,2.218,0,0,1,.769-.108c.452,0,1.418-.357.88-.828a34.873,34.873,0,0,1-2.935-3.052,1.555,1.555,0,0,1,.211.125v-.021l.033.021a2.165,2.165,0,0,1,.025-.279l-.033-.012c.069-.707.288-2.5.723-2.706.544-.273,4.562-8.239,4.562-8.239l4.017-10.349s3.2,5.516,5.923,6.467v2.306s1.5,6.809,2.043,7.557,0,3.744,0,3.744a1.865,1.865,0,0,0,.367.323l-.436,2.468a27.808,27.808,0,0,1,8.443,1.5C833.05,427.155,835.093,426.271,833.39,425.182Zm-12.527-35.608-.663.165-.131.033c-.013-.083-.023-.131-.023-.131a1.345,1.345,0,0,1-.482.117,8.869,8.869,0,0,1-.4-2.3,15.477,15.477,0,0,1-.406-2.844,2.04,2.04,0,0,1,.269-1.172l.221.017.154.146.012.01.079.071h0l.083.073.013.012.089.079.015.013.09.077h0l.1.085.023.019.108.086h0l.106.085.025.019.117.088.025.017.112.083.019.013.127.09.031.021.135.092h.012l.131.086.031.021.14.09.031.019.131.081.025.015.15.088.036.021.156.086h.012l.152.081.036.019.161.081.033.015.15.069.029.013.169.073.04.017.175.071h0A10.62,10.62,0,0,0,820.864,389.574Z" transform="translate(-664.532 -309.848)" fill="url(#a)"/><path d="M805.743,668.16l-1.263,3.523s3.459,2.652,5.708,2.1a6.277,6.277,0,0,1,1.032-.167c.465-.035,1.266-.375.769-.805a42.512,42.512,0,0,1-3.723-3.988Z" transform="translate(-666.204 -556.116)" fill="#4f4d59"/><path d="M917.828,663.082l-.6,3.39a27.165,27.165,0,0,1,8.243,1.463s1.995-.865.333-1.922a3.562,3.562,0,0,1-3.123-1.922c-1.2-2.054-1.922-1.795-1.922-1.795Z" transform="translate(-757.286 -551.37)" fill="#4f4d59"/><path d="M813.1,511.852l.577,10.316a4.267,4.267,0,0,1-1.017,3.017,6.251,6.251,0,0,1-1.1,1.024c-1.4,1-4.388,11.5-4.388,11.5s3.39.192,4.32.865c0,0,.192-2.658.73-2.925s4.453-8.043,4.453-8.043l3.923-10.1s3.123,5.381,5.783,6.315v2.26s1.463,6.648,1.995,7.378,0,3.651,0,3.651,1.538,1.922,5.051-.133a4.437,4.437,0,0,1-1.063-2.792c.067-1.53-1.537-9.9-1.537-9.9s.192-3.19-1.4-5.189-4.226-9.634-4.226-9.634l-1.83-3.936Z" transform="translate(-668.377 -424.733)" fill="#c48c96"/><g transform="translate(138.841 80.789)" opacity="0.1"><path d="M808.018,537.715s2.99-10.5,4.388-11.5a6.343,6.343,0,0,0,1.153-1.092,4.228,4.228,0,0,0,.961-2.948l-.586-10.318,9.8-6.042-.133-.286-10.266,6.331.586,10.318a4.228,4.228,0,0,1-.961,2.948,6.339,6.339,0,0,1-1.153,1.092c-1.393,1-4.388,11.5-4.388,11.5s3.39.192,4.32.865a2.034,2.034,0,0,1,.025-.271A18.649,18.649,0,0,0,808.018,537.715Z" transform="translate(-807.42 -505.53)"/><path d="M887.2,587.469s.532-2.925,0-3.651-1.995-7.378-1.995-7.378v-2.264c-2.658-.93-5.783-6.315-5.783-6.315l-.231.6c.9,1.43,3.306,4.978,5.418,5.716v2.26s1.463,6.648,1.995,7.378,0,3.651,0,3.651a2.774,2.774,0,0,0,2.379.807A2.6,2.6,0,0,1,887.2,587.469Z" transform="translate(-865.397 -555.881)"/></g><path d="M948.623,452.668l-1.3.086-.688.046v-1.662l.9-.163.559-.1s1.73-5.118,3.39-4.188S948.623,452.668,948.623,452.668Z" transform="translate(-781.035 -377.114)" fill="#714b4f"/><path d="M843.277,407s-.865,3.323-1.13,5.381,6.181.4,6.181.4-2.46-2.99-1.063-4.586Z" transform="translate(-696.625 -345.147)" fill="#714b4f"/><path d="M849.182,431.452l.133,1.263-2.06-.133-2.06-1.8L843.133,425l-1.326-2.062-1-1.263.4-1.537s.183.159.49.394c1.013.769,3.386,2.385,5.122,1.939a2.081,2.081,0,0,0,.236-.075l2.593,4.453Z" transform="translate(-695.552 -355.762)" fill="#e6e6f0"/><path d="M821.054,418.1s-1.063.192-1.795,1.8c-.561,1.226-2.46,2.5-3.307,3.012a1.418,1.418,0,0,0-.644.9,6.624,6.624,0,0,0,.694,4.2,26.6,26.6,0,0,0,2.525,4.586s.265,3.19-.133,4.12,0,6.048,0,6.048,6.978,1.33,9.306,0,1.995-6.448,1.995-6.448,2.193,4.653,2.99,4.785l-.465-2.593a11.14,11.14,0,0,1-2.725-6.381s-.8-3.258-.133-4.12c0,0,11.233.93,11.9.133,0,0-7.378-.332-8.508-2.128,0,0-3.258-2.593-3.39-4.32a1.91,1.91,0,0,0-1-1.566,2.6,2.6,0,0,0-1.49-.333l-1.5.1s2.593,4.586,2.46,5.189.133,5.45.133,5.45-3-6.448-4.32-7.178-2.86-3.736-2.86-3.736l.265-1.518" transform="translate(-674.868 -354.114)" opacity="0.1"/><path d="M849.182,431.452l.133,1.263-2.06-.133-2.06-1.8L843.133,425l-1.326-2.062-1-1.263.4-1.537s.183.159.49.394l-.092.525s1.537,3,2.858,3.734,4.32,7.178,4.32,7.178-.265-4.853-.133-5.45c.09-.405-1.074-2.646-1.831-4.047a2.073,2.073,0,0,0,.236-.075l2.593,4.453Z" transform="translate(-695.552 -355.762)" opacity="0.1"/><path d="M947.318,471.26l-.688.046v-1.662l.9-.163A2.587,2.587,0,0,0,947.318,471.26Z" transform="translate(-781.035 -395.619)" opacity="0.1"/><path d="M821.054,417.08s-1.063.192-1.795,1.8c-.561,1.226-2.46,2.5-3.307,3.012a1.418,1.418,0,0,0-.644.9,6.624,6.624,0,0,0,.694,4.2,26.6,26.6,0,0,0,2.525,4.586s.265,3.19-.133,4.12,0,6.048,0,6.048,6.978,1.33,9.306,0,1.995-6.448,1.995-6.448,2.191,4.645,2.99,4.787l-.465-2.593a11.14,11.14,0,0,1-2.725-6.381s-.8-3.258-.133-4.12c0,0,2.593,2.792,5.518,2.725a55.031,55.031,0,0,1,6.38.332s-.665-2.127,0-2.925c0,0-7.378-.332-8.508-2.127,0,0-3.258-2.593-3.39-4.32a1.91,1.91,0,0,0-1-1.566,2.6,2.6,0,0,0-1.489-.332l-1.5.1s2.593,4.586,2.46,5.189.133,5.45.133,5.45-3-6.452-4.32-7.182-2.86-3.728-2.86-3.728l.265-1.518" transform="translate(-674.868 -353.29)" fill="#c48c96"/><path d="M830.2,453.39s1.6,5.381,2.525,6.048,6.58,4.055,8.243,3.258c0,0,.4,1.995-.192,2.46,0,0-6.2-.242-6.248-.265,0,0-4.055-.532-4.72-2.525s-1.462-5.381-1.462-5.381Z" transform="translate(-685.487 -382.622)" opacity="0.1"/><ellipse cx="0.233" cy="0.332" rx="0.233" ry="0.332" transform="translate(152.999 76.186)" fill="#ba7855"/><ellipse cx="0.233" cy="0.332" rx="0.233" ry="0.332" transform="translate(153.662 78.511)" fill="#ba7855"/><g transform="translate(140.337 63.784)" opacity="0.1"><path d="M818.861,441.64s-.4-5.118,0-6.048.133-4.12.133-4.12a26.6,26.6,0,0,1-2.525-4.586,6.609,6.609,0,0,1-.694-4.2,1.418,1.418,0,0,1,.644-.9c.848-.519,2.744-1.785,3.307-3.012a3.471,3.471,0,0,1,1.3-1.582l.025-.146s-1.063.192-1.795,1.8c-.561,1.226-2.46,2.5-3.307,3.012a1.418,1.418,0,0,0-.644.9,6.623,6.623,0,0,0,.694,4.2,26.6,26.6,0,0,0,2.525,4.586s.265,3.19-.133,4.12,0,6.048,0,6.048,4.985.949,7.933.44A30.743,30.743,0,0,1,818.861,441.64Z" transform="translate(-815.205 -417.05)"/><path d="M870.57,431.466a40.481,40.481,0,0,0,.075,4.293c.321.655.523,1.092.523,1.092s-.265-4.853-.133-5.45c.127-.577-2.208-4.739-2.441-5.151l-.484.033S870.7,430.868,870.57,431.466Z" transform="translate(-857.942 -424.482)"/><path d="M896.1,470.985c-2.925.067-5.518-2.725-5.518-2.725a1.063,1.063,0,0,0-.167.359c.769.715,2.883,2.485,5.22,2.431a55.032,55.032,0,0,1,6.38.332s-.013-.044-.035-.119a52.9,52.9,0,0,0-5.881-.279Z" transform="translate(-875.965 -458.418)"/><path d="M893,511.49s.027.415.012,1.038c.692,1.372,1.951,3.719,2.514,3.813l-.1-.546A31.42,31.42,0,0,1,893,511.49Z" transform="translate(-878.049 -493.34)"/></g><path d="M892.077,483.9l-1.413.3-1.115.234.6-1.662.417-.1.648-.161s.93-4.653,2.792-4.32S892.077,483.9,892.077,483.9Z" transform="translate(-734.925 -402.641)" fill="#714b4f"/><path d="M890.675,503.142l-1.115.234.6-1.662.417-.1A6.637,6.637,0,0,1,890.675,503.142Z" transform="translate(-734.933 -421.575)" opacity="0.1"/><path d="M830.2,452.7s1.6,5.381,2.525,6.048,6.58,4.055,8.243,3.258c0,0,.4,1.995-.192,2.46,0,0-6.2-.242-6.248-.265,0,0-4.055-.532-4.72-2.525s-1.462-5.381-1.462-5.381Z" transform="translate(-685.487 -382.064)" fill="#c48c96"/><path d="M847.075,407.74s-.135.521-.315,1.278a3.588,3.588,0,0,0,3.961,1.826,2.066,2.066,0,0,1,.342-1.906Z" transform="translate(-700.359 -345.745)" opacity="0.1"/><circle cx="3.59" cy="3.59" r="3.59" transform="translate(145.919 57.873)" fill="#714b4f"/><path d="M845.183,374.124a1.921,1.921,0,0,0,.8.05,1.316,1.316,0,0,0,.972-1.255,1.922,1.922,0,0,0-.74-1.482c-.3-.254-.667-.432-.946-.715a7.344,7.344,0,0,1-.769-1.182,3.507,3.507,0,0,0-1.8-1.4,1.633,1.633,0,0,0-1.647.192c-.217.206-.344.5-.586.675a2.623,2.623,0,0,1-1.257.227,2.4,2.4,0,0,0-1.807,1.345,3.385,3.385,0,0,0-.177,2.306c.083.327.206.642.294.961.192.677.231,1.386.446,2.053a2.211,2.211,0,0,0,1.332,1.52,4.211,4.211,0,0,1,.429-2.17.623.623,0,0,1,.3-.338.734.734,0,0,1,.365,0,3.651,3.651,0,0,0,2.431-.492c.256-.154.653-.684.924-.736C844.1,373.623,844.817,374.044,845.183,374.124Z" transform="translate(-692.556 -313.649)" opacity="0.1"/><path d="M845.183,373.434a1.921,1.921,0,0,0,.8.05,1.316,1.316,0,0,0,.972-1.255,1.922,1.922,0,0,0-.74-1.482c-.3-.254-.667-.432-.946-.715a7.343,7.343,0,0,1-.769-1.182,3.507,3.507,0,0,0-1.8-1.4,1.633,1.633,0,0,0-1.647.192c-.217.206-.344.5-.586.675a2.623,2.623,0,0,1-1.257.227,2.4,2.4,0,0,0-1.807,1.345,3.385,3.385,0,0,0-.177,2.306c.083.327.206.642.294.961.192.676.231,1.386.446,2.053a2.211,2.211,0,0,0,1.332,1.52,4.212,4.212,0,0,1,.432-2.168.623.623,0,0,1,.3-.338.735.735,0,0,1,.365,0,3.652,3.652,0,0,0,2.431-.492c.256-.154.653-.684.924-.736C844.1,372.933,844.817,373.354,845.183,373.434Z" transform="translate(-692.556 -313.092)" fill="#503f43"/><path d="M930.377,337.49,927.448,370.3l-13.165,3.652L901.155,370.3,898.23,337.49Z" transform="translate(-741.937 -288.996)" fill="#e44d26"/><path d="M981.86,382.434l10.637-2.948L995,351.45H981.86Z" transform="translate(-809.495 -300.273)" fill="#f16529"/><path d="M933.757,376.414h5.693V372.39H929.36l.1,1.08.99,11.089h9.006v-4.024h-5.325Zm.915,10.157h-4.036l.563,6.319,8.233,2.295h.019v-4.2h-.017l-4.482-1.211Z" transform="translate(-767.084 -317.189)" fill="#ebebeb"/><path d="M913.8,291.09h2.045v2.02h1.87v-2.02h2.045v6.119h-2.045V295.16h-1.87v2.049H913.8Zm8.648,2.029h-1.8V291.09h5.646v2.029h-1.8v4.09H922.45v-4.09h0Zm4.743-2.029h2.133l1.313,2.151,1.311-2.151h2.133v6.119h-2.037v-3.033l-1.407,2.176H930.6l-1.409-2.176v3.033h-2Zm7.906,0h2.045v4.1h2.883v2.022H935.1V291.09Z" transform="translate(-754.515 -251.513)"/><path d="M981.79,384.551h4.955l-.467,5.22-4.487,1.211v4.2l8.25-2.287.06-.68.946-10.6.1-1.08H981.79v4.024Zm0-8.154v.01h9.721l.081-.905.192-2.041.1-1.08H981.79v4.015Z" transform="translate(-809.438 -317.181)" fill="#fff"/><path d="M328.925,397.571a8.277,8.277,0,0,0-1.345-2.817.4.4,0,0,0-.085-.052h-.054v-1.355l-1.011.161a9.662,9.662,0,0,1-.367-1.5.7.7,0,0,0,.759.152c-.017-.027-.031-.056-.046-.085l.046-.019a1.878,1.878,0,0,1-.244-.921,3.353,3.353,0,0,1,.14-.869c.181-.625.486-1.209.657-1.835a4.463,4.463,0,0,0,.154-1.242,4.524,4.524,0,0,0-.473-2.047,1.2,1.2,0,0,0-.357-.467,4.621,4.621,0,0,0-.438-.213,2.365,2.365,0,0,1-.636-.634,5.716,5.716,0,0,0-2.762-1.843,1.617,1.617,0,0,0-.882-.069c-.678.192-.926,1.024-1.476,1.464a4.136,4.136,0,0,1-1.76.559,2.994,2.994,0,0,0-1.639.859,1.78,1.78,0,0,0-.44,1.188,1.194,1.194,0,0,0,.486,1.061,1.524,1.524,0,0,0,1.288.183,4.38,4.38,0,0,0,3.315,5.506l.119.211h0a9.069,9.069,0,0,1,.821,2.147,7.87,7.87,0,0,1-2.56,1.069,4.313,4.313,0,0,1-.133.709,3.915,3.915,0,0,1-.805,1.586c-.834.938-4.587,8.029-4.587,8.029s-.119.283-.311.769c-2.331.286-6.135.7-7.2.486l-4.17-3.963a3.074,3.074,0,0,0-1.23,2.277l-.751-.715s-3.963,3.023,2.295,5l9.521,1.105c-.907,2.737-1.753,5.921-1.491,7.655h.079a3.59,3.59,0,0,0,.544-.042l-.017.307-.917,16.418a4.705,4.705,0,0,0,2.606,4.38s3.442,10.115,2.085,11.262c0,0,.161.085.432.2l-2.831,2.5a13.282,13.282,0,0,1-3.233.417.828.828,0,0,0-.915.617.135.135,0,0,1-.012.065v.2a.121.121,0,0,0,.013.067v.025a.669.669,0,0,0,.023.071v.023c.01.023.021.046.033.069v.015c.013.023.027.046.042.069l.013.019a.91.91,0,0,0,.056.073l.015.019c.021.025.044.048.069.073h.012l.077.065.017.013.094.067.023.015.11.063h.017l.117.058h.017l.136.056.029.012.152.05h.025l.163.042h.013l.192.037h.037l.192.029h.037l.221.021c.429.033,1.007.044,1.676.042h0v.108a.121.121,0,0,0,.013.067v.025a.653.653,0,0,0,.023.071v.023c.01.023.021.046.033.069v.015c.013.023.027.046.042.069l.013.019a.913.913,0,0,0,.056.073l.015.019c.021.025.044.048.069.073h.01l.077.065.017.013.094.067.023.015.108.063h.017l.117.058h.017l.136.056.029.012.152.05h.025l.163.042h.013l.192.037h.036l.192.029h.036l.221.021c2.712.21,11.366-.417,11.366-.417v-.025h0v-.031h0a5.511,5.511,0,0,0-.974-4.486q.066-.069.127-.144s-1.153-1.981-.521-2.606S321.6,438.6,321.6,438.6a8.592,8.592,0,0,1-.834-6.675,13.6,13.6,0,0,0-.1-7.4,4.259,4.259,0,0,0,2.789-4.18v-.313a1.1,1.1,0,0,0,.173.012.808.808,0,0,0,.115,0,5.527,5.527,0,0,1,.1-3.233c.625-1.355,1.981-.1,3.233-5.631.905-4,1.7-8.6,2.074-10.837A5.706,5.706,0,0,0,328.925,397.571Zm-23.8,11.723-.951-.9c.315.131.665.258,1.055.384l3.584.421a18.394,18.394,0,0,1-3.688.1Z" transform="translate(-258.444 -324.858)" fill="url(#b)"/><path d="M315.33,508.417s-7.376,1.024-8.914.717l-4.1-3.894s-3.894,2.971,2.254,4.918l11.473,1.332Z" transform="translate(-259.569 -424.507)" fill="#fdc2cc"/><path d="M315.33,508.417s-7.376,1.024-8.914.717l-4.1-3.894s-3.894,2.971,2.254,4.918l11.473,1.332Z" transform="translate(-259.569 -424.507)" opacity="0.05"/><path d="M218.071,349.18l-15.94-4.42-3.552-39.84h39.031l-3.555,39.834Z" transform="translate(-176.749 -262.685)" fill="#264de4"/><path d="M313.053,355.92l3.038-34.04H300.14v37.613Z" transform="translate(-258.791 -276.386)" fill="#2965f1"/><path d="M237.26,357.16l.438,4.885h10.935V357.16Zm-.88-9.89.444,4.885h11.808V347.27H236.37Zm12.252,22.58h-.021l-5.443-1.47-.348-3.9h-4.914l.684,7.672,10.009,2.785h.023Z" transform="translate(-207.276 -296.896)" fill="#ebebeb"/><path d="M246.38,248.56H252.3v2.475h-3.444v2.475H252.3v2.475H246.38Zm7.111,0h5.917v2.152h-3.452v.43H259.4v4.951h-5.919v-2.26h3.444v-.43h-3.444V248.56Zm7.111,0h5.917v2.152h-3.461v.43H266.5v4.951h-5.919v-2.26h3.444v-.43h-3.444V248.56Z" transform="translate(-215.363 -217.157)"/><path d="M311.366,357.16l.882-9.89H300v4.885h6.886l-.444,5H300v4.885h6.017l-.577,6.342L300,369.854v5.083l10.017-2.777.073-.826,1.153-12.865.119-1.313Z" transform="translate(-258.678 -296.896)" fill="#fff"/><path d="M356.733,738.19l-3.586,3.175a12.962,12.962,0,0,1-3.175.409c-1.126-.1-1.639,1.741,1.024,1.947s11.166-.409,11.166-.409.819-3.279-1.639-5.122Z" transform="translate(-298.306 -612.687)" fill="#47465a"/><path d="M356.733,738.19l-3.586,3.175a12.962,12.962,0,0,1-3.175.409c-1.126-.1-1.639,1.741,1.024,1.947s11.166-.409,11.166-.409.819-3.279-1.639-5.122Z" transform="translate(-298.306 -612.687)" opacity="0.05"/><path d="M362.284,757.47a5.651,5.651,0,0,1-.129,1.111s-8.5.615-11.166.409c-1.282-.1-1.826-.577-1.922-1.034-.117.527.348,1.22,1.922,1.345,2.664.206,11.166-.409,11.166-.409A5.92,5.92,0,0,0,362.284,757.47Z" transform="translate(-298.301 -628.262)" fill="#fff" opacity="0.3"/><path d="M410.84,423.883s2.254,3.175,1.434,5.327,4.3-2.254,4.3-2.254a8.77,8.77,0,0,1-.819-5.956Z" transform="translate(-348.216 -356.457)" fill="#fdc2cc"/><path d="M375.389,744.59l-3.582,3.175a12.958,12.958,0,0,1-3.175.409c-1.126-.1-1.639,1.741,1.024,1.947s11.166-.409,11.166-.409.819-3.279-1.639-5.122Z" transform="translate(-313.38 -617.857)" fill="#47465a"/><path d="M369.065,584.144a2.719,2.719,0,0,1-2.076.951,8.7,8.7,0,0,1-3.763-.951c1.332-1.126-2.049-11.064-2.049-11.064a4.626,4.626,0,0,1-2.562-4.3l.9-16.124.227-4.051,2.869-1.741,2.26,1.73,2.145,1.645a8.62,8.62,0,0,1,.269,1.6,4.27,4.27,0,0,1-2.727,4.651,13.359,13.359,0,0,1,.1,7.274,8.437,8.437,0,0,0,.819,6.557s3.688,10.655,3.075,11.27S369.065,584.144,369.065,584.144Z" transform="translate(-306.026 -458.128)" fill="#565171"/><path d="M369.065,584.144a2.719,2.719,0,0,1-2.076.951,8.7,8.7,0,0,1-3.763-.951c1.332-1.126-2.049-11.064-2.049-11.064a4.626,4.626,0,0,1-2.562-4.3l.9-16.124.227-4.051,2.869-1.741,2.26,1.73,2.145,1.645a8.62,8.62,0,0,1,.269,1.6,4.27,4.27,0,0,1-2.727,4.651,13.359,13.359,0,0,1,.1,7.274,8.437,8.437,0,0,0,.819,6.557s3.688,10.655,3.075,11.27S369.065,584.144,369.065,584.144Z" transform="translate(-306.026 -458.128)" opacity="0.05"/><path d="M380.818,590.518c-1.741,2.151-5.839,0-5.839,0a.653.653,0,0,0,.179-.279c.751-2.043-2.535-11.81-2.535-11.81a5.976,5.976,0,0,1-3.075-4.507l-.725-16.416-.094-2.126,4.311-1.645,1.324-.505,4.411,3.38a7.991,7.991,0,0,1,.277,2.149,4.2,4.2,0,0,1-2.741,4.107,13.358,13.358,0,0,1,.1,7.274,8.4,8.4,0,0,0,.824,6.548s3.688,10.655,3.075,11.27S380.818,590.518,380.818,590.518Z" transform="translate(-314.199 -463.274)" fill="#565171"/><path d="M374.658,553.621a13.81,13.81,0,0,1-3.6-1.772c-.352-.221-.577-.369-.577-.369s-.922-2.562-3.381-.615a9.205,9.205,0,0,1-2.671,1.51,6.25,6.25,0,0,1-1.14.286l.227-4.051,2.869-1.741,2.26,1.73,1.324-.505,4.411,3.379A7.993,7.993,0,0,1,374.658,553.621Z" transform="translate(-309.804 -458.136)" opacity="0.1"/><path d="M377.513,450.855c-.365,2.2-1.153,6.726-2.037,10.645-1.23,5.429-2.562,4.2-3.175,5.531a5.431,5.431,0,0,0-.1,3.175c-1.024.1-4.4-2.151-4.4-2.151s-.922-2.562-3.38-.615a7.2,7.2,0,0,1-4.4,1.843c-.513-3.381,3.279-12.4,3.279-12.4s3.688-6.967,4.507-7.88a3.843,3.843,0,0,0,.792-1.557,4.236,4.236,0,0,0,.131-.7c1.332-.1,4.612-2.356,4.612-2.356l2.562-.409v1.332a.383.383,0,0,1,.085.052,8.078,8.078,0,0,1,1.32,2.767A5.606,5.606,0,0,1,377.513,450.855Z" transform="translate(-307.116 -375.028)" fill="#e1a0a7"/><path d="M326.184,503.5l-1.324-.154-10.149-1.178c-6.15-1.947-2.254-4.918-2.254-4.918l4.1,3.894c1.182.236,5.819-.315,7.9-.577.623-.081,1.017-.135,1.017-.135Z" transform="translate(-267.757 -418.053)" fill="#fdc2cc"/><path d="M391.995,456.492s-2.664-2.151-6.667,4.814-4.918,5.839-4.918,5.839.819,3.075.409,3.688a22.369,22.369,0,0,1,3.79,0c1.024.206,7.376-7.785,7.376-7.785S395.274,458.541,391.995,456.492Z" transform="translate(-323.634 -384.875)" opacity="0.1"/><path d="M391.5,454.362s-2.664-2.151-6.659,4.814-4.918,5.839-4.918,5.839,3.175,3.482,4.2,3.688,7.376-7.785,7.376-7.785S394.776,456.411,391.5,454.362Z" transform="translate(-323.238 -383.154)" opacity="0.1"/><path d="M380.379,516.729a12.315,12.315,0,0,0-.409-2.785c.623-.081,1.017-.134,1.017-.134l.717,3.075Z" transform="translate(-323.279 -431.43)" opacity="0.1"/><path d="M391.995,455.423s-2.664-2.151-6.667,4.816-4.918,5.839-4.918,5.839.819,3.075.409,3.688a22.369,22.369,0,0,1,3.79,0c1.024.206,7.376-7.785,7.376-7.785S395.274,457.472,391.995,455.423Z" transform="translate(-323.634 -384.011)" fill="#e1a0a7"/><path d="M416.3,422.09l-4.926,2.866a10.49,10.49,0,0,1,.577.938,4.321,4.321,0,0,0,.861.086c1.313,0,1.922-1.378,2.716-2.306C415.465,422.936,416.069,422.916,416.3,422.09Z" transform="translate(-348.644 -357.337)" opacity="0.1"/><circle cx="4.303" cy="4.303" r="4.303" transform="translate(59.755 59.837)" fill="#fdc2cc"/><path d="M388.162,388.745a2.941,2.941,0,0,1,1.611-.846,4,4,0,0,0,1.73-.55c.54-.432.782-1.255,1.449-1.439a1.589,1.589,0,0,1,.867.069,5.614,5.614,0,0,1,2.714,1.81,2.324,2.324,0,0,0,.627.625,4.546,4.546,0,0,1,.43.209,1.175,1.175,0,0,1,.35.459,4.455,4.455,0,0,1,.311,3.127c-.167.617-.467,1.19-.646,1.8a2.38,2.38,0,0,0,.1,1.86.759.759,0,0,1-.911-.336,3.607,3.607,0,0,1-.361-1,3.8,3.8,0,0,0-1.111-1.73c-.323-.284-.9-.477-1.124-.11-.086.142-.081.325-.156.473a.635.635,0,0,1-.851.192,1.3,1.3,0,0,1-.532-.79c-.421-1.428-1.142-2.325-2.668-1.716a1.857,1.857,0,0,1-1.787,0A1.453,1.453,0,0,1,388.162,388.745Z" transform="translate(-329.543 -328.086)" opacity="0.1"/><path d="M388.162,388.2a2.94,2.94,0,0,1,1.61-.846,3.994,3.994,0,0,0,1.73-.55c.54-.432.782-1.255,1.449-1.439a1.589,1.589,0,0,1,.867.069,5.614,5.614,0,0,1,2.714,1.81,2.322,2.322,0,0,0,.627.625,4.532,4.532,0,0,1,.43.21,1.175,1.175,0,0,1,.35.459,4.455,4.455,0,0,1,.311,3.127c-.167.617-.467,1.19-.646,1.8a2.38,2.38,0,0,0,.1,1.86A.759.759,0,0,1,396.8,395a3.608,3.608,0,0,1-.361-1,3.8,3.8,0,0,0-1.111-1.73c-.323-.284-.9-.477-1.124-.11-.086.142-.081.325-.156.473a.635.635,0,0,1-.851.192,1.3,1.3,0,0,1-.532-.79c-.421-1.428-1.142-2.325-2.668-1.716a1.857,1.857,0,0,1-1.787,0A1.453,1.453,0,0,1,388.162,388.2Z" transform="translate(-329.543 -327.649)" fill="#8f5a6a"/><path d="M412.216,445.342h-2.081s-4.1,2.049-4.2,1.947a3.532,3.532,0,0,0-1.105.133,4.24,4.24,0,0,0,.131-.7c1.332-.1,4.612-2.356,4.612-2.356l2.562-.409v1.332A.386.386,0,0,1,412.216,445.342Z" transform="translate(-343.361 -375.004)" opacity="0.05"/><path d="M380.934,763.86a5.652,5.652,0,0,1-.129,1.111s-8.5.615-11.166.409c-1.282-.1-1.826-.577-1.922-1.034-.117.527.348,1.22,1.922,1.345,2.664.206,11.166-.409,11.166-.409A5.92,5.92,0,0,0,380.934,763.86Z" transform="translate(-313.367 -633.424)" fill="#fff" opacity="0.3"/><g transform="translate(52.917 70.284)" opacity="0.05"><path d="M363.737,562.422a8.768,8.768,0,0,1-3.407,1.73,1.438,1.438,0,0,0,.027.225,7.217,7.217,0,0,0,4.4-1.843,3.3,3.3,0,0,1,1.316-.688C365.542,561.583,364.777,561.6,363.737,562.422Z" transform="translate(-360.33 -540.396)"/><path d="M423.851,453.689a8.24,8.24,0,0,0-1.32-2.767.384.384,0,0,0-.085-.052s-.848.029-.819.052a7.759,7.759,0,0,1,1.2,2.664,5.606,5.606,0,0,1,.223,2.721c-.365,2.2-1.153,6.726-2.037,10.645-1.23,5.429-2.562,4.2-3.175,5.531a5.162,5.162,0,0,0-.142,3.008,2.578,2.578,0,0,0,1.065.271,5.413,5.413,0,0,1,.1-3.175c.615-1.332,1.947-.1,3.175-5.531.89-3.928,1.672-8.456,2.037-10.645A5.606,5.606,0,0,0,423.851,453.689Z" transform="translate(-406.541 -450.87)"/></g><path d="M482.3,550.149a2.243,2.243,0,0,0,.736-1.111.986.986,0,0,0-.515-1.132,1.443,1.443,0,0,0-1.361.479,1.81,1.81,0,0,1-1.324.638,2.014,2.014,0,0,0,.623-1.885.788.788,0,0,0-.173-.384c-.263-.281-.738-.16-1.053.061a3.923,3.923,0,0,0-1.284,3.283,6.29,6.29,0,0,1-.019-1.345,1.389,1.389,0,0,0-.507-1.2,1.537,1.537,0,0,0-.769-.183,1.6,1.6,0,0,0-1.257.357,1.236,1.236,0,0,0,.05,1.537,5,5,0,0,0,1.3,1.042,2.884,2.884,0,0,1,.93.886.879.879,0,0,1,.069.158h2.815A7.847,7.847,0,0,0,482.3,550.149Z" transform="translate(-400.163 -457.91)" fill="#6c63ff"/><path d="M498.526,732.577a3.06,3.06,0,0,0,1-1.507,1.342,1.342,0,0,0-.7-1.537,1.944,1.944,0,0,0-1.845.648,2.437,2.437,0,0,1-1.793.865,2.731,2.731,0,0,0,.844-2.556,1.069,1.069,0,0,0-.234-.519c-.356-.384-1-.217-1.426.083-1.345.961-1.73,2.792-1.739,4.449a8.461,8.461,0,0,1-.025-1.833,1.884,1.884,0,0,0-.688-1.622,2.073,2.073,0,0,0-1.049-.246,2.165,2.165,0,0,0-1.7.484,1.69,1.69,0,0,0,.067,2.091A6.65,6.65,0,0,0,491,732.789a3.908,3.908,0,0,1,1.259,1.2,1.186,1.186,0,0,1,.094.215h3.819a10.64,10.64,0,0,0,2.356-1.628Z" transform="translate(-411.222 -604.251)" fill="#6c63ff"/></svg>