<svg xmlns="http://www.w3.org/2000/svg" xmlns:xlink="http://www.w3.org/1999/xlink" width="263.143" height="125.685" viewBox="0 0 263.143 125.685"><defs><linearGradient id="a" y1="0.5" x2="1" y2="0.5" gradientUnits="objectBoundingBox"><stop offset="0" stop-color="gray" stop-opacity="0.251"/><stop offset="0.54" stop-color="gray" stop-opacity="0.122"/><stop offset="1" stop-color="gray" stop-opacity="0.102"/></linearGradient><linearGradient id="b" x1="-8.171" y1="1" x2="-8.171" y2="0" xlink:href="#a"/></defs><path d="M279.1,305.157a18.9,18.9,0,0,1-5.2,6.239c-.307.246-.622.484-.94.717q-.644.452-1.32.888a43.389,43.389,0,0,1-11.605,4.849q-1.637.452-3.285.85-1.39.337-2.783.628c-.353.077-.705.149-1.058.226s-.757.151-1.13.226l-.536.1a138.16,138.16,0,0,1-31.421,1.795l-.5-.025-.8-.041q-3.219-.167-6.445-.427l-.814-.066-.359-.029q-1.808-.151-3.617-.332-2.383-.226-4.772-.5l-.206-.023-.167-.02h0c-5.685-.64-11.384-1.408-17.09-2.2l-.807-.113-1.449-.2-1.221-.17h0l-.362-.05q-2.889-.4-5.778-.8l-.312-.043c-3.617-.5-7.254-.972-10.88-1.406l-.472-.057h0q-2.227-.264-4.451-.5l-1.13-.12-1.5-.151c-4.166-.414-8.33-.744-12.485-.949q-3-.149-6.008-.226-2.487-.057-4.973-.066-3.373-.016-6.759.038h-.511c-3.181.052-6.368.142-9.557.251l-.574.018h-.19c-6.782.24-13.563.558-20.327.787l-1.652.054h-.24q-3.526.113-7.046.174h-1.4l-1.049.014q-1.634.016-3.262.018H79.324c-3.983-.011-7.95-.1-11.893-.305l-.439-.025a150.518,150.518,0,0,1-22.675-2.821q-1.155-.242-2.306-.506a105.881,105.881,0,0,1-15.1-4.591,18.023,18.023,0,0,1-6.4-3.716c-4.467-4.521-2.789-13.375,3.022-15.95,4.546-2.014,9.872-.375,14.761-1.284a7.54,7.54,0,0,0,.888-.226,12.342,12.342,0,0,0,1.808-.746c.2-.1.4-.206.6-.316a15.261,15.261,0,0,0,1.338-.818,20.535,20.535,0,0,0,2.034-1.544q.429-.366.836-.759a16,16,0,0,0,2.468-2.955,10.442,10.442,0,0,0,.678-1.275,6.733,6.733,0,0,0,.28-.705,6.567,6.567,0,0,0,.269-1.044,4.833,4.833,0,0,0-1.781-4.7,4.731,4.731,0,0,0-.452-.341,6.911,6.911,0,0,0-.981-.567c-.138-.066-.28-.129-.425-.19-2.066-.87-4.731-1.2-6.978-1.808h0a12.322,12.322,0,0,1-2-.694c-.409-.19-.816-.389-1.216-.6h0l-.106-.059h0a27.214,27.214,0,0,1-8.816-7.234,23.564,23.564,0,0,1-1.641-2.383c-.151-.249-.3-.5-.439-.76-3.972-7.166-4.381-16.348-.249-23.394a22.136,22.136,0,0,1,1.673-2.455q.3-.387.617-.76c3.933-4.641,9.585-7.785,15.29-10.114a107.6,107.6,0,0,1,23.848-6.4q2.487-.4,4.973-.71c6.94-.886,13.961-1.356,20.932-1.713q9.781-.5,19.648-.64,3.343-.045,6.693-.038,7.548,0,15.1.292,2.487.095,4.973.226,6.377.33,12.729.9,3.052.276,6.09.608a249.8,249.8,0,0,1,45.305,8.992q2.5.755,4.973,1.582a192.054,192.054,0,0,1,18.172,7.023q.841.377,1.677.759,5.559,2.55,10.959,5.5a121.881,121.881,0,0,1,13.7,8.59q2.559,1.876,4.973,3.915a71.525,71.525,0,0,1,7.937,7.83q.325.377.644.76,1.655,1.987,3.142,4.116c4.838,6.953,8.084,14.906,10.48,23.03C281.048,290.591,282.454,298.55,279.1,305.157Z" transform="translate(-17.965 -200.927)" fill="#6c63ff" opacity="0.1"/><path d="M298.943,280.855H279.631V256.29h8.59q-.319-.382-.644-.76H279.64V247.7q-2.41-2.034-4.973-3.915V255.54H230.146V229.7H250q-.839-.382-1.677-.76H230.146v-7.023q-2.487-.821-4.973-1.582v8.59H161.634l-.151-.145,18.38-17.447q-3.038-.335-6.09-.608L161.044,222.8V209.828q-2.487-.131-4.973-.226v14.036l-15.1-14.327q-3.348,0-6.693.038l20.471,19.429-.151.145H93.7v-17.2q-2.487.314-4.973.71v16.5H49.58q-.319.373-.617.76H88.719v25.833H47.53c.14.255.287.511.439.76h40.75v24.565H68.675q-.407.393-.836.76h20.88v25.137q2.487.355,4.973.741V281.615h62.374v31.5q2.487,0,4.973.066V281.615h64.129v38.558l.206.023q2.387.267,4.772.5v-39.08h44.507v38.1c.38-.07.76-.145,1.13-.226s.705-.142,1.058-.226q1.393-.3,2.783-.628V281.615h19.468Zm-142.876,0H93.7V256.29h62.37Zm0-25.318H93.7V229.7h61.486l.877.692Zm69.1,25.318H161.044V256.29h64.124Zm0-25.318H161.044V229.7h64.124Zm49.485,25.318H230.146V256.29h44.507Z" transform="translate(-40.847 -200.876)" fill="#6c63ff" opacity="0.1"/><path d="M315.065,679.24a.323.323,0,0,1-.025.075h0a.2.2,0,0,1,.027-.075Z" transform="translate(-247.886 -564.578)" fill="#eaecf0"/><path d="M309.024,640.435h-1.4l-1.049.014-.115-1.191-.106-1.13-.493-5.156-.016-.158v-.07l-.138-1.451,2.111-.791.258,2.1.018.156v.018l.522,4.272.16,1.311.093.762.079.653v.023Z" transform="translate(-240.665 -526.855)" fill="#eaecf0"/><path d="M335.367,507.2l.025.075h-.167l-.025-.075Z" transform="translate(-259.429 -392.54)" fill="#3a3768"/><path d="M439.4,679.55Z" transform="translate(-344.134 -564.817)" fill="#3a3768"/><path d="M358.547,538.738v.1a58.174,58.174,0,0,0-2.613,9.985q-.066.452-.108.9c-.032.319-.057.631-.07.934-.018.355-.023.7-.014,1.026v.226c0,.151.016.307.025.468s.023.321.036.488.027.314.043.475a104.451,104.451,0,0,0,2.333,12.254s.061.2.14.531h-.511c-3.181.052-6.368.142-9.557.251l-.574.018h-.19c-6.782.24-13.563.558-20.327.787l-1.652.054h-.24q-3.526.113-7.046.174H317.6a3.808,3.808,0,0,1,.547-.617,3.972,3.972,0,0,1,.554-.43,12.464,12.464,0,0,1,3.47-1.49,2.766,2.766,0,0,1,.793-.1l1.582.032h.244l2.428.047,20.824.414h.052l.147-.029a3.9,3.9,0,0,0,.7-.249,2.468,2.468,0,0,0,1.483-1.917c0-.07.018-.145.023-.226a2.67,2.67,0,0,0,0-.33,1.127,1.127,0,0,0-.018-.242c-.018-.084-.023-.167-.038-.253-.5-2.805-1.356-11.44-1.356-11.44v.027s0-.368.02-.988v-.285c0-.138.016-.287.025-.452,0-.1.014-.2.02-.3.011-.151.025-.307.038-.47a.134.134,0,0,1,0-.029q.014-.154.027-.312v-.034c.337-3.334,1.4-8.613,4.747-10.568,1.571-.92,2.611-1.105,3.3-.925a2.027,2.027,0,0,1,1.3,1.978v.131a3.317,3.317,0,0,1,.032.382Z" transform="translate(-249.867 -453.86)" fill="#3a3768"/><path d="M315.065,679.24a.323.323,0,0,1-.025.075h0a.2.2,0,0,1,.027-.075Z" transform="translate(-247.886 -564.578)" opacity="0.1"/><path d="M335.367,507.2l.025.075h-.167l-.025-.075Z" transform="translate(-259.429 -392.54)" opacity="0.1"/><path d="M439.4,679.55Z" transform="translate(-344.134 -564.817)" opacity="0.1"/><path d="M358.493,538.442v.07a61.522,61.522,0,0,0-2.4,8.7h0q-.081.452-.149.875c-.023.145-.043.289-.063.434q-.066.452-.108.9c-.032.319-.057.631-.07.934-.018.355-.023.7-.014,1.026v.226c0,.151.016.307.025.468s.023.323.036.488.027.314.043.475.032.314.05.472c.072.64.163,1.311.267,1.994.708,4.6,2.016,9.763,2.016,9.763s.066.208.145.556h-.511c-3.181.052-6.368.142-9.557.251l-.574.018h-.19c-6.782.24-13.563.558-20.327.787l-1.652.054h-.24q-3.526.113-7.046.174h-.642a3.883,3.883,0,0,1,.565-.64,3.742,3.742,0,0,1,.556-.434,12.6,12.6,0,0,1,3.47-1.49,2.845,2.845,0,0,1,.793-.095l1.582.032h.244l2.435.047,20.84.411h.036a.573.573,0,0,0,.163-.034,3.648,3.648,0,0,0,.708-.255,2.466,2.466,0,0,0,1.463-1.878c0-.07.018-.145.023-.226a2.67,2.67,0,0,0,0-.33,1.121,1.121,0,0,0-.018-.242c-.018-.084-.023-.183-.038-.278-.5-2.805-1.356-11.44-1.356-11.44s0-.369.02-.988v-.285c0-.138.016-.287.025-.452,0-.1.014-.2.02-.3.011-.151.025-.307.038-.47a.132.132,0,0,1,0-.029q.014-.154.027-.312v-.034c.041-.416.095-.864.163-1.332.47-3.273,1.646-7.548,4.575-9.268,1.53-.9,2.554-1.094,3.242-.938a2.012,2.012,0,0,1,1.356,2.019V538a3.307,3.307,0,0,1,.032.441Z" transform="translate(-249.813 -453.564)" opacity="0.1"/><path d="M315.065,679.24a.323.323,0,0,1-.025.075h0a.2.2,0,0,1,.027-.075Z" transform="translate(-247.886 -564.578)" fill="#3a3768"/><path d="M335.367,507.2l.025.075h-.167l-.025-.075Z" transform="translate(-259.429 -392.54)" fill="#3a3768"/><path d="M439.4,679.55Z" transform="translate(-344.134 -564.817)" fill="#3a3768"/><path d="M355.329,537.625s-2.95,8.061-2.808,12.885,2.446,13.889,2.446,13.889.1.319.206.827c-3.181.052-6.368.142-9.557.251l-.574.018h-.19c-6.782.24-13.563.558-20.327.787l-1.652.054h-.24q-3.526.113-7.046.174h-1.4a4.068,4.068,0,0,1,1.241-1.3l.061-.043a12.58,12.58,0,0,1,3.468-1.458,2.846,2.846,0,0,1,.793-.095l2.089.041h.244l2.516.05,20.288.4a3.412,3.412,0,0,0,.839-.273,2.422,2.422,0,0,0,.258-.138h0a2.713,2.713,0,0,0,.678-.554,2.561,2.561,0,0,0,.522-2.26c-.5-2.805-1.356-11.44-1.356-11.44s-.145-10.507,4.892-13.457c2.034-1.191,3.178-1.151,3.818-.678a.436.436,0,0,1,.054.041A2.948,2.948,0,0,1,355.329,537.625Z" transform="translate(-247.228 -452.94)" fill="#3a3768"/><path d="M127.22,631.421l-.081.843-.493,5.174q-1.155-.242-2.306-.506l.576-4.7.194-1.6Z" transform="translate(-100.294 -526.956)" fill="#eaecf0"/><path d="M55.12,364.992l12.311-26.2,49.589,3.868,4.571,22.334Z" transform="translate(-42.661 -262.199)" fill="#efc6cd"/><path d="M55.12,456.985V454.7h66.471v3.341Z" transform="translate(-42.661 -351.907)" fill="#d48a9b"/><path d="M154.309,565.9l29.739.606a.411.411,0,0,0,.4-.54l-4.636-12.505-20.03-.382-5.925,12.13a.493.493,0,0,0,.452.692Z" transform="translate(-123.106 -466.936)" fill="#dfe6f5"/><path d="M154.309,565.9l29.739.606a.411.411,0,0,0,.4-.54l-4.636-12.505-20.03-.382-5.925,12.13a.493.493,0,0,0,.452.692Z" transform="translate(-123.106 -466.936)" opacity="0.15"/><path d="M154.94,563.646l30.047.633L180.9,551.907a1.02,1.02,0,0,0-.947-.7l-19.309-.366Z" transform="translate(-123.977 -465.203)" fill="#dfe6f5"/><path d="M165.628,566.054l3.6-7.923a.961.961,0,0,1,.873-.561h8.949a.956.956,0,0,1,.956.956v8.561a.958.958,0,0,1-1,.956l-12.553-.64a.956.956,0,0,1-.823-1.349Z" transform="translate(-132.183 -470.411)" fill="#4c4c56"/><path d="M244,572.859l.154-4.521a.694.694,0,0,1,.692-.678h2.645a.692.692,0,0,1,.678.574l.778,4.5a.694.694,0,0,1-.678.812l-3.578.032a.692.692,0,0,1-.689-.714Z" transform="translate(-192.903 -478.22)" fill="#d1d9ec"/><path d="M85.32,457.712l9.971-.832a.678.678,0,0,1,.71.4l9.429,21.341-5.262,11.813c.165-.371.287,2.514-.9.014L84.278,459.188C84.077,458.77,84.852,457.771,85.32,457.712Z" transform="translate(-69.263 -392.478)" fill="#4c4c56"/><path d="M85.32,457.712l9.971-.832a.678.678,0,0,1,.71.4l9.429,21.341-5.262,11.813c.165-.371.287,2.514-.9.014L84.278,459.188C84.077,458.77,84.852,457.771,85.32,457.712Z" transform="translate(-69.263 -392.478)" opacity="0.15"/><path d="M86.933,455.978l10.478-1.338a.678.678,0,0,1,.71.4l9.431,21.342-5.706,12.806L86.4,456.948a.678.678,0,0,1,.536-.97Z" transform="translate(-70.876 -390.744)" fill="#4c4c56"/><path d="M98.587,463.151l7.575-1.18a.678.678,0,0,1,.735.416l7.934,19.409a.615.615,0,0,1-.014.5l-3.633,7.591a.613.613,0,0,1-1.11,0l-12-25.77a.678.678,0,0,1,.513-.963Z" transform="translate(-79.914 -396.416)" fill="#6c63ff"/><path d="M439.4,679.55Z" transform="translate(-344.134 -564.817)" fill="#fff"/><path d="M248.192,453.108s-.156.258-.384.678l-.02.038c-.2.362-.452.836-.705,1.356l-.574.018h-.19c-6.782.24-13.563.558-20.327.787l-1.652.054h-.24q-3.526.113-7.046.174h-1.4l-1.049.014q-1.634.016-3.262.018h-1.293c-3.983-.011-7.95-.1-11.893-.305l-.439-.025c.775-1.686,2.161-4.451,3.287-5.335.87-.678,7.121-1.431,12.869-1.982l.606-.059h.014l1.6-.149c2.2-.2,4.2-.364,5.62-.475l.131-.011-.741-2.487-1.074-3.617.305-3.038.025-.244h-.034a2,2,0,0,1-.9-.113l-10.735-.371H208.5l-4.123-.147h0c-2.211-.079-3.782-.138-3.843-.149a.975.975,0,0,1-.19-.052.853.853,0,0,1-.262-.158,1.048,1.048,0,0,1-.226-.271h-.145l-.583.038-.3.02c-.011-.032-.02-.063-.032-.093-.027-.088-.054-.172-.079-.258h-.156l-2.034-.043h-.036s-5.249.4-7.991-.6h0c-1.006-.366-1.675-.92-1.623-1.75a1.892,1.892,0,0,1,.118-.552c-.882-1.648,3.425-4.654,6.707-3.825a5.81,5.81,0,0,0,2.726.113,3.508,3.508,0,0,0,1.356-.617c.041-.029.077-.059.111-.088-.054-.034-.111-.063-.163-.09a2.526,2.526,0,0,0-.717-.249l.891-.26h.014s3.165-.289,5.224-.4h.014c.613-.032,1.13-.052,1.438-.043a8.85,8.85,0,0,0,4.112-1.23c.113-.3,1.32,0,1.32,0l1.056-.411c1.056-.409,1.659-.967,1.659-1.379s.943-.857.943-.857a8.913,8.913,0,0,1,2.134-2.159c.757-.585,1.544-1.108,2.127-1.472a42.887,42.887,0,0,1,.9-4.349,5.669,5.669,0,0,1,2.086-2.647l.163-.109a11.721,11.721,0,0,0-.5-1.655,1.275,1.275,0,0,0-.054-.136c-.045-.106-.093-.21-.14-.307l-.07-.136c-.115.023-.226.043-.348.059a7.911,7.911,0,0,1-1.13.084,7.756,7.756,0,0,1-7.494-5.651s0,0,0-.014a7.653,7.653,0,0,1-.271-2.034,7.442,7.442,0,0,1,.258-1.953h0c.034-.136.075-.269.118-.4a.361.361,0,0,1,.016-.045c.02-.061.041-.124.063-.185a7.942,7.942,0,0,1-1.01.088h-.226a4.783,4.783,0,0,1-1.892-.314h0a2.568,2.568,0,0,1-.418-.226.054.054,0,0,1-.018-.014,2.12,2.12,0,0,1-.466-.368,2.4,2.4,0,0,0,.92-1.6,2.949,2.949,0,0,1,.271-1.431,2.053,2.053,0,0,1,.529-.452,33.763,33.763,0,0,0,3.244-2.916,6.337,6.337,0,0,1,3.865-1.854c1.962-.061,3.689,1.3,5.633,1.562a15.253,15.253,0,0,1,1.793.2,6.171,6.171,0,0,1,1.82.922,4.569,4.569,0,0,1,1.3,1.1,3.891,3.891,0,0,1,.529,1.264,13.974,13.974,0,0,1,.452,2.9c.052,1.024,0,2.055.109,3.072a5.269,5.269,0,0,0,.868,2.471h.029a3.392,3.392,0,0,0,.28.344c-.192.061-.384.115-.581.163a9.176,9.176,0,0,1-.992.2,2.889,2.889,0,0,1-.463.038,1.383,1.383,0,0,1-.321-.029l.2.133.552.371h0l.208.138.418.278c.095-.278.226-.353.378-.335.307-.289.766.337.766.337a4.537,4.537,0,0,0,1.632,1.408,12.9,12.9,0,0,0,1.16.606c8.448,5.034,7.912,12.566,8.409,13.163s.529,2.758.529,2.758,1.246,7.344,1.808,7.98.036.857.527,1.567a5.821,5.821,0,0,1,.378,2.609s.339,4.474,1.546,5.443c1.083.87,2.53,8.192,2.817,9.689Z" transform="translate(-148.695 -342.641)" fill="url(#a)"/><path d="M200.811,556.44s-1.173,1.847-4.5,1-7.72,2.365-6.465,3.951,9.345-.452,9.345-.452l3.1-.628-.2-2.584Z" transform="translate(-150.825 -469.537)" fill="#d38884"/><path d="M200.811,556.44s-1.173,1.847-4.5,1-7.72,2.365-6.465,3.951,9.345-.452,9.345-.452l3.1-.628-.2-2.584Z" transform="translate(-150.825 -469.537)" opacity="0.1"/><path d="M235.906,555.745l-1.44-.075-.886.258s2.808.407,2.034,4.211l3.027-.183Z" transform="translate(-184.84 -468.941)" fill="#a36468"/><path d="M235.906,555.745l-1.44-.075-.886.258s2.808.407,2.034,4.211l3.027-.183Z" transform="translate(-184.84 -468.941)" opacity="0.1"/><path d="M258,518.36s-3.951,2.26-5.061,4.139c0,0-.922.452-.922.85s-.592.958-1.625,1.356l-1.035.407s-1.182-.3-1.293,0a8.6,8.6,0,0,1-4.026,1.218c-1.331-.036-6.537.452-6.537.452a4.627,4.627,0,0,1,2.622,5.134l12.3-.515,4.652-1.035,2.735-2.733Z" transform="translate(-187.874 -440.065)" fill="#444053"/><path d="M258,518.36s-3.951,2.26-5.061,4.139c0,0-.922.452-.922.85s-.592.958-1.625,1.356l-1.035.407s-1.182-.3-1.293,0a8.6,8.6,0,0,1-4.026,1.218c-1.331-.036-6.537.452-6.537.452a4.627,4.627,0,0,1,2.622,5.134l12.3-.515,4.652-1.035,2.735-2.733Z" transform="translate(-187.874 -440.065)" opacity="0.1"/><path d="M202.815,570.2l-1.741-.034-2.034-.043s-9.607.739-9.42-2.333,7.577-4.15,8.606-3.269a10.652,10.652,0,0,0,3.407,1.424c.262.07.423.109.423.109Z" transform="translate(-150.816 -475.563)" fill="#d38884"/><path d="M241.113,576.117l-1.741-.034c-.694-2.385.111-3.7.567-4.214.262.07.423.108.423.108Z" transform="translate(-189.113 -481.479)" opacity="0.1"/><path d="M242.736,575.3l-1.808.127-.859.059c-1.182-3.472.728-4.84.728-4.84h.565l.925.111Z" transform="translate(-189.563 -480.534)" fill="#a36468"/><path d="M335.054,458.694l-2.143,4.069s-.328-4.121-1.282-6.063a1.72,1.72,0,0,0-.861-.956c-.9-.285,4.295-5.984,4.295-5.984a20.693,20.693,0,0,1,2.387,1.508c1.34.9,2.954,2.007,4.04,2.713C343.549,455.294,335.054,458.694,335.054,458.694Z" transform="translate(-259.977 -386.972)" fill="#d38884"/><path d="M327.226,489.62a5.779,5.779,0,0,0-2.2,2.731,45.606,45.606,0,0,0-.925,4.544s.778,6.98,1.182,7.313,1.944,7.313,1.944,7.313l1.492-1-1.958-8.791S328.063,490.436,327.226,489.62Z" transform="translate(-254.898 -417.821)" fill="#444053"/><path d="M327.226,489.62a5.779,5.779,0,0,0-2.2,2.731,45.606,45.606,0,0,0-.925,4.544s.778,6.98,1.182,7.313,1.944,7.313,1.944,7.313l1.492-1-1.958-8.791S328.063,490.436,327.226,489.62Z" transform="translate(-254.898 -417.821)" opacity="0.1"/><path d="M323.65,339.973h-8.61l1.395-13.583h7.216Z" transform="translate(-243.826 -252.602)" fill="#a36468"/><path d="M282.53,679.24h.1l-.194.075Z" transform="translate(-222.655 -564.578)" fill="#67647e"/><path d="M263.4,640.361l-1.684.646-.226.084-6.063,2.331-2.312.888-3.147,1.209h-1.284c-3.983-.011-7.95-.1-11.893-.305.764-1.675,2.1-4.356,3.19-5.222.85-.678,6.931-1.411,12.544-1.962.7-.068,1.392-.133,2.066-.194l.16-.016c2.229-.2,4.245-.368,5.651-.482l.226-.018,1.768-.136.185-.185.226.967.188.773Z" transform="translate(-187.324 -531.886)" fill="#67647e"/><path d="M282.53,679.24h.1l-.194.075Z" transform="translate(-222.655 -564.578)" opacity="0.1"/><path d="M263.4,640.361l-1.684.646-.226.084-6.063,2.331-2.312.888-3.147,1.209h-1.284c-3.983-.011-7.95-.1-11.893-.305.764-1.675,2.1-4.356,3.19-5.222.85-.678,6.931-1.411,12.544-1.962.7-.068,1.392-.133,2.066-.194l.16-.016c2.229-.2,4.245-.368,5.651-.482l.226-.018,1.768-.136.185-.185.226.967.188.773Z" transform="translate(-187.324 -531.886)" opacity="0.1"/><path d="M282.53,679.24h.1l-.194.075Z" transform="translate(-222.655 -564.578)" fill="#67647e"/><path d="M315.065,679.24a.323.323,0,0,1-.025.075h0a.2.2,0,0,1,.027-.075Z" transform="translate(-247.886 -564.578)" fill="#67647e"/><path d="M335.392,507.275h-.167l-.025-.075h.167Z" transform="translate(-259.429 -392.54)" fill="#67647e"/><path d="M305.556,641.319l-.14,4.652v.276l-.07,2.3-1.652.054h-.24q-3.526.113-7.046.174h-1.4l-1.049.014q-1.634.016-3.262.018h-1.3c1.175-.728,2.7-1.53,4.333-2.333.735-.362,1.5-.721,2.261-1.076,2.034-.945,4.094-1.838,5.773-2.55l.215-.09c.651-.276,1.241-.522,1.745-.73,1.09-.452,1.781-.723,1.829-.741Z" transform="translate(-228.042 -535.206)" fill="#67647e"/><path d="M293.132,553.57a8.491,8.491,0,0,0,1.557,2.469c.111.109.3.208.4.088a.285.285,0,0,0,.043-.167,2.156,2.156,0,0,0-.407-1.153c-.226-.348-.493-.665-.694-1.026s-.432-1.058-.884-1.153C292.569,552.5,293,553.3,293.132,553.57Z" transform="translate(-230.716 -466.576)" opacity="0.1"/><path d="M337.441,451.238c-.032.113-.066.226-.1.335a7.616,7.616,0,0,1-5.71,5.1,1.72,1.72,0,0,0-.861-.956c-.9-.285,4.295-5.984,4.295-5.984A24.072,24.072,0,0,1,337.441,451.238Z" transform="translate(-259.977 -386.949)" opacity="0.1"/><path d="M309.748,420.739a7.593,7.593,0,1,1-2.224-5.385A7.609,7.609,0,0,1,309.748,420.739Z" transform="translate(-232.012 -358.622)" fill="#d38884"/><path d="M336.455,496.79s-1.582,1.921-1.329,3.178h1.919l1.4-1.582Z" transform="translate(-263.41 -423.371)" fill="#67647e"/><path d="M345.336,460.9l-6.036,8.3s1.551,2.218,2.29,2.328,4.955-9.815,4.955-9.815Z" transform="translate(-266.662 -395.594)" opacity="0.1"/><path d="M345.668,460.24l-6.038,8.31s1.551,2.215,2.29,2.326,4.955-9.813,4.955-9.813Z" transform="translate(-266.917 -395.083)" fill="#a36468"/><path d="M333.722,507.26a52.434,52.434,0,0,1-.592,5.577c-.3.925,0,9.417,0,9.417l2.771-1.144-.482-13.039Z" transform="translate(-261.784 -431.474)" fill="#67647e"/><path d="M335.367,507.2l.025.075h-.167l-.025-.075Z" transform="translate(-259.429 -392.54)" opacity="0.1"/><path d="M439.4,679.55Z" transform="translate(-344.134 -564.817)" opacity="0.1"/><path d="M360.708,505.845l-.138.226c-.086.14-.179.314-.3.536a.173.173,0,0,0-.016.027c-.167.31-.366.689-.567,1.1-6.782.24-13.563.558-20.327.787l-1.652.054h-.24l-.71-2.4v-.025l-.075-.253-.452-1.505-.452-1.53-.468-1.632-.172-.592-.045-.149-.737-2.509-1-3.407.323-3.251h0l.023-.246L334,488.17l.041-.864h0l.023-.452v-.129h0l.05-1.049.149-3.12.077-1.6h0l.014-.242h0l.154-3.2.436-1.309.226-.651.5-1.512.108-.373h0c.158-.567.477-1.689.775-2.767h0l.027-.093h0l.02-.07.212-.766.264-.983c.1-.378.165-.647.181-.739a14.493,14.493,0,0,1,1.013-1.808h0c1.13-1.869,2.83-4.62,3.025-5.543a.1.1,0,0,0,0-.023,1.127,1.127,0,0,1,.047-.165c.093-.276.226-.35.366-.332a.452.452,0,0,1,.179.07,1.422,1.422,0,0,1,.353.339,4.5,4.5,0,0,0,1.6,1.395l.122.07.072.043c.52.3.94.486.94.486,8.273,4.987,7.758,12.449,8.237,13.039a6.993,6.993,0,0,1,.518,2.735s1.218,7.277,1.772,7.912.038.85.518,1.553a5.748,5.748,0,0,1,.368,2.561s.332,4.431,1.515,5.391S360.708,505.845,360.708,505.845Z" transform="translate(-262.064 -395.19)" opacity="0.1"/><path d="M361.7,505.493l-.1.172h0c-.079.14-.206.362-.357.64l-.016.032c-.172.319-.375.705-.576,1.13h-.19c-6.782.24-13.563.558-20.327.787l-1.652.054-.708-2.405v-.025l-.075-.253-.468-1.582-.452-1.537-.452-1.535-.179-.615h0l-.773-2.64-1.022-3.479.283-2.828.038-.378.312-3.212h0l.12-2.5.147-3.027.038-.793.043-.918.018-.387.147-3.025.436-1.307.188-.563.439-1.322.093-.28s.423-1.485.832-2.957c.016-.054.032-.109.045-.163.036-.127.07-.253.106-.378h0c.036-.127.07-.251.1-.375.115-.411.226-.8.3-1.112.111-.414.185-.714.2-.812a13.309,13.309,0,0,1,1.033-1.84,41.115,41.115,0,0,0,2.959-5.344,1.686,1.686,0,0,0,.045-.165h0a.862.862,0,0,1,.2-.452c.3-.292.753.335.753.335a4.478,4.478,0,0,0,1.6,1.395,11.982,11.982,0,0,0,1.13.6c8.273,4.987,7.758,12.449,8.237,13.041a6.989,6.989,0,0,1,.518,2.733s1.218,7.277,1.772,7.912.038.85.518,1.551a5.844,5.844,0,0,1,.368,2.586s.332,4.433,1.515,5.394S361.7,505.493,361.7,505.493Z" transform="translate(-262.831 -394.911)" fill="#444053"/><path d="M350.258,462.506a17.467,17.467,0,0,0-2.487,4.747s-1.293,1.331-1.775,1.257.452,1,.452,1l-5.079,7.039.721-2.163s1.515-5.319,1.582-5.8,3.746-5.97,4.037-7.351c.226-1.105.949-.111.949-.111A4.506,4.506,0,0,0,350.258,462.506Z" transform="translate(-268.264 -395.448)" opacity="0.1"/><path d="M350.258,461.814a17.533,17.533,0,0,0-2.487,4.736s-1.293,1.329-1.775,1.257.452,1,.452,1l-5.079,7.039.721-2.163s1.515-5.319,1.582-5.8,3.746-5.968,4.037-7.349c.226-1.108.949-.111.949-.111A4.461,4.461,0,0,0,350.258,461.814Z" transform="translate(-268.264 -394.903)" fill="#444053"/><path d="M352.592,499.418c.038,1.614-2.326,3.818-2.437,3.947s-7.351,6.1-7.351,6.1l-5.2,3.988a4.417,4.417,0,0,1-2.034.94l.355-3.567.35-7.234a8.258,8.258,0,0,0,1.616-2.157c.036-.626,1.356-1.293,1.356-1.293s.925-.775.775-1.218a9.809,9.809,0,0,1,.491-2.566c.332-6.022,6.537-6.612,6.537-6.612a42.532,42.532,0,0,1,5.1,2.437C354.253,493.441,352.556,497.806,352.592,499.418Z" transform="translate(-263.775 -417.922)" opacity="0.1"/><path d="M246.045,575.3l-1.808.127c-.764-1.3.287-4.781.287-4.781h.147l.925.111Z" transform="translate(-192.872 -480.534)" opacity="0.1"/><path d="M276.738,488.13s-6.205.592-6.537,6.612a9.811,9.811,0,0,0-.481,2.55c.147.443-.775,1.218-.775,1.218s-1.329.665-1.356,1.293-3.391,4.055-3.391,4.055a6.765,6.765,0,0,1-4.652,1.763,10.228,10.228,0,0,0-4.765,1.162s-1.582-1.108-2.735-.775-6.759.775-6.759.775-1.49,4.937.368,5.247c.226.036,18.514.665,18.514.665s1.25.59,3.133-.85,5.2-3.99,5.2-3.99,7.234-5.984,7.351-6.1,2.487-2.335,2.437-3.947,1.664-5.972-.452-7.234A42.608,42.608,0,0,0,276.738,488.13Z" transform="translate(-193.462 -416.668)" fill="#444053"/><path d="M310.994,420.657a7.593,7.593,0,0,1-.373,2.358,3.183,3.183,0,0,1-.28-.387q-.529-.814-1.06-1.628a4.4,4.4,0,0,0-1.078-1.27,1.506,1.506,0,0,0-1.582-.167,1.585,1.585,0,0,0-.678,1.268,14.394,14.394,0,0,0,.038,1.5.825.825,0,0,1-.138.54.886.886,0,0,1-.583.226l-.678.093a.486.486,0,0,1-.624-.31c-.563-1.02-.952-2.285-2.007-2.776-.651-.3-1.51-.283-1.928-.866a1.886,1.886,0,0,1-.163-1.422,11.223,11.223,0,0,1,.4-1.609c.12-.371.387-1.11-.206-1.185a1.559,1.559,0,0,0-1.162.678,6.036,6.036,0,0,0-.4,1.053,2.516,2.516,0,0,1-1.39,1.291,3.98,3.98,0,0,1-.958.26,7.609,7.609,0,0,1,14.852,2.337Z" transform="translate(-233.258 -358.54)" opacity="0.1"/><path d="M285.708,402.013a6.179,6.179,0,0,0-.4,1.051,2.518,2.518,0,0,1-1.388,1.291,5.342,5.342,0,0,1-1.906.339,3.573,3.573,0,0,1-2.907-.936,2.38,2.38,0,0,0,.9-1.582,2.934,2.934,0,0,1,.267-1.42,2.035,2.035,0,0,1,.515-.436,33.619,33.619,0,0,0,3.178-2.889,6.2,6.2,0,0,1,3.786-1.838c1.919-.059,3.617,1.293,5.516,1.548a15.089,15.089,0,0,1,1.754.2,5.982,5.982,0,0,1,1.784.9,4.564,4.564,0,0,1,1.273,1.094,3.935,3.935,0,0,1,.518,1.252,13.983,13.983,0,0,1,.452,2.869c.052,1.013,0,2.034.108,3.043a4.821,4.821,0,0,0,1.119,2.78,9.95,9.95,0,0,1-1.539.355,1.6,1.6,0,0,1-.979-.077,1.725,1.725,0,0,1-.6-.644l-1.06-1.628a4.4,4.4,0,0,0-1.078-1.27,1.505,1.505,0,0,0-1.582-.167,1.591,1.591,0,0,0-.678,1.268,14.394,14.394,0,0,0,.038,1.5.825.825,0,0,1-.138.54.888.888,0,0,1-.585.226l-.678.093a.486.486,0,0,1-.624-.31c-.563-1.022-.952-2.285-2.007-2.776-.651-.3-1.51-.283-1.928-.866a1.886,1.886,0,0,1-.163-1.422,11.222,11.222,0,0,1,.4-1.609c.12-.371.387-1.11-.206-1.187A1.56,1.56,0,0,0,285.708,402.013Z" transform="translate(-220.078 -345.048)" fill="#444053"/><path d="M373.4,502.271a3.311,3.311,0,0,1,1.709.088,6.252,6.252,0,0,0-4.935.434C370.285,503.058,372.953,502.332,373.4,502.271Z" transform="translate(-290.554 -427.432)" opacity="0.1"/><path d="M374.426,508.93a10.575,10.575,0,0,0,4.144-.165,15.18,15.18,0,0,0-3.479-.255,7.969,7.969,0,0,0-2.774-.179c-.378.1-1.768.737-1.673,1.2A7.512,7.512,0,0,1,374.426,508.93Z" transform="translate(-290.917 -432.237)" opacity="0.1"/><path d="M371.1,523.9a2.09,2.09,0,0,1,.864.09,13.21,13.21,0,0,0,3.183.35,3.329,3.329,0,0,0,2.3-.678Z" transform="translate(-291.273 -444.167)" opacity="0.1"/><path d="M351.29,553.5a6.37,6.37,0,0,0,3.108.565,13.72,13.72,0,0,0,3.129-.6,2.092,2.092,0,0,0,1.209-.694Z" transform="translate(-275.941 -466.696)" opacity="0.1"/><path d="M393.153,559.363a16.6,16.6,0,0,0,6.9,2.136q-1.838-.737-3.7-1.395a26.816,26.816,0,0,0-3.9-1.044A1.983,1.983,0,0,1,393.153,559.363Z" transform="translate(-307.797 -471.564)" opacity="0.1"/><path d="M404.037,552.264a5.833,5.833,0,0,0,1.286.07.734.734,0,0,0,.628-.226,11.031,11.031,0,0,1-2.873-.423c-.269-.063-.753-.212-.979-.052A6.211,6.211,0,0,0,404.037,552.264Z" transform="translate(-315.266 -465.761)" opacity="0.1"/><path d="M431.276,631.005a9.343,9.343,0,0,0,3.022,3.6,27.66,27.66,0,0,0-3.034-6.164c-.339-.47-.845-1.144-1.463-1.23-.176.522.269,1.447.484,1.937A18.644,18.644,0,0,0,431.276,631.005Z" transform="translate(-336.674 -524.309)" opacity="0.1"/><path d="M327.037,570.009a1.535,1.535,0,0,0,.142,1.058.764.764,0,0,0,.429.3,5.123,5.123,0,0,1-.253-1.234c-.05-.3,0-.85-.21-1.069C327.091,569.372,327.071,569.693,327.037,570.009Z" transform="translate(-257.149 -479.304)" opacity="0.1"/><path d="M331.68,569.408a2.41,2.41,0,0,0,1.13,1.53,17.31,17.31,0,0,1-.868-1.666c-.111-.172-.24-.418-.452-.452Q331.57,569.118,331.68,569.408Z" transform="translate(-260.617 -479.118)" opacity="0.1"/><path d="M318.608,541.507a2.823,2.823,0,0,1-2.238.283c-.17-.05-.565-.226-.47-.475s.554-.077.741-.054l.983.124C317.806,541.407,318.461,541.592,318.608,541.507Z" transform="translate(-248.54 -457.727)" opacity="0.1"/><path d="M313.21,549.592c.463-.059.879.262,1.313.436a4,4,0,0,0,1.492.2.833.833,0,0,0,.7-.226A9.772,9.772,0,0,0,313.21,549.592Z" transform="translate(-246.469 -464.203)" opacity="0.1"/><path d="M319.97,317.58h.075l.554,1.992-.628.669Z" transform="translate(-247.641 -245.784)" fill="#a36468"/><g transform="translate(59.064 55.808)" opacity="0.1"><path d="M283.4,419.76a4.664,4.664,0,0,0-.1.983,2.18,2.18,0,0,0,.061-.316C283.388,420.21,283.386,419.982,283.4,419.76Z" transform="translate(-282.384 -419.562)"/><path d="M287.01,419.338a.4.4,0,0,1,.371.452c.106-.375.165-.836-.3-.9a1.552,1.552,0,0,0-1.162.689,6.322,6.322,0,0,0-.4,1.053,2.512,2.512,0,0,1-1.388,1.291,5.341,5.341,0,0,1-1.906.339,3.848,3.848,0,0,1-2.713-.737,2.3,2.3,0,0,1-.269.244,3.576,3.576,0,0,0,2.909.936,5.34,5.34,0,0,0,1.9-.339,2.523,2.523,0,0,0,1.39-1.291,6.171,6.171,0,0,1,.4-1.051A1.542,1.542,0,0,1,287.01,419.338Z" transform="translate(-279.25 -418.882)"/><path d="M345.914,442.257a1.6,1.6,0,0,1-.979-.077,1.745,1.745,0,0,1-.6-.644q-.529-.814-1.06-1.628a4.363,4.363,0,0,0-1.076-1.27,1.5,1.5,0,0,0-1.582-.167,1.62,1.62,0,0,0-.689,1.268v.061a1.429,1.429,0,0,1,.617-.886,1.507,1.507,0,0,1,1.582.167,4.435,4.435,0,0,1,1.078,1.27q.529.814,1.06,1.628a1.706,1.706,0,0,0,.6.644,1.6,1.6,0,0,0,.977.077,10.022,10.022,0,0,0,1.542-.355,3.309,3.309,0,0,1-.276-.341A9.708,9.708,0,0,1,345.914,442.257Z" transform="translate(-326.213 -433.921)"/><path d="M318.563,437.137a.9.9,0,0,1-.583.226l-.678.093a.486.486,0,0,1-.624-.31c-.563-1.022-.952-2.285-2.007-2.776-.651-.3-1.508-.283-1.926-.866a1.664,1.664,0,0,1-.2-1.185c-.011.07-.027.138-.038.206a1.886,1.886,0,0,0,.165,1.422c.418.583,1.277.563,1.926.866,1.058.491,1.447,1.754,2.01,2.776a.647.647,0,0,0,.26.31.663.663,0,0,0,.364.016l.678-.093a.886.886,0,0,0,.583-.226.812.812,0,0,0,.138-.54h0A.677.677,0,0,1,318.563,437.137Z" transform="translate(-304.942 -429.282)"/></g><path d="M748.439,615.5l-1.449-.2V593.91l.3.09.9.278v2.059l.011.929.02,1.912v2.609l.109,9.632v.258l.038,3.391v.052Z" transform="translate(-582.193 -498.536)" fill="#eaecf0"/><path d="M753.626,616.861l-.807-.113v-.439l-.038-3.391v-.258l-.109-9.632v-2.609l-.02-1.912-.011-.929V595.52h.87v2.765l.018,2.066v2.186h0l.084,10.109v.26l.027,3.361v.054Z" transform="translate(-586.565 -499.782)" fill="#d3dae1"/><path d="M757,695.27Z" transform="translate(-589.94 -576.984)" fill="#d3dae1"/><path d="M1141.418,582.18v18.464q-.644.452-1.32.888l-.018-15.372v-1.632Z" transform="translate(-886.424 -489.458)" fill="#eaecf0"/><path d="M1146.94,581v18.016c-.307.246-.622.484-.94.717V581.267Z" transform="translate(-891.006 -488.545)" fill="#d3dae1"/><path d="M1051.5,635.856c-.556.113-1.115.226-1.673.323l-.02-16.707v-.723l1.612-.678V619.6Z" transform="translate(-816.56 -517.235)" fill="#eaecf0"/><path d="M1058.122,615.73v18.084c-.353.077-.705.149-1.058.226l-.075-16.246v-1.533l.106-.05h0Z" transform="translate(-822.117 -515.424)" fill="#d3dae1"/><path d="M632.345,606.518l-1.5-.151-.192-18.839v-.9h1.476v1.024Z" transform="translate(-492.152 -492.902)" fill="#eaecf0"/><path d="M638.456,606.638l-1.13-.12-.226-18.864V586.63h1.142v1.124Z" transform="translate(-497.143 -492.902)" fill="#d3dae1"/><path d="M1039.45,444.176l1.033-.486v2.281l-1.006.337Z" transform="translate(-804.482 -343.386)" opacity="0.1"/><path d="M1124.381,408.95v3.49l-.938.314-1.34.445,0-1.632,1.343-2.349Z" transform="translate(-868.448 -316.499)" opacity="0.1"/><path d="M1060.042,379.27v9.664l-20.937,6.978-.135-10.335Z" transform="translate(-804.11 -293.529)" fill="#d48a9b"/><path d="M611.46,358.375l27.515-5.235,90.2,5.907L708.1,365.354Z" transform="translate(-473.24 -273.305)" fill="#efc6cd"/><path d="M615.268,414.6l.009,1.121-1.139-.1-1.481-.127-.007-.9Z" transform="translate(-474.161 -320.872)" opacity="0.1"/><path d="M731.121,423.571l-.87-.077-1.221-.1v-1.51l1.207.366h.872Z" transform="translate(-564.233 -326.506)" opacity="0.1"/><path d="M611.46,376.3v8.992l96.775,8.321-.136-10.335Z" transform="translate(-473.24 -291.23)" fill="#d48a9b"/><path d="M907.621,407.9H894.98V403.31l12.641.891Z" transform="translate(-692.669 -312.134)" fill="#d48a9b"/><path d="M907.621,407.9H894.98V403.31l12.641.891Z" transform="translate(-692.669 -312.134)" opacity="0.1"/><path d="M819.87,398.86v7.247l48.522,3.691v-7.717l-18.925-1.074-1.881,1.677-7.717-.536-2.751-2.014Z" transform="translate(-634.538 -308.69)" opacity="0.1"/><path d="M818.68,397.67v7.249l48.522,3.689v-7.717l-18.925-1.074L846.4,401.5l-7.72-.538-2.751-2.014Z" transform="translate(-633.617 -307.769)" fill="#fff"/><path d="M682.292,389.06l11.477.807-.133,3.646h-7.494l-5.012-1.969Z" transform="translate(-527.161 -301.105)" fill="#d48a9b"/><path d="M682.292,389.06l11.477.807-.133,3.646h-7.494l-5.012-1.969Z" transform="translate(-527.161 -301.105)" opacity="0.1"/><path d="M618.59,384.61v6.51l44.023,3.49V387.7l-16.979-1.008-1.813,1.343-6.845-.4-2.819-1.745Z" transform="translate(-478.758 -297.661)" opacity="0.1"/><path d="M617.4,383.42v6.51l44.024,3.49v-6.913L644.445,385.5l-1.811,1.34-6.847-.4-2.819-1.745Z" transform="translate(-477.837 -296.74)" fill="#fff"/><path d="M1002.831,383.53l6.171.4L998.778,387l-5.208-.375Z" transform="translate(-768.973 -296.826)" opacity="0.1"/><path d="M1002.831,382.35l6.171.4-10.224,3.061-5.208-.375Z" transform="translate(-768.973 -295.912)" fill="#fff"/><path d="M1049.24,557.344c.244-.106.5.09.764.14.147.029.3,0,.452.029.3.041.6.242.891.14Z" transform="translate(-816.119 -470.212)" fill="#d3dae1"/><path d="M1047.83,558.158c.242-.1.5.093.762.142.149.027.3,0,.452.027.3.041.6.244.891.142Z" transform="translate(-815.027 -470.843)" fill="#d3dae1"/><path d="M1044.59,559.8c.242-.1.5.09.762.14.149.029.3,0,.452.029.3.041.6.244.891.14Z" transform="translate(-812.52 -472.111)" fill="#d3dae1"/><path d="M835.63,368.55l13.76.9-2.932,4.211-15.127-1.616Z" transform="translate(-643.408 -285.232)" opacity="0.1"/><path d="M834.432,367.36l13.76.9-2.932,4.214-15.13-1.616Z" transform="translate(-642.479 -284.311)" fill="#3a3768"/><path d="M839,368.73l12,.735-2.557,3.431-13.195-1.318Z" transform="translate(-646.441 -285.371)" fill="#d5e1f4"/><path d="M757,695.27Z" transform="translate(-589.94 -576.984)" fill="#3a3768"/><path d="M757,695.27Z" transform="translate(-589.94 -576.984)" opacity="0.1"/><path d="M756.54,695.27Z" transform="translate(-589.584 -576.984)" fill="#3a3768"/><path d="M700.955,584.909a1.092,1.092,0,0,1-.011.192,1.3,1.3,0,0,1-.018.17,3.818,3.818,0,0,1-.328,1.151h0c-5.685-.64-11.384-1.408-17.089-2.2l-.807-.113-1.449-.2-1.221-.17h0a29.4,29.4,0,0,1-3.987-.373,20.617,20.617,0,0,1-2.464-.52c-3.617-.5-7.254-.972-10.88-1.406l-.472-.057c.086-.384.158-.617.158-.617s.778-3.056,1.424-6.472c.142-.741.278-1.5.4-2.245.095-.6.181-1.191.253-1.761.041-.314.075-.622.1-.922.016-.149.029-.3.041-.452s.025-.321.036-.477.016-.294.023-.436v-.212c0-.305,0-.624-.011-.952a28.029,28.029,0,0,0-.769-4.84c-.063-.271-.129-.542-.2-.807-.02-.086-.043-.169-.066-.253-.73-2.828-1.582-5.138-1.582-5.138a.251.251,0,0,1,0-.038.135.135,0,0,0,0-.027.546.546,0,0,0,0-.057v-.4a3.46,3.46,0,0,1,.122-.7,2.526,2.526,0,0,1,.086-.24,1.49,1.49,0,0,1,1.017-.94h0c.64-.165,1.607,0,3.068.866a5.285,5.285,0,0,1,.678.466,2.869,2.869,0,0,1,.317.273c1.673,1.557,2.563,4.128,3.038,6.474.018.084.034.167.05.251.057.289.1.572.147.85.077.488.138.958.183,1.395,0,.118.025.226.036.346s.023.226.029.334c.029.353.05.678.063.954.038.732.032,1.182.032,1.182v.023a.619.619,0,0,1-.011.1.043.043,0,0,0,0,.018v.2q-.014.142-.034.332c-.02.194-.043.423-.07.678-.018.19-.041.4-.063.613-.05.452-.1.977-.163,1.528-.014.1-.025.208-.036.312-.052.472-.106.965-.163,1.463h0c-.061.565-.129,1.13-.194,1.689-.016.122-.032.244-.045.364-.167,1.356-.335,2.588-.47,3.355a3.158,3.158,0,0,0-.045.344,1.035,1.035,0,0,0,0,.118,2.328,2.328,0,0,0,0,.307,2.6,2.6,0,0,0,2.2,2.26l9.474-.188,1.406-.027.818-.016,7.385-.147h0l.678-.014,3.673-.072a2.629,2.629,0,0,1,.739.088,11.737,11.737,0,0,1,3.21,1.4,3.771,3.771,0,0,1,.83.723.242.242,0,0,1,.032.036,3.911,3.911,0,0,1,.888,2.116v.156A2.042,2.042,0,0,1,700.955,584.909Z" transform="translate(-516.443 -467.136)" fill="#3a3768"/><path d="M756.54,695.27Z" transform="translate(-589.584 -576.984)" opacity="0.1"/><path d="M700.957,584.843a1.1,1.1,0,0,1-.011.192,1.29,1.29,0,0,1-.018.17,3.957,3.957,0,0,1-.339,1.151c-5.685-.64-11.384-1.408-17.09-2.2l-.807-.113-1.449-.2-1.221-.17h0a29.41,29.41,0,0,1-3.988-.373,20.631,20.631,0,0,1-2.464-.52c-3.617-.495-7.254-.972-10.88-1.406l-.472-.057h0c.086-.4.163-.64.163-.64s.635-2.487,1.239-5.5h0c.043-.208.084-.416.124-.626l.061-.319c.14-.739.276-1.5.4-2.245.095-.6.181-1.191.253-1.761.041-.314.075-.622.1-.922.016-.149.029-.3.041-.452s.025-.321.036-.477.016-.294.023-.436v-.212c0-.305,0-.624-.011-.952a27.812,27.812,0,0,0-.762-4.84q-.095-.411-.2-.807c-.023-.086-.043-.17-.066-.253-.732-2.837-1.582-5.161-1.582-5.161a.068.068,0,0,0,0-.016.135.135,0,0,0,0-.027.546.546,0,0,0,0-.057v-.4a3.466,3.466,0,0,1,.115-.7c.025-.079.052-.161.084-.24a1.494,1.494,0,0,1,1.071-.974,4.415,4.415,0,0,1,3.025.873,5.475,5.475,0,0,1,.705.493h0c.106.088.208.176.307.271,1.659,1.567,2.543,4.132,3.013,6.472.018.084.034.17.05.253.057.287.1.572.147.848.077.488.136.956.181,1.39.011.12.025.237.034.35s.023.226.029.335c.029.353.05.678.063.954.038.732.032,1.182.032,1.182v.12a.041.041,0,0,0,0,.018v.2q-.014.142-.034.332c-.02.194-.043.423-.07.678-.023.188-.043.393-.066.613-.05.452-.1.977-.163,1.528-.014.1-.025.208-.036.312-.052.472-.108.97-.163,1.467h0c-.066.565-.131,1.13-.2,1.686-.016.122-.029.244-.045.364-.165,1.356-.33,2.57-.466,3.332a3.155,3.155,0,0,0-.045.368,1.064,1.064,0,0,0,0,.118,2.337,2.337,0,0,0,0,.307,2.59,2.59,0,0,0,2.2,2.227l9.474-.185,1.4-.029.821-.016,7.4-.145.692-.014,3.66-.072a2.473,2.473,0,0,1,.739.088,11.605,11.605,0,0,1,3.235,1.39,3.725,3.725,0,0,1,.841.737.241.241,0,0,1,.032.036,3.873,3.873,0,0,1,.877,2.125v.156A2.636,2.636,0,0,0,700.957,584.843Z" transform="translate(-516.446 -467.07)" opacity="0.1"/><path d="M756.54,695.27Z" transform="translate(-589.584 -576.984)" fill="#3a3768"/><path d="M702.769,585.495l-.373-.043h0c-5.685-.64-11.384-1.408-17.09-2.2l-.807-.113-1.449-.2-1.221-.17h0a29.4,29.4,0,0,1-3.988-.373,20.62,20.62,0,0,1-2.464-.52c-3.617-.5-7.254-.972-10.88-1.406a9.256,9.256,0,0,1,.226-.94s2.147-8.457,2.281-12.953a23.34,23.34,0,0,0-.7-5.493h0c-.063-.274-.127-.545-.194-.812l-.061-.253c-.766-2.973-1.677-5.459-1.677-5.459a3.674,3.674,0,0,1,.052-.92,2.467,2.467,0,0,1,.054-.242,1.846,1.846,0,0,1,.583-.977h0a.294.294,0,0,1,.043-.032c.594-.452,1.661-.484,3.56.628a5.571,5.571,0,0,1,1.06.812c.09.086.181.176.267.269a13.323,13.323,0,0,1,2.76,6.449l.047.251c.05.283.093.561.133.83v.023h0c.052.357.095.7.131,1.024h0a26.973,26.973,0,0,1,.163,2.887s-.088.893-.226,2.179c-.052.5-.113,1.069-.179,1.666v.09l-.034.316c-.115,1.042-.242,2.154-.371,3.185-.013.127-.029.251-.045.373-.145,1.16-.289,2.19-.409,2.862a2.522,2.522,0,0,0,2.148,3.02l8.938-.176,1.4-.027.821-.018h.454l7.089-.14h.678l4.069-.081a2.542,2.542,0,0,1,.739.09,11.665,11.665,0,0,1,3.237,1.388,3.847,3.847,0,0,1,.762.646.373.373,0,0,1,.038.045A3.915,3.915,0,0,1,702.769,585.495Z" transform="translate(-518.242 -466.176)" fill="#3a3768"/><path d="M954.45,347.05l2.765,5.923h-.463l-3.242-5.852Z" transform="translate(-737.969 -268.592)" fill="#4c4c56"/><path d="M954.45,347.05l2.765,5.923h-.463l-3.242-5.852Z" transform="translate(-737.969 -268.592)" opacity="0.1"/><path d="M957.67,373.25h2.765v.619l-2.765.07Z" transform="translate(-741.188 -288.869)" fill="#4c4c56"/><path d="M957.67,373.25h2.765v.619l-2.765.07Z" transform="translate(-741.188 -288.869)" opacity="0.1"/><path d="M880.5,417.415V438.1a1.535,1.535,0,0,0,1.535,1.535h34.473a1.526,1.526,0,0,0,1.526-1.555l-.391-20.7a1.526,1.526,0,0,0-1.526-1.5H882.035A1.535,1.535,0,0,0,880.5,417.415Z" transform="translate(-685.522 -360.75)" fill="#4c4c56"/><path d="M880.5,417.415V438.1a1.535,1.535,0,0,0,1.535,1.535h34.473a1.526,1.526,0,0,0,1.526-1.555l-.391-20.7a1.526,1.526,0,0,0-1.526-1.5H882.035A1.535,1.535,0,0,0,880.5,417.415Z" transform="translate(-685.522 -360.75)" opacity="0.1"/><path d="M875,417.415V438.1a1.535,1.535,0,0,0,1.535,1.535h34.473a1.524,1.524,0,0,0,1.524-1.555l-.391-20.7a1.526,1.526,0,0,0-1.524-1.5H876.544A1.535,1.535,0,0,0,875,417.415Z" transform="translate(-681.266 -360.75)" fill="#4c4c56"/><path d="M881,423.135v18.208a1.535,1.535,0,0,0,1.535,1.535h31.921a1.526,1.526,0,0,0,1.526-1.526V423.124a1.526,1.526,0,0,0-1.526-1.524H882.535A1.535,1.535,0,0,0,881,423.135Z" transform="translate(-685.909 -365.177)" fill="#6c63ff"/><path d="M924.14,344.541l3.031,5.839h6.849L930.6,343.7Z" transform="translate(-715.238 -265.999)" fill="#4c4c56"/><path d="M911.726,373.25l-.506.619h10.5v-.619Z" transform="translate(-705.238 -288.869)" fill="#4c4c56"/><path d="M699.163,398.683c-.753-2.116-.748-4.465-1.661-6.515a7.94,7.94,0,0,1-.382-.9,2.653,2.653,0,0,1-.1-.59l-.057.014-.056.016-.057.023h0l-.052.032a1.974,1.974,0,0,0,.052.2,7.606,7.606,0,0,0,.387.9c.931,2.062.925,4.419,1.691,6.556a.615.615,0,0,0,.142.251.337.337,0,0,0,.115.07C699.175,398.712,699.168,398.7,699.163,398.683Zm0,0c-.753-2.116-.748-4.465-1.661-6.515a7.94,7.94,0,0,1-.382-.9,2.653,2.653,0,0,1-.1-.59l-.057.014-.056.016-.057.023h0l-.052.032a1.974,1.974,0,0,0,.052.2,7.606,7.606,0,0,0,.387.9c.931,2.062.925,4.419,1.691,6.556a.615.615,0,0,0,.142.251.337.337,0,0,0,.115.07C699.175,398.712,699.168,398.7,699.163,398.683Zm0,0c-.753-2.116-.748-4.465-1.661-6.515a7.94,7.94,0,0,1-.382-.9,2.653,2.653,0,0,1-.1-.59l-.057.014-.056.016-.057.023h0l-.052.032a1.974,1.974,0,0,0,.052.2,7.606,7.606,0,0,0,.387.9c.931,2.062.925,4.419,1.691,6.556a.615.615,0,0,0,.142.251.337.337,0,0,0,.115.07C699.175,398.712,699.168,398.7,699.163,398.683Zm0,0c-.753-2.116-.748-4.465-1.661-6.515a7.94,7.94,0,0,1-.382-.9,2.653,2.653,0,0,1-.1-.59l-.057.014-.056.016-.057.023h0l-.052.032a1.974,1.974,0,0,0,.052.2,7.606,7.606,0,0,0,.387.9c.931,2.062.925,4.419,1.691,6.556a.615.615,0,0,0,.142.251.337.337,0,0,0,.115.07C699.175,398.712,699.168,398.7,699.163,398.683Zm0,0c-.753-2.116-.748-4.465-1.661-6.515a7.94,7.94,0,0,1-.382-.9,2.653,2.653,0,0,1-.1-.59l-.057.014-.056.016-.057.023h0l-.052.032a1.974,1.974,0,0,0,.052.2,7.606,7.606,0,0,0,.387.9c.931,2.062.925,4.419,1.691,6.556a.615.615,0,0,0,.142.251.337.337,0,0,0,.115.07C699.175,398.712,699.168,398.7,699.163,398.683Zm0,0c-.753-2.116-.748-4.465-1.661-6.515a7.94,7.94,0,0,1-.382-.9,2.653,2.653,0,0,1-.1-.59l-.057.014-.056.016-.057.023h0l-.052.032a1.974,1.974,0,0,0,.052.2,7.606,7.606,0,0,0,.387.9c.931,2.062.925,4.419,1.691,6.556a.615.615,0,0,0,.142.251.337.337,0,0,0,.115.07C699.175,398.712,699.168,398.7,699.163,398.683Zm0,0c-.753-2.116-.748-4.465-1.661-6.515a7.94,7.94,0,0,1-.382-.9,2.653,2.653,0,0,1-.1-.59l-.057.014-.056.016-.057.023h0l-.052.032a1.974,1.974,0,0,0,.052.2,7.606,7.606,0,0,0,.387.9c.931,2.062.925,4.419,1.691,6.556a.615.615,0,0,0,.142.251.337.337,0,0,0,.115.07C699.175,398.712,699.168,398.7,699.163,398.683Zm39.276,21.068h0l-.174-.032.226-.05h0a.341.341,0,0,0,.066-.016h0c.251-.054.5-.115.744-.181h0l.255-.072h0l.036-.011c2.107-.622-.35-1.194-3.474-1.618h-.009c-3.373-.452-7.509-.748-7.509-.748l-1.3.172h-.011c-1.582.208-4.08.552-4.478.678-.484.16-4.589.357-6.02.42a.623.623,0,0,0-.212-.226l-4.22-.194v.581h0l-.032-.014a5.79,5.79,0,0,0-.572-2.261l-.032-.063c-1.09-2.066-1.309-2.584-1.309-2.584h0a.428.428,0,0,0-.029-.111c-.366-1.27-1.716-3.479-4-6.648l-.079-.111-.287-1.406-.05-.246h-1.44a18.825,18.825,0,0,1,1-3.574c.029-.072.059-.145.09-.215l.018-.041c.032-.075.068-.149.1-.226h.251a6.879,6.879,0,0,0,6.61-6.4.041.041,0,0,0,0-.018q.014-.21.014-.42a6.729,6.729,0,0,0-.9-3.391c-.018-.032-.036-.063-.057-.095l-.036-.061-.081-.127c.515-.122,1.13.113,1.582-.176a1.158,1.158,0,0,0,.387-.466,2.42,2.42,0,0,0,.226-.678h0a.238.238,0,0,0,0-.038.031.031,0,0,0,0-.014,2.679,2.679,0,0,0,.034-.466,2.509,2.509,0,0,0-.158-.94,2.591,2.591,0,0,0-1.456-1.46,9.867,9.867,0,0,0-1.058-.287c-1.447-.387-2.67-1.34-4.069-1.872a7.38,7.38,0,0,0-3.049-.47,4.363,4.363,0,0,0-1.808.452,7.742,7.742,0,0,0-1.207.875,24.768,24.768,0,0,0-3.022,2.419,5.4,5.4,0,0,0-.439.543c-.077.111-.147.226-.226.339a.606.606,0,0,0-.545-.226h0a.882.882,0,0,0-.111,0,2.192,2.192,0,0,0-.28.029c-.226.038-1.91.484-1.91.714a7.954,7.954,0,0,0-1.935,1.189c-1.356,1.241-1.659,3.208-1.831,5.021a46.526,46.526,0,0,0-.226,6.329c.032.769.093,1.537.056,2.306a17.14,17.14,0,0,1-.4,2.685q-.292,1.379-.631,2.749c-.109.452-.283.956-.726,1.1l.165.023a.793.793,0,0,1-.165.079,4.942,4.942,0,0,0,.574.057h.133a1.559,1.559,0,0,0,.323-.038,1.208,1.208,0,0,0,.409-.19c.018-.045.034-.09.05-.138a.764.764,0,0,0,.271-.42,2.989,2.989,0,0,1-.045.764.482.482,0,0,1-.023.111,3.12,3.12,0,0,1-.778,1.474l.226-.172a3.337,3.337,0,0,1-.226.274q.488-.366.977-.748h0a.472.472,0,0,0,.056-.043h0l.556-.439v.439h0v.1c-.045,1.56-.111,5.391.244,6.307.02.054.043.108.061.16a4.5,4.5,0,0,1,.527,2.034,16.81,16.81,0,0,0,.4,2.317,2.876,2.876,0,0,1,.072,1.047,1.493,1.493,0,0,0,.041.624c.02.1.045.206.072.316a.491.491,0,0,0,.029.12c.206.823.5,1.84.192,2.245a1.794,1.794,0,0,0-.226.452,11.517,11.517,0,0,1-.581,1.98,1.855,1.855,0,0,0-.2,1.311.044.044,0,0,1,0,.011s-.016.088-.047.226c-.038.19-.1.481-.176.8v.023a11.5,11.5,0,0,1-.391,1.34h0c-.115.307-.226.529-.355.572-.452.165-.678,2.288-.678,2.288s-1.035,1.68-.839,2.093a2.768,2.768,0,0,0,.147.278l-.1.154c-.554.888-1.356,2.5-.579,3.37a3.842,3.842,0,0,0,.927.708c-.041.09-.084.188-.129.294-.854,2-2.17,6.655,2.891,8.617a16.049,16.049,0,0,0,1.535.5,20.626,20.626,0,0,0,2.464.52,30.2,30.2,0,0,0,3.617.323c.538.018,1.069.023,1.582.018s.979-.016,1.444-.036q.414-.016.807-.041a42.22,42.22,0,0,0,4.641-.509l7.234-1.3s3.038.108,4.157.75l.034.02s.183-.106.491-.314h0c.133-.09.292-.2.466-.328a15.272,15.272,0,0,0,4.311-4.8l.025-.043.246-.032h.057l.176-.025.366-.052h.065c.916-.133,1.781-.28,1.781-.28s.034,1.01.075,2.181c.014.357.025.73.038,1.092.043,1.239.081,2.365.081,2.4s.931,2.487,1.973,4.955l.814.066q3.223.258,6.445.427l.8.041.5.025c-.362-2.19-.646-4.279-.646-4.279l-1.343-6.255s-.14-1.3-1.146-7.053c-.814-4.666-5.606-4.252-7.4-3.924-.183.034-.332.066-.452.09v-.35s-3.443.289-6.556.43l-.757.032c-.721.027-1.406.043-2.007.043a14.679,14.679,0,0,1-1.582-.063,14.994,14.994,0,0,0-5.143.549,21.138,21.138,0,0,1-3.97.359,1.2,1.2,0,0,0-.4-.081h-.226a.362.362,0,0,0,.226-.4,2.453,2.453,0,0,1,.2-1.931c.172-.244.452-.628.7-.979l.61-.839v-.066l.016-.246.147-2.2.353-2.034.023-.129.032-.181.023-.131.068.023h0a4.913,4.913,0,0,0,2.939.312h.016a1.343,1.343,0,0,0,.185-.079h.036v.151l.014.264,3.773-.206h.057s.147-.728.305-1.732c.011-.081.025-.165.038-.251s.034-.226.05-.33a1.384,1.384,0,0,1,.023-.161h.226a23.718,23.718,0,0,0,5.186-.574h0a1.128,1.128,0,0,0,.341-.183,14.055,14.055,0,0,1,3.429-1.343h0l.595-.176c.432-.127.848-.244,1.216-.348.854-.226,1.465-.393,1.465-.393s5.877.545,10.267-.723h0l.072-.02C741.431,420.567,740.4,420.124,738.44,419.751Zm-41.7-29.387a1.218,1.218,0,0,0,.025.2h0a.568.568,0,0,0,.014.086.156.156,0,0,0,.018.088,1.977,1.977,0,0,0,.052.2,7.62,7.62,0,0,0,.387.9c.931,2.062.925,4.419,1.691,6.555a.614.614,0,0,0,.142.251.337.337,0,0,0,.115.07l.054.018h.063l-.025.043a.226.226,0,0,1-.018.032l-.016.025c-.3.511-.626,1.013-.952,1.456a2.125,2.125,0,0,0-.784.321l-.127.084-.054.041c-.079-.389-.188-.773-.287-1.157a26.714,26.714,0,0,1-.872-6.271v-.427c0-.547.014-1.092.047-1.639a1.357,1.357,0,0,1,.192-.719h0a.5.5,0,0,1,.335-.163Zm2.428,8.321c-.753-2.116-.748-4.465-1.661-6.515a7.942,7.942,0,0,1-.382-.9,2.653,2.653,0,0,1-.1-.59l-.057.014-.056.016-.057.023h0l-.052.032a1.977,1.977,0,0,0,.052.2,7.608,7.608,0,0,0,.387.9c.931,2.062.925,4.419,1.691,6.556a.616.616,0,0,0,.142.251.336.336,0,0,0,.115.07c-.007-.027-.014-.041-.018-.057Zm0,0c-.753-2.116-.748-4.465-1.661-6.515a7.942,7.942,0,0,1-.382-.9,2.653,2.653,0,0,1-.1-.59l-.057.014-.056.016-.057.023h0l-.052.032a1.977,1.977,0,0,0,.052.2,7.608,7.608,0,0,0,.387.9c.931,2.062.925,4.419,1.691,6.556a.616.616,0,0,0,.142.251.336.336,0,0,0,.115.07c-.007-.027-.014-.041-.018-.057Zm0,0c-.753-2.116-.748-4.465-1.661-6.515a7.942,7.942,0,0,1-.382-.9,2.653,2.653,0,0,1-.1-.59l-.057.014-.056.016-.057.023h0l-.052.032a1.977,1.977,0,0,0,.052.2,7.608,7.608,0,0,0,.387.9c.931,2.062.925,4.419,1.691,6.556a.616.616,0,0,0,.142.251.336.336,0,0,0,.115.07c-.007-.027-.014-.041-.018-.057Zm0,0c-.753-2.116-.748-4.465-1.661-6.515a7.942,7.942,0,0,1-.382-.9,2.653,2.653,0,0,1-.1-.59l-.057.014-.056.016-.057.023h0l-.052.032a1.977,1.977,0,0,0,.052.2,7.608,7.608,0,0,0,.387.9c.931,2.062.925,4.419,1.691,6.556a.616.616,0,0,0,.142.251.336.336,0,0,0,.115.07c-.007-.027-.014-.041-.018-.057Zm0,0c-.753-2.116-.748-4.465-1.661-6.515a7.942,7.942,0,0,1-.382-.9,2.653,2.653,0,0,1-.1-.59l-.057.014-.056.016-.057.023h0l-.052.032a1.977,1.977,0,0,0,.052.2,7.608,7.608,0,0,0,.387.9c.931,2.062.925,4.419,1.691,6.556a.616.616,0,0,0,.142.251.336.336,0,0,0,.115.07c-.007-.027-.014-.041-.018-.057Zm0,0c-.753-2.116-.748-4.465-1.661-6.515a7.942,7.942,0,0,1-.382-.9,2.653,2.653,0,0,1-.1-.59l-.057.014-.056.016-.057.023h0l-.052.032a1.977,1.977,0,0,0,.052.2,7.608,7.608,0,0,0,.387.9c.931,2.062.925,4.419,1.691,6.556a.616.616,0,0,0,.142.251.336.336,0,0,0,.115.07c-.007-.027-.014-.041-.018-.057Z" transform="translate(-536.95 -335.741)" fill="url(#b)"/><path d="M736.725,441.413a5.271,5.271,0,0,0-.868,1.343c-.034.075-.068.147-.1.226a21.9,21.9,0,0,0-1.338,5.459s-.619-.278-1.5-.712a22.622,22.622,0,0,1-5.177-3.23c-.452-.486-.615-.916-.24-1.216a2.8,2.8,0,0,0,.249-.226,7.187,7.187,0,0,0,.789-.936c.326-.452.647-.956.949-1.474.179-.3.348-.608.506-.9l.063-.117c.678-1.286,1.173-2.385,1.173-2.385s.226.072.592.2C733.517,438.045,738.167,439.878,736.725,441.413Z" transform="translate(-566.952 -377.282)" fill="#efb7b9"/><path d="M860.65,628.062s.276,2.048.626,4.209l-.8-.041q-3.219-.167-6.445-.427c-1.221-2.828-2.487-6.185-2.487-6.237s-.038-1.157-.081-2.392c-.014-.434-.029-.882-.043-1.3h0c-.023-.637-.043-1.212-.054-1.569,0-.244-.014-.389-.014-.389s-1.162.2-2.206.346l-.463.061c-.24.029-.452.052-.644.066a1.664,1.664,0,0,1-.5,0c-.357-.138.384-3.617.384-3.617l1.845-4.465.515-1.243.226-.057c.111-.027.26-.059.438-.093,1.761-.323,6.465-.735,7.263,3.908.988,5.735,1.13,7.023,1.13,7.023Z" transform="translate(-659.936 -511.558)" fill="#efb7b9"/><path d="M911.858,728h-.007Z" transform="translate(-709.36 -602.315)" fill="#efb7b9"/><path d="M860.65,628.062s.276,2.048.626,4.209l-.8-.041q-3.219-.167-6.445-.427c-1.221-2.828-2.487-6.185-2.487-6.237s-.038-1.157-.081-2.392c-.014-.434-.029-.882-.043-1.3h0c-.023-.637-.043-1.212-.054-1.569,0-.244-.014-.389-.014-.389s-1.162.2-2.206.346l-.463.061c-.24.029-.452.052-.644.066a1.664,1.664,0,0,1-.5,0c-.357-.138.384-3.617.384-3.617l1.845-4.465.515-1.243.226-.057c.111-.027.26-.059.438-.093,1.761-.323,6.465-.735,7.263,3.908.988,5.735,1.13,7.023,1.13,7.023Z" transform="translate(-659.936 -511.558)" opacity="0.05"/><path d="M911.858,728h-.007Z" transform="translate(-709.36 -602.315)" opacity="0.05"/><path d="M858.407,636.511q-3.219-.167-6.445-.427l-.814-.066-.359-.029c-1.013-2.444-1.912-4.833-1.912-4.876s-.038-1.157-.081-2.392c-.052-1.542-.111-3.26-.111-3.26l-.151.025-.063.011h-.081l-.364.061-.2.032c-.359.059-.793.124-1.219.185l-.095.014-.249.032-.226.027h0c-.174.023-.339.041-.488.054l-.183.016a1.584,1.584,0,0,1-.5,0c-.357-.138.384-3.617.384-3.617l2.36-5.708.081-.023c.124-.032.387-.093.741-.154.133-.023.28-.045.439-.066,2.048-.262,5.945-.188,6.666,4,.988,5.735,1.13,7.023,1.13,7.023l1.318,6.234S858.159,634.9,858.407,636.511Z" transform="translate(-657.869 -515.838)" fill="#efb7b9"/><path d="M850.855,657.132c-.052-1.542-.111-3.262-.111-3.262s-2.26.4-3.314.472l.212-.719s3.87-1.069,3.951-.466A27.541,27.541,0,0,1,850.855,657.132Z" transform="translate(-659.928 -544.248)" opacity="0.1"/><path d="M848.892,611.48v1.634a32.6,32.6,0,0,1-1.7,7.435c-.032.1-.066.192-.1.287a10.26,10.26,0,0,1-.561,1.261c-.425.059-.836.108-1.142.131a1.656,1.656,0,0,1-.5,0c-.357-.138.382-3.617.382-3.617l2.36-5.706.084-.023.513-1.246A5.972,5.972,0,0,1,848.892,611.48Z" transform="translate(-657.884 -512.135)" opacity="0.1"/><path d="M730.039,610.34v1.892a32.639,32.639,0,0,1-1.7,7.437c-.038.118-.081.226-.124.346s-.1.262-.156.389c-.124.3-.264.592-.411.872h0A15.1,15.1,0,0,1,723.518,626c-.167.129-.323.242-.452.337h-.011c-.226.154-.389.264-.493.33s-.113.07-.113.07c-1.071-.658-4.116-.769-4.116-.769l-7.107,1.291a41.189,41.189,0,0,1-4.7.533l-.807.038c-.466.018-.949.029-1.444.032-.4,0-.807,0-1.221-.016h0a29.4,29.4,0,0,1-3.988-.373,19.908,19.908,0,0,1-2.152-.477,15.148,15.148,0,0,1-1.49-.5c-4.973-1.953-3.678-6.585-2.839-8.59.045-.106.088-.2.129-.294.185-.409.323-.649.323-.649l.33-.8h0l.54-1.309.12-.287.034-.084.4-.97,5.651-.732,4.153-.538,1.264-.163.857-.111,1.634-.212.615-.079a7.658,7.658,0,0,1,1.146-.09,1.6,1.6,0,0,1,.61.09,20.645,20.645,0,0,0,3.9-.357,14.515,14.515,0,0,1,5.048-.549,28.07,28.07,0,0,0,3.506.023h0l.289-.014.375-.016h.081C726.648,610.629,730.039,610.34,730.039,610.34Z" transform="translate(-539.47 -511.252)" fill="#444053"/><path d="M761.091,634.616s-2.713,6.173-2.826,6.282a5.557,5.557,0,0,0,0,1.922c.109-.113,3.87-8.45,3.87-8.45Z" transform="translate(-590.855 -529.85)" opacity="0.1"/><path d="M798.288,612.267a7.057,7.057,0,0,0-1.784,1.6c-.411.714-4.171,7.819-5.1,8.861a22.756,22.756,0,0,0-2.086,2.968c-.109.188-.109,1.368.549.242a9.2,9.2,0,0,1,1.784-2.713c1.289-1.4,2.713-4.555,3.264-5.186s1.318-2.525,2.279-3.651l1.84-2.15Z" transform="translate(-614.91 -512.723)" opacity="0.1"/><path d="M823.644,665.635a1.363,1.363,0,0,0-1.865.466C820.875,667.224,823.644,665.635,823.644,665.635Z" transform="translate(-639.935 -553.9)" opacity="0.1"/><path d="M831.622,667.79s-.8,1.388-1.18,1.5S831.622,667.79,831.622,667.79Z" transform="translate(-646.733 -555.716)" opacity="0.1"/><path d="M826.61,669.32s-.631,1.1-1.18.988Z" transform="translate(-642.901 -556.9)" opacity="0.1"/><path d="M806.867,533.7s5.816-.246,6.393-.439,5.678-.85,5.678-.85,15.118,1.069,10.812,2.36-10.152.739-10.152.739-5.708,1.483-6.585,2.26-7.353.8-7.353.8Z" transform="translate(-627.6 -450.939)" fill="#efb7b9"/><path d="M806.867,533.7s5.816-.246,6.393-.439,5.678-.85,5.678-.85,15.118,1.069,10.812,2.36-10.152.739-10.152.739-5.708,1.483-6.585,2.26-7.353.8-7.353.8Z" transform="translate(-627.6 -450.939)" opacity="0.05"/><path d="M707.659,479.06s-5.323,1.808-2.744,6.42a20.571,20.571,0,0,0,5.9,6.782l8.561,5.927s3.594,2.057,5.24,1.207l2.688-.226.452-7.053s-2.26,1.756-4.72-.678-5.489-4.089-5.735-5.4S710.758,477.935,707.659,479.06Z" transform="translate(-549.083 -409.552)" fill="#a36468"/><path d="M793.87,538.284s2.771.988,2.663,1.042-2.663,1.015-2.663,1.015l.192,3.759,3.759-.206s1.372-6.845.192-7.532l-4.143-.192Z" transform="translate(-618.475 -453.849)" fill="#67647e"/><path d="M793.87,538.284s2.771.988,2.663,1.042-2.663,1.015-2.663,1.015l.192,3.759,3.759-.206s1.372-6.845.192-7.532l-4.143-.192Z" transform="translate(-618.475 -453.849)" opacity="0.1"/><path d="M745.975,441.436a5.271,5.271,0,0,0-.868,1.343c-.034.075-.068.147-.1.226-2.019,0-3.47-1.569-4.709-2.973-.226-.26-.8.133-.986-.158-.02-.034-.041-.068-.063-.1l.063-.118c.678-1.286,1.173-2.385,1.173-2.385s.226.072.592.2C742.767,438.068,747.417,439.9,745.975,441.436Z" transform="translate(-576.202 -377.305)" opacity="0.1"/><path d="M748.393,408.227a6.8,6.8,0,0,1-6.741,6.8h-.066a6.793,6.793,0,0,1-5.1-2.306,6.928,6.928,0,0,1-.624-.825,6.806,6.806,0,1,1,12.535-3.671Z" transform="translate(-572.743 -349.555)" fill="#efb7b9"/><path d="M710.885,618.22s-.518.633-1.09,1.223a4.249,4.249,0,0,1-1.189.972,38.7,38.7,0,0,0-3.786,2.606s-2.469,1.675-3.1,2.168-2.909.192-2.909.192a13.068,13.068,0,0,1-3.551-1.356,8.835,8.835,0,0,1,.452-.94l1.426-3.459,5.651-.73Z" transform="translate(-542.156 -517.351)" opacity="0.1"/><path d="M707,616.28s-.515.633-1.087,1.223a4.413,4.413,0,0,1-1.189.972,38.327,38.327,0,0,0-3.786,2.606s-2.471,1.675-3.1,2.168-2.907.192-2.907.192-3.129-.678-4.227-1.921c-.769-.866.027-2.471.57-3.355a6.783,6.783,0,0,1,.418-.624Z" transform="translate(-538.38 -515.85)" fill="#67647e"/><path d="M754.424,489.131c-1.867-.165-8.014-7.686-8.014-7.686l.14-.192,1.289-1.784h3.013l.332,1.646c2.292,3.214,3.642,5.45,4.008,6.73C755.457,488.777,755.206,489.2,754.424,489.131Z" transform="translate(-581.744 -409.966)" fill="#67647e"/><path d="M754.424,495.238c-1.867-.165-8.014-7.686-8.014-7.686l.14-.192a34.706,34.706,0,0,1,3.1,3.237c4.5,5.294,5.389,3.816,5.543,3.355C755.457,494.883,755.206,495.308,754.424,495.238Z" transform="translate(-581.744 -416.072)" opacity="0.1"/><path d="M710.039,616.28s-.515.633-1.087,1.223a3.083,3.083,0,0,1-.943.2,6.76,6.76,0,0,0-2.36,1.1,14.143,14.143,0,0,0-3.456.136,10.458,10.458,0,0,1-2.663.357c-3.868,1.1-4.937-.572-5.22-1.13a6.784,6.784,0,0,1,.418-.624Z" transform="translate(-541.421 -515.85)" opacity="0.1"/><path d="M716.512,490.412a2.389,2.389,0,0,1-.034.314c-.013.1-.027.206-.043.3a4.971,4.971,0,0,1-.5,1.6c-.493.823-2,4.033-2,4.033l-.1.592-.052.31-.054.305-.368,2.163-.165,2.5s-.9,1.261-1.288,1.808a2.476,2.476,0,0,0-.192,1.921c.138.576-1.261.658-1.261.658a10.133,10.133,0,0,1-2.69.934,6.77,6.77,0,0,0-2.36,1.094,14.05,14.05,0,0,0-3.456.138,10.355,10.355,0,0,1-2.663.357c-4.141,1.178-5.075-.825-5.267-1.237s.823-2.084.823-2.084.226-2.114.658-2.279.961-2.961.961-2.961a1.957,1.957,0,0,1,.192-1.318c.357-.466.33-1.784.8-2.414s-.493-2.744-.328-3.294-.522-2.771-.468-3.348a4.971,4.971,0,0,0-.576-2.195c-.375-.983-.269-5.353-.226-6.605,0-.212.011-.335.011-.335s.384-1.237,1.4-3.7a5.03,5.03,0,0,1,3.291-2.808,4.131,4.131,0,0,1,.414-.1,2.9,2.9,0,0,1,.583.147,13.7,13.7,0,0,1,4.684,3.165,35.119,35.119,0,0,1,2.855,3.011c5.147,6.049,5.568,3.226,5.568,3.226s.226.515,1.286,2.572A6.545,6.545,0,0,1,716.512,490.412Z" transform="translate(-541.176 -406.321)" fill="#a36468"/><path d="M729.442,463.9l-5.163-4.119s-1.86.226-2.629,3.35l5.314,4.654Z" transform="translate(-562.581 -394.727)" opacity="0.1"/><path d="M729.086,463.194l-.9,1.264-.918,1.3-.692,1.015-4.243-3.574-.73-.633-.409-.348a4.778,4.778,0,0,1,1.734-2.939,2.154,2.154,0,0,1,.9-.4Z" transform="translate(-562.225 -394.022)" fill="#67647e"/><path d="M830.749,542.05c-4.308,1.289-10.152.742-10.152.742s-5.708,1.481-6.585,2.26c-.565.5-3.452.678-5.425.753-1.1.041-1.917.043-1.917.043l1.2-4.867.7-.032c1.562-.072,5.245-.258,5.7-.409.576-.192,5.678-.85,5.678-.85S835.055,540.759,830.749,542.05Z" transform="translate(-628.382 -456.573)" fill="#efb7b9"/><path d="M725.092,500.994a4.974,4.974,0,0,1-.495,1.6c-.493.823-2,4.033-2,4.033l-.208,1.218a14.859,14.859,0,0,1-2.034-.936l-8.567-5.934a20.54,20.54,0,0,1-5.9-6.782c-2.579-4.614,2.744-6.42,2.744-6.42,3.1-1.13,9.383,5.651,9.63,6.969s3.266,2.964,5.735,5.4A5.022,5.022,0,0,0,725.092,500.994Z" transform="translate(-549.833 -416.297)" opacity="0.1"/><path d="M725.169,498.128c-.02.215-.045.42-.077.617a4.973,4.973,0,0,1-.495,1.6c-.493.823-2,4.033-2,4.033l-.1.592a14.665,14.665,0,0,1-2.148-.977l-8.561-5.936a20.541,20.541,0,0,1-5.9-6.782c-2.579-4.614,2.744-6.422,2.744-6.422,3.1-1.13,9.383,5.651,9.63,6.969s3.266,2.964,5.735,5.407A4.948,4.948,0,0,0,725.169,498.128Z" transform="translate(-549.833 -414.037)" opacity="0.1"/><path d="M728.714,499.383l-.439,7.051-2.69.226a1.314,1.314,0,0,1-.183.079c-1.713.628-5.057-1.286-5.057-1.286l-8.561-5.934a20.54,20.54,0,0,1-5.9-6.782c-2.579-4.614,2.744-6.42,2.744-6.42,3.1-1.13,9.383,5.651,9.63,6.969s3.266,2.964,5.735,5.4a4.927,4.927,0,0,0,1.234.9A3.37,3.37,0,0,0,728.714,499.383Z" transform="translate(-549.833 -415.167)" fill="#a36468"/><path d="M797.356,544.55l-.439,7.051-2.69.226a1.319,1.319,0,0,1-.183.079l-.174-3.427s2.552-.961,2.663-1.015-2.663-1.042-2.663-1.042v-1.639A3.371,3.371,0,0,0,797.356,544.55Z" transform="translate(-618.475 -460.334)" opacity="0.1"/><path d="M808.537,550.1c-1.1.041-1.917.043-1.917.043l1.216-4.856.7-.032C808.98,546.031,808.788,548.3,808.537,550.1Z" transform="translate(-628.343 -460.884)" opacity="0.1"/><path d="M794.84,545.564s2.771.988,2.663,1.042-2.663,1.015-2.663,1.015l.192,3.759,3.759-.206s1.372-6.845.192-7.532l-4.144-.192Z" transform="translate(-619.226 -459.483)" fill="#67647e"/><path d="M716.312,572.71a5.678,5.678,0,0,1-1.7,1.11Z" transform="translate(-557.132 -482.129)" opacity="0.1"/><path d="M712.31,581.941s2.276-.084,2.55-.549S712.31,581.941,712.31,581.941Z" transform="translate(-555.352 -488.753)" opacity="0.1"/><path d="M707.33,596.141c.138,0,2.88-.384,2.991-.741Z" transform="translate(-551.498 -499.69)" opacity="0.1"/><path d="M703.57,604.149a7.511,7.511,0,0,0,2.661-1.1Z" transform="translate(-548.588 -505.61)" opacity="0.1"/><path d="M731.85,605.525s5.954,0,6.228-1.1S731.85,605.525,731.85,605.525Z" transform="translate(-570.475 -506.44)" opacity="0.1"/><path d="M751.63,539.716c.111,0,4.693,0,5.131-.631S751.63,539.716,751.63,539.716Z" transform="translate(-585.784 -455.968)" opacity="0.1"/><path d="M708.313,461.189a4.382,4.382,0,0,1,.059.678,4.2,4.2,0,0,1-.068.753,6.516,6.516,0,0,1-.425,1.372l-.048.111c-.068.158-.14.312-.215.466a12.8,12.8,0,0,1-1.184,1.953,21.36,21.36,0,0,1-3.554,3.7q-.346.292-.7.576c0-.213.011-.335.011-.335s.384-1.236,1.4-3.7a5.029,5.029,0,0,1,3.291-2.808l-.409-.348a4.778,4.778,0,0,1,1.734-2.939C708.243,460.827,708.286,461,708.313,461.189Z" transform="translate(-547.512 -395.408)" opacity="0.1"/><path d="M747.5,404.942a.793.793,0,0,0-.2.079c-.43.237-.554.8-.9,1.155a2.606,2.606,0,0,1-1.614.554,1.989,1.989,0,0,0-1.526.71,3.635,3.635,0,0,0-.287,1.257.4.4,0,0,1-.088.208.407.407,0,0,1-.276.09,8.78,8.78,0,0,1-3.011-.583,1.608,1.608,0,0,0-1.456.226,1.656,1.656,0,0,0-.43,1.279v.041a8.723,8.723,0,0,1,.041,1.356,2.238,2.238,0,0,1-1.182,1.657,2.092,2.092,0,0,1-.855.244.691.691,0,0,1-.339-.05c.2-.344.393-.678.57-1.02a6.806,6.806,0,1,1,11.548-7.207Z" transform="translate(-572.841 -349.804)" opacity="0.1"/><path d="M715.656,391.113a1.149,1.149,0,0,1-.378.463c-.515.335-1.255-.034-1.793.264-.432.237-.554.8-.9,1.155a2.6,2.6,0,0,1-1.614.554,1.989,1.989,0,0,0-1.526.71,3.675,3.675,0,0,0-.287,1.257.381.381,0,0,1-.088.208.414.414,0,0,1-.276.09,8.831,8.831,0,0,1-3.011-.583,1.605,1.605,0,0,0-1.454.226,1.575,1.575,0,0,0-.432,1.282,9.923,9.923,0,0,1,.043,1.392,2.261,2.261,0,0,1-2.035,1.9.556.556,0,0,1-.418-.106.6.6,0,0,1-.138-.249c-.753-2.116-.746-4.465-1.659-6.517a7.363,7.363,0,0,1-.382-.9c-.018-.063-.036-.129-.05-.194a2.977,2.977,0,0,1-.054-.4.565.565,0,0,0-.258.106.478.478,0,0,0-.072.077,1.341,1.341,0,0,0-.19.717,27.128,27.128,0,0,0,.814,8.4,8.782,8.782,0,0,1,.391,2.109,5.635,5.635,0,0,1-.543,2.236c-1.417,3.269-4.266,5.663-7.1,7.826a3.149,3.149,0,0,0,.841-2.335.922.922,0,0,1-.717.642,2.762,2.762,0,0,1-1.01-.016c.434-.142.6-.653.712-1.1q.332-1.356.617-2.737a17.225,17.225,0,0,0,.4-2.672c.034-.764-.025-1.53-.057-2.3a46.483,46.483,0,0,1,.226-6.3c.167-1.808.47-3.764,1.8-5a7.808,7.808,0,0,1,1.9-1.185c0-.226,1.657-.678,1.876-.71a1.779,1.779,0,0,1,.276-.032.567.567,0,0,1,.59.31c.081-.147.172-.292.267-.43a5.01,5.01,0,0,1,.43-.54,24.846,24.846,0,0,1,2.975-2.423,7.645,7.645,0,0,1,1.185-.873,4.263,4.263,0,0,1,1.774-.452,7.2,7.2,0,0,1,3,.47c1.374.529,2.575,1.478,4,1.863a9.516,9.516,0,0,1,1.038.287,2.514,2.514,0,0,1,1.311,3.486Z" transform="translate(-539.138 -336.843)" fill="#444053"/><g transform="translate(152.213 52.469)" opacity="0.1"><path d="M692.733,497.084a3.124,3.124,0,0,0,.206-1.334.927.927,0,0,1-.719.642,1.469,1.469,0,0,1-.262.038,1.135,1.135,0,0,1-.637.823,2.765,2.765,0,0,0,1.01.018A1.13,1.13,0,0,0,692.733,497.084Z" transform="translate(-691.32 -475.035)"/><path d="M740.335,404.11a2.529,2.529,0,0,1-.271,1.026,1.165,1.165,0,0,1-.38.452c-.513.335-1.255-.032-1.793.264-.43.237-.554.8-.9,1.155a2.592,2.592,0,0,1-1.614.554,2.018,2.018,0,0,0-1.526.71,3.634,3.634,0,0,0-.287,1.257.317.317,0,0,1-.364.3,8.78,8.78,0,0,1-3.011-.586,1.609,1.609,0,0,0-1.456.226,1.661,1.661,0,0,0-.43,1.282,9.535,9.535,0,0,1,.041,1.39,2.247,2.247,0,0,1-2.034,1.9.563.563,0,0,1-.418-.106.608.608,0,0,1-.138-.251c-.753-2.116-.748-4.465-1.661-6.515a7.908,7.908,0,0,1-.38-.9,2.654,2.654,0,0,1-.106-.59.5.5,0,0,0-.33.183,1.389,1.389,0,0,0-.19.717,27.286,27.286,0,0,0,.226,5.425,27.352,27.352,0,0,1-.111-4.553,1.34,1.34,0,0,1,.19-.717.475.475,0,0,1,.33-.183,2.671,2.671,0,0,0,.1.59,7.734,7.734,0,0,0,.382.9c.9,2.053.9,4.4,1.659,6.515a.624.624,0,0,0,.14.251.547.547,0,0,0,.416.124,2.261,2.261,0,0,0,2.035-1.9,9.9,9.9,0,0,0-.043-1.393,1.7,1.7,0,0,1,.432-1.282,1.572,1.572,0,0,1,1.453-.226,8.811,8.811,0,0,0,3.011.583.414.414,0,0,0,.276-.09.392.392,0,0,0,.088-.21,3.61,3.61,0,0,1,.287-1.255,1.994,1.994,0,0,1,1.526-.712,2.61,2.61,0,0,0,1.616-.552c.341-.355.463-.918.9-1.157.536-.3,1.277.072,1.793-.262a1.148,1.148,0,0,0,.377-.463A2.563,2.563,0,0,0,740.335,404.11Z" transform="translate(-715.867 -404.11)"/><path d="M702.82,461.275a5.652,5.652,0,0,1-.54,2.236c-1.268,2.923-3.682,5.147-6.2,7.13a3.165,3.165,0,0,1-.787,1.582c2.83-2.161,5.683-4.555,7.1-7.824a5.636,5.636,0,0,0,.543-2.236,4.949,4.949,0,0,0-.115-.983C702.818,461.2,702.82,461.239,702.82,461.275Z" transform="translate(-694.393 -448.279)"/></g><path d="M726.414,404c-.2.936-.484,2.152-.694,2.778a3.386,3.386,0,0,1-.054-.4.559.559,0,0,0-.255.106c0-.658.079-1.637.147-2.369a.57.57,0,0,1,.592.31A3.918,3.918,0,0,1,726.414,404Z" transform="translate(-565.491 -351.556)" opacity="0.1"/><path d="M725.926,404c-.2.936-.484,2.152-.694,2.778a2.957,2.957,0,0,1-.054-.4.566.566,0,0,0-.258.106c0-.658.079-1.637.149-2.369a.567.567,0,0,1,.59.31C725.741,404.285,725.842,404.14,725.926,404Z" transform="translate(-565.112 -351.556)" fill="#67647e"/><g transform="translate(205.152)" opacity="0.7"><path d="M933,179.57h37.45V216H933Z" transform="translate(-931.307 -177.859)" fill="#2e001e"/><path d="M925.51,172v39.839h40.854V172Zm1.7,1.7h37.45v36.433H927.2Z" transform="translate(-925.51 -172)" fill="#ff2bc2"/><path d="M981.526,221.145a2.326,2.326,0,0,0-.988-.172c-2.143,0-3.574,1.652-3.574,4.392,0,3.133,1.465,4.392,3.37,4.392a3.178,3.178,0,0,0,1.175-.188v-8.425Zm-7.632,4.358c0-3.967,2.552-7.066,6.741-7.066a7.074,7.074,0,0,1,.884.036v-4.426a.172.172,0,0,1,.172-.172h2.74c.136,0,.17.052.17.138V229.57a12,12,0,0,0,.086,1.668c0,.12,0,.138-.1.188a10.157,10.157,0,0,1-4.358.988c-3.694,0-6.329-2.281-6.329-6.91Zm-5.8-2.758,4.772,9.236c.086.136.034.271-.1.271H969.8a.332.332,0,0,1-.357-.226q-1.634-3.37-3.337-7h-.034c-1.022,2.281-2.145,4.767-3.235,7.008a.328.328,0,0,1-.307.188H959.7c-.17,0-.185-.138-.1-.24l4.663-8.97-4.51-8.893a.152.152,0,0,1,.12-.255H962.8c.17,0,.255.034.305.188,1.074,2.261,2.163,4.494,3.185,6.782h.034c.986-2.247,2.075-4.521,3.115-6.741.084-.138.136-.226.305-.226h2.742c.136,0,.185.1.1.255l-4.494,8.631Z" transform="translate(-951.857 -204.404)" fill="#ff2bc2"/></g><g transform="translate(42.906 2.498)" opacity="0.7"><path d="M216.482,244.46l12.8,25.049L207.77,244.46Z" transform="translate(-207.77 -230.578)" fill="#ea6c00"/><path d="M315.739,244.46l-12.8,25.049,21.511-25.049Z" transform="translate(-281.427 -230.578)" fill="#ea6c00"/><path d="M246.31,244.46h25.6l-12.8,25.049Z" transform="translate(-237.598 -230.578)" fill="#fdad00"/><path d="M259.094,183.05l-12.125,1.282-.678,12.6Z" transform="translate(-237.582 -183.05)" fill="#fdd231"/><path d="M302.93,183.05l12.123,1.282.678,12.6Z" transform="translate(-281.419 -183.05)" fill="#fdd231"/><path d="M365.966,201.32l-9.386-12.6.678,12.6Z" transform="translate(-322.941 -187.438)" fill="#fdad00"/><path d="M207.77,201.32l9.386-12.6-.678,12.6Z" transform="translate(-207.77 -187.438)" fill="#fdad00"/><path d="M259.109,183.05l-12.8,13.882h25.6Z" transform="translate(-237.598 -183.05)" fill="#feeeb7"/></g></svg>