<svg xmlns="http://www.w3.org/2000/svg" width="238.053" height="98.408" viewBox="0 0 238.053 98.408"><path d="M643.457,111.433l13.935-13.893L643.457,83.648l4.248-4.234,18.184,18.127-18.184,18.127-4.248-4.234Z" transform="translate(-498.677 -60.957)" fill="#e6e6e6"/><rect width="5.665" height="5.665" transform="translate(104.985 31.011)" fill="#e6e6e6"/><rect width="5.665" height="5.665" transform="translate(127.757 31.011)" fill="#e6e6e6"/><rect width="5.665" height="5.665" transform="translate(116.371 31.011)" fill="#e6e6e6"/><path d="M355.217,110.8,341.268,96.912,355.2,83.019l-4.249-4.234L332.785,96.912l18.184,18.127Z" transform="translate(-257.907 -60.469)" fill="#e6e6e6"/><path d="M643.457,99.475l13.935-13.893L643.457,71.689l4.248-4.234,18.184,18.127-18.184,18.127-4.248-4.234Z" transform="translate(-498.677 -51.689)" fill="#6c63ff"/><path d="M537.595,365.54h5.665v-5.665h-5.665Zm28.437-5.665h-5.665v5.665h5.665Zm-17.051,5.665h5.665v-5.665h-5.665Z" transform="translate(-432.61 -330.655)" fill="#6c63ff"/><path d="M355.217,98.845,341.268,84.953,355.2,71.06l-4.249-4.234L332.785,84.953l18.184,18.127Z" transform="translate(-257.907 -51.201)" fill="#6c63ff"/><path d="M129.3,368.319l3.171.767,4.466-11.866-4.68-1.132Z" transform="translate(-100.211 -275.378)" fill="#a0616a"/><path d="M193.632,641.858l.974-4.028,6.2,1.5a4.057,4.057,0,0,1,2.987,4.892l-.021.089Z" transform="translate(-166.039 -546.069)" fill="#2f2e41"/><path d="M191.694,376.706h3.263l1.552-12.584h-4.815Z" transform="translate(-148.562 -281.605)" fill="#a0616a"/><path d="M259.183,648.128h6.383a4.053,4.053,0,0,1,4.053,4.053v.091H259.183Z" transform="translate(-216.841 -554.05)" fill="#2f2e41"/><path d="M214.285,493.014l.536-19.577L214.1,465.5l-1.41,6.109-6.16,20.089-5.311-1.4,6.151-21.661-1.336-13.893,3.838-2.467.052.009,13.113,2.417-3.168,37.752Z" transform="translate(-171.919 -402.267)" fill="#2f2e41"/><path d="M235.6,345.1a6.328,6.328,0,0,1-3.666-1.311c-4.4-3.1-9.644.235-9.7.269l-.213.139.007-.254c.005-.181.532-18.16.532-23.946,0-5.977,3.9-10.342,5.1-11.537a3.874,3.874,0,0,1,3.41-1.115c.215.005.44.011.676.011a5.633,5.633,0,0,1,3.287,1.636l.032.032.006.045,4.531,34.117-.035.044A5.443,5.443,0,0,1,235.6,345.1Z" transform="translate(-188.044 -289.936)" fill="#ccc"/><circle cx="6.536" cy="6.536" r="6.536" transform="translate(35.525 11.47) rotate(-61.337)" fill="#a0616a"/><path d="M299.456,455.175a2.676,2.676,0,0,1-.155-4.1l-3.712-8.755,4.86.894,2.78,8.177a2.69,2.69,0,0,1-3.773,3.784Z" transform="translate(-245.056 -394.55)" fill="#a0616a"/><path d="M274.873,352.579,268.166,338.9l-2.941-10.3,0-8.946c.007-.035.7-3.515,3.26-3.274,2.324.225,3.575,1.361,4.184,3.8.518,2.071-.19,8.215-.259,8.795.45,1.066,7.195,17.137,6.078,19.072a.491.491,0,0,1-.177.183l1.2,2.523Z" transform="translate(-221.524 -296.938)" fill="#ccc"/><path d="M242.17,243.37c.783.1,1.375-.7,1.649-1.441s.483-1.6,1.164-2c.931-.547,2.121.111,3.186-.07a2.791,2.791,0,0,0,2.045-2.695,8.158,8.158,0,0,0-.9-3.511l-.166,1.4a2.766,2.766,0,0,0-1.209-2.418l.214,2.047a2.173,2.173,0,0,0-2.5-1.8l.034,1.22a20.145,20.145,0,0,0-4.181-.2,6.039,6.039,0,0,0-5.811,7.2,17.981,17.981,0,0,0,1.949,5.928c.225.475.537,1.012,1.06,1.072a1.067,1.067,0,0,0,1.045-.788,2.855,2.855,0,0,0-.013-1.4,5.964,5.964,0,0,1-.174-2.122,1.73,1.73,0,0,1,1.339-1.484c.709-.086,1.434.724,1.093,1.352Z" transform="translate(-198.611 -232.038)" fill="#2f2e41"/><path d="M979.657,456.682a2.263,2.263,0,0,1,.531-3.429l-1.673-7.865,3.89,1.524.992,7.235a2.275,2.275,0,0,1-3.74,2.534Z" transform="translate(-774.322 -396.928)" fill="#ffb8b8"/><path d="M957.623,380.977l-.021-.077c-2.1-7.779-4.277-15.819-6.931-24.575l-.017-.057.059-.034a5.288,5.288,0,0,1,5.172.134,3.859,3.859,0,0,1,1.675,4.093l1.936,10.093c.787,3.3,1.6,6.714,2.38,10.081l.022.1-.12.008c-1.417.09-2.882.183-4.055.235Z" transform="translate(-752.729 -327.36)" fill="#ccc"/><path d="M817.171,385.1h-2.759l-1.313-10.64h4.071Z" transform="translate(-630.15 -289.614)" fill="#ffb8b8"/><path d="M874.685,653.944H865.79v-.112a3.466,3.466,0,0,1,3.462-3.462h5.432Z" transform="translate(-686.96 -555.787)" fill="#2f2e41"/><path d="M922.231,376.713l-2.628.837-4.481-9.739L919,366.575Z" transform="translate(-709.216 -283.506)" fill="#ffb8b8"/><path d="M985.961,645.6l-.034-.107a3.466,3.466,0,0,1,2.248-4.35l5.176-1.649,1.085,3.406Z" transform="translate(-779.939 -547.359)" fill="#2f2e41"/><circle cx="5.526" cy="5.526" r="5.526" transform="translate(193.526 10.785)" fill="#ffb8b8"/><path d="M934.534,276.059a7.056,7.056,0,0,0-2.344-5.546,3.746,3.746,0,0,0-4.755.084,7.168,7.168,0,0,0-2.234,5.627C928.384,276.233,931.565,276.242,934.534,276.059Z" transform="translate(-733.001 -260.772)" fill="#2f2e41"/><path d="M883.481,457.3l-.111-.011c-2.4-.236-4.881-.479-7.227-.507l-.128,0,.017-.126c.556-4.024.791-8.208,1.019-12.254.225-4,.457-8.126,1-12.05.229-1.051.453-2.089.675-3.123,1.842-8.56,3.581-16.645,7.172-24.648l.034-.076.082.01a19.744,19.744,0,0,1,9.116,3.461l.049.035,0,.06c-.048,1.243-.1,2.528-.024,3.7a12.554,12.554,0,0,1,1.79,11.089c.988,3.3,2.009,6.715,3.052,10.082,2.531,6.939,5.15,14.119,7.835,21.4l.044.119-.124.029a43.781,43.781,0,0,1-5.89,1.1l-.074.007-.035-.066a160.4,160.4,0,0,1-12.17-29.263,37.324,37.324,0,0,1-2.573,5.681,42.536,42.536,0,0,0-2.358,5.04c-.414,3.4-.524,7.088-.63,10.653-.1,3.37-.2,6.554-.525,9.547Z" transform="translate(-694.886 -365.243)" fill="#2f2e41"/><path d="M945.5,273.079a8.087,8.087,0,0,1,6.926,1.591,6.619,6.619,0,0,1,2.064,6.81,5.065,5.065,0,0,1-5.769,3.466,4.755,4.755,0,0,0-1.747-5.37C945.005,278.268,944.463,275.144,945.5,273.079Z" transform="translate(-748.335 -263.237)" fill="#2f2e41"/><path d="M929.092,353.039,929,353c-3.056-1.394-6.052-2.464-8.86-3.44l-.086-.019v-.25l.056.019.038-.085c.038-.085.065-.143.087-.181h0c.234-.477.42-.938.6-1.383s.377-.935.625-1.437a4.355,4.355,0,0,1-.962-4.686,4.919,4.919,0,0,1,3.863-2.8c.609-1.676,1.965-5.2,1.965-5.2s2.853-.078,4-.224l.019,0,.019,0a7.058,7.058,0,0,1,5.085,5.763,11.5,11.5,0,0,1-1.766,7.732,33.306,33.306,0,0,1-2.635,3.62c-.7.874-1.359,1.7-1.907,2.53Z" transform="translate(-729.018 -310.066)" fill="#ccc"/><path d="M984.292,290.493Z" transform="translate(-778.799 -276.884)" fill="#2f2e41"/><path d="M975.074,265.619a3.313,3.313,0,1,1,3.8-3.139A3.353,3.353,0,0,1,975.074,265.619Z" transform="translate(-769.468 -252.501)" fill="#2f2e41"/><path d="M971.585,261.793a3.288,3.288,0,0,1-.8-6.289,3.3,3.3,0,0,0,.129,6.514,3.2,3.2,0,0,0,1.839-.257A3.265,3.265,0,0,1,971.585,261.793Z" transform="translate(-766.241 -249.768)" fill="#2f2e41"/><path d="M838.043,398.765a2.263,2.263,0,0,1,3.409-.642l6.858-4.2-.141,4.176-6.491,3.346a2.275,2.275,0,0,1-3.636-2.682Z" transform="translate(-665.225 -357.044)" fill="#ffb8b8"/><path d="M864.128,353.5l.066-.045c6.633-4.575,13.491-9.3,20.861-14.723l.048-.036.052.044a5.288,5.288,0,0,1,1.6,4.921,3.859,3.859,0,0,1-3.3,2.943L874.58,351.8c-2.848,1.841-5.8,3.747-8.712,5.6l-.083.053-.047-.111c-.557-1.306-1.133-2.656-1.573-3.745Z" transform="translate(-685.672 -314.245)" fill="#ccc"/><path d="M156.951,665.823H71.225a.225.225,0,0,1,0-.45h85.726a.225.225,0,0,1,0,.45Z" transform="translate(-71 -567.415)" fill="#3f3d56"/><path d="M831.951,665.823H746.225a.225.225,0,0,1,0-.45h85.726a.225.225,0,0,1,0,.45Z" transform="translate(-594.123 -567.415)" fill="#3f3d56"/></svg>