<svg xmlns="http://www.w3.org/2000/svg" width="146.951" height="138.954" viewBox="0 0 146.951 138.954"><g transform="translate(29.503 42.311)"><path d="M147.962,304.935c.473,1.4.134,2.778-.757,3.079s-2-.59-2.469-1.99a3.7,3.7,0,0,1-.176-1.737l-1.929-5.956,2.814-.846,1.6,5.961A3.7,3.7,0,0,1,147.962,304.935Z" transform="translate(-139.247 -271.204)" fill="#ffb6b6"/><path d="M137.849,183.5s-4.249.185-4.434,2.4-5.463,16.044-5.463,16.044l4.15,12.682,3.228-2.075-1.845-9.915,6.226-9.454Z" transform="translate(-127.953 -183.502)" fill="#4361ee"/></g><path d="M469.555,76.991c0-8.675-7.332-13.448-15.708-15.708-10.738-2.9-18.6,2.966-15.708,15.708a28.915,28.915,0,0,0,4.168,9.146h15.415C462.87,82.784,469.555,83.724,469.555,76.991Z" transform="translate(-336.649 -46.592)" fill="#7209b7"/><g transform="translate(26.107 122.28)"><path d="M124.9,540.462l2.249.337,2.531-9.974-3.318-.5Z" transform="translate(-122.204 -530.328)" fill="#ffb6b6"/><path d="M123.061,561.637h0a.656.656,0,0,1-.691.614l-4.476-.563a4.074,4.074,0,0,0-1.918-2.814l-.442,2.517-2.309-.29.792-4.037s-.344-2.257,1.079-3.209.364-.928.364-.928l.822-2.457,3.438.849-.472,3.96,1.2,4.14,2.329,1.539a.7.7,0,0,1,.285.679h0Z" transform="translate(-113.224 -545.825)" fill="#2f2e41"/></g><g transform="translate(54.071 122.786)"><path d="M243.3,542.76l2.273.054,1.267-10.211-3.354-.079Z" transform="translate(-241.276 -532.523)" fill="#ffb6b6"/><path d="M244.333,563.334h0a.656.656,0,0,1-.609.7h-4.512a4.075,4.075,0,0,0-2.254-2.553l-.125,2.553h-2.327l.282-4.1s-.623-2.2.67-3.319.246-.966.246-.966l.509-2.54,3.517.414.026,3.988,1.707,3.958,2.5,1.237a.7.7,0,0,1,.367.638h0Z" transform="translate(-234.507 -548.355)" fill="#2f2e41"/></g><path d="M136.549,283.736l-4.38,14.473.787,21.883-6.316,22.324h5.015L142.1,320.393l2.824-19.518,7.808,42.336h4.852l-1.132-44.373-3.53-15.482Z" transform="translate(-97.44 -218.021)" fill="#2f2e41"/><path d="M170.684,159.024l-6.284-.381-1.714,3.428L156.4,165.5l4.57,12.188L157.22,194.58s3.859-3.587,8.3.922c6.577,6.678,13.373,3.459,13.373,3.459l-3.92-17.754,1.383-14.757c.178-1.164,1.805-2.615.692-3L172.4,161.5l-1.714-2.476Z" transform="translate(-120.339 -122.064)" fill="#4361ee"/><path d="M177.325,117.514h-7.516a4.37,4.37,0,0,0-.219-1.477,5.106,5.106,0,0,1-.228,1.477h-.341c-.522,0-.945-.613-.946-1.368-1.766-1.962-1.535-4.368,0-7.065,0-3.459,2.045-8.645,4.267-6.475.072-.005,1.2-.727,1.27-.727,1.955,0,2.627,2.554,3.217,5.249.673-.448,1.136,1.423,1.471,4.717.1.961.185,2.044.263,3.225a2.131,2.131,0,0,1-.85,2.359.939.939,0,0,1-.388.087h0Z" transform="translate(-128.368 -78.388)" fill="#2f2e41"/><circle cx="5.523" cy="5.523" r="5.523" transform="translate(41.898 25.044)" fill="#ffb6b6"/><path d="M185.771,122.875h0a1.976,1.976,0,0,1-2.236.678l-2.46-.865a.4.4,0,0,1-.437-.31v-.019c-.025-.364-.7-.426-.853-.081a4.079,4.079,0,0,1-.214.409h-.446V111.94c0-1.843,1.967-3.338,4.393-3.338h0c2.071,0,3.861,1.1,4.3,2.638,0,0,3.079,2.87,1.264,4.483s.825,2.927.825,2.927c.524,1.859-1.142,4.881-3.5,5.5-.278.072-.334-1.272-.629-1.272Z" transform="translate(-137.822 -83.561)" fill="#2f2e41"/><path d="M183.53,106.53a2.6,2.6,0,0,1-2.664,1.035,23.4,23.4,0,0,0-3.356-.471c-.806.014-1.3.008-2.293,0-1.172-.011-1.494-.034-1.72-.282-.439-.482-.077-1.34-.287-1.411-.175-.059-.628.471-.86,1.129-.487,1.38,1.261,3.3,1.433,5.078.183,1.916-1.623-1.755-1.433,0,.212,1.975.972,1.825.963,2.539a.439.439,0,0,1-.1.282c-.06.073-.12.1-1.147.282a10.552,10.552,0,0,1-2.007.282c-.421-.107-.849-.7-1.147-1.129-.493-.7-.143.006,0-.846.138-.824.568-.931.573-1.693.006-.959-.674-1.25-1.147-2.257-.874-1.862-.02-4.018.287-4.8a12.467,12.467,0,0,1,.883-1.627,5.066,5.066,0,0,1,1.483-1.593,7.468,7.468,0,0,1,3.117-1.213,5.023,5.023,0,0,1,1.884.1l1.6.378a5.283,5.283,0,0,1,1.863.847h0a1.234,1.234,0,0,1,1.15.814c.019.05.036.08.05.075,2.88-.886,2.878,1.738,2.846,3.377a2.279,2.279,0,0,0,.025.437v.008a1.144,1.144,0,0,1,.009.652Z" transform="translate(-129.228 -76.783)" fill="#2f2e41"/><path d="M46.749,519.486a.523.523,0,0,1-.379-.907l.036-.143-.014-.034c-.483-1.151-1.347-.065-2.593.013-1.832.114-1.805,1.5-1.1,3.12a17.649,17.649,0,0,1-1.443-5.492,16.086,16.086,0,0,1,.1-1.795q.083-.733.229-1.455a16.86,16.86,0,0,1,3.343-7.145,4.487,4.487,0,0,0,1.866-1.936c.144-.295,1.386-.544,1.439-.867a7.855,7.855,0,0,1-1.4-1.525c-.127-.192-.353-.288-.491-.475-.688-.932-1.635-.77-2.13.5-1.057.533-1.067,1.418-.418,2.268.412.541.469,1.273.831,1.853-.037.048-.076.094-.113.142l-.043.055a1.194,1.194,0,0,1-2.076-.336c-.024-.065-.225,3.483-.074-.19s-1.169-1.8-1.838-2.65a1.441,1.441,0,0,0-2.564.729l0,.037q.148.084.29.178a.71.71,0,0,1-.286,1.291l-.014,0a7.061,7.061,0,0,0,.186,1.056c-.853,3.3.988,4.5,3.618,4.557l.137.195a17.332,17.332,0,0,0-.895,4.28l0,.03a.67.67,0,0,1-1.178.387,2.178,2.178,0,0,0-.294-.3c-1.14-.937-2.751-1.282-3.982-2.035a.815.815,0,0,0-1.248.793l.005.033a4.778,4.778,0,0,1,.535.258q.148.084.291.178a.71.71,0,0,1-.287,1.291l-.014,0-.03,0,.009.022a2.528,2.528,0,0,0,2.444,1.537c1.236-.068,2.771.966,4.124,2.792h0a17.315,17.315,0,0,0,1.163,3.4h4.155c.015-.046.028-.094.042-.14a4.722,4.722,0,0,1-1.15-.068c.308-.378.617-.76.925-1.138a.267.267,0,0,0,.019-.022c.156-.194.314-.386.471-.579h0a6.915,6.915,0,0,0-.2-1.762h0Z" transform="translate(-26.344 -384.906)" fill="#f2f2f2"/><path d="M0,600.537a.274.274,0,0,0,.274.274h83.3a.274.274,0,1,0,0-.549H.274A.274.274,0,0,0,0,600.537Z" transform="translate(0 -461.858)" fill="#ccc"/><path d="M434.233,18.422V42.863a3.924,3.924,0,0,1-3.92,3.92H405.873a3.924,3.924,0,0,1-3.92-3.92V18.422a3.924,3.924,0,0,1,3.92-3.92h24.441A3.924,3.924,0,0,1,434.233,18.422Zm-3.92,27.9a3.459,3.459,0,0,0,3.459-3.459V30.541a15.577,15.577,0,0,0-15.577-15.577H405.873a3.459,3.459,0,0,0-3.459,3.459V42.863a3.459,3.459,0,0,0,3.459,3.459Z" transform="translate(-309.273 -11.158)" fill="#3f3d56"/><path d="M431.863,234.085h-7.89a.361.361,0,1,1,0-.721h7.89a.361.361,0,0,1,0,.721Z" transform="translate(-325.938 -179.556)" fill="#3f3d56"/><g transform="translate(129.871)"><path d="M589.863.721h-7.89a.361.361,0,1,1,0-.721h7.89a.361.361,0,0,1,0,.721Z" transform="translate(-577.378 0)" fill="#3f3d56"/><path d="M589.863,34.085h-7.89a.361.361,0,1,1,0-.721h7.89a.361.361,0,0,1,0,.721Z" transform="translate(-577.378 -25.671)" fill="#3f3d56"/><path d="M579.968,17.414H563.609a.361.361,0,1,1,0-.721h16.359a.361.361,0,0,1,0,.721Z" transform="translate(-563.248 -12.844)" fill="#3f3d56"/></g><path d="M438.764,198.331H404.646a3.7,3.7,0,0,1-3.693-3.693V182.195a3.7,3.7,0,0,1,3.693-3.693h34.118a3.7,3.7,0,0,1,3.693,3.693v12.444A3.7,3.7,0,0,1,438.764,198.331Zm-34.118-19.368a3.235,3.235,0,0,0-3.232,3.232v12.444a3.235,3.235,0,0,0,3.232,3.232h34.118A3.235,3.235,0,0,0,442,194.639V182.195a3.235,3.235,0,0,0-3.232-3.232Z" transform="translate(-308.504 -137.344)" fill="#3f3d56"/><path d="M565.738,106.87h-4.118A12.681,12.681,0,0,1,548.954,94.2V90.086a2.586,2.586,0,0,1,2.583-2.584h14.2a2.587,2.587,0,0,1,2.583,2.584v14.2A2.587,2.587,0,0,1,565.738,106.87Zm-14.2-18.907a2.122,2.122,0,0,0-2.122,2.122V94.2a12.206,12.206,0,0,0,12.206,12.206h4.118a2.122,2.122,0,0,0,2.122-2.122V95.242a7.279,7.279,0,0,0-7.279-7.279Z" transform="translate(-422.379 -67.326)" fill="#3f3d56"/><g transform="translate(54.653 41.158)"><path d="M254.529,308.879c.107,1.473.954,2.613,1.892,2.544s1.611-1.318,1.5-2.792a3.7,3.7,0,0,0-.511-1.67l-.532-6.237-2.922.312.835,6.116A3.7,3.7,0,0,0,254.529,308.879Z" transform="translate(-250.056 -272.543)" fill="#ffb6b6"/><path d="M237.032,178.5s4.249.185,4.434,2.4,2.217,16.442,2.217,16.442l.924,14.225-3.325.554-4.037-16.812-.212-16.812Z" transform="translate(-237.032 -178.502)" fill="#4361ee"/></g><path d="M469.828,190.3a11.065,11.065,0,0,1,3.213-3.8H458.6C462.32,191.81,467.247,195.216,469.828,190.3Z" transform="translate(-352.861 -143.499)" fill="#7209b7"/></svg>