<svg xmlns="http://www.w3.org/2000/svg" width="188.789" height="180.851" viewBox="0 0 188.789 180.851"><path d="M355.822,104.324C346,65.686,312.045,37.8,272.193,36.677c-21.068-.591-43.238,6.4-59.379,30.848-28.854,43.71,1.773,73.915,23.126,88.267a133.608,133.608,0,0,1,27.616,24.821c14.423,17.115,42.169,38.383,75.214,5.059C362.721,161.52,362.367,130.06,355.822,104.324Z" transform="translate(-193.922 -36.643)" fill="#f2f2f2"/><path d="M357.07,712.731c0,9.484-41.387,27.126-93.519,27.126S168.5,723.309,168.5,713.825s42.918-8.313,95.051-8.313S357.07,703.247,357.07,712.731Z" transform="translate(-168.5 -559.006)" fill="#3f3d56"/><path d="M357.07,712.731c0,9.484-41.387,27.126-93.519,27.126S168.5,723.309,168.5,713.825s42.918-8.313,95.051-8.313S357.07,703.247,357.07,712.731Z" transform="translate(-168.5 -559.006)" opacity="0.1"/><ellipse cx="94.394" cy="17.173" rx="94.394" ry="17.173" transform="translate(0 137.537)" fill="#3f3d56"/><path d="M594.859,440.238v45.927l7.682,12.52.585.952h30.312l.612-59.4Z" transform="translate(-464.728 -343.932)" fill="#2f2e41"/><path d="M594.859,440.238v45.927l7.682,12.52.471-58.447Z" transform="translate(-464.728 -343.932)" opacity="0.1"/><path d="M120.386,434.639v45.927l-7.682,12.52-.585.952H81.807l-.612-59.4Z" transform="translate(-63.433 -339.558)" fill="#2f2e41"/><path d="M231.229,434.639v45.927l-7.682,12.52-.472-58.447Z" transform="translate(-174.275 -339.558)" opacity="0.1"/><path d="M227.725,397.637v2.756H63v-3.98l15.309-7.961H214.253Z" transform="translate(-49.218 -303.475)" fill="#2f2e41"/><path d="M227.725,426.067v2.756H63v-3.98Z" transform="translate(-49.218 -331.904)" opacity="0.1"/><path d="M133.594,485.769h-7.348l-3.062-2.143h13.778Z" transform="translate(-96.236 -377.829)" opacity="0.1"/><path d="M133.594,526.358h-7.348l-3.062-2.143h13.778Z" transform="translate(-96.236 -409.538)" opacity="0.1"/><path d="M133.594,583.743h-7.348l-3.062-2.143h13.778Z" transform="translate(-96.236 -454.37)" opacity="0.1"/><path d="M133.594,641.128h-7.348l-3.062-2.143h13.778Z" transform="translate(-96.236 -499.201)" opacity="0.1"/><path d="M672.407,491.368h7.348l3.062-2.143H669.039Z" transform="translate(-522.681 -382.203)" opacity="0.1"/><path d="M672.407,531.957h7.348l3.062-2.143H669.039Z" transform="translate(-522.681 -413.913)" opacity="0.1"/><path d="M672.407,589.342h7.348l3.062-2.143H669.039Z" transform="translate(-522.681 -458.744)" opacity="0.1"/><path d="M672.407,646.726h7.348l3.062-2.143H669.039Z" transform="translate(-522.681 -503.575)" opacity="0.1"/><path d="M687.539,388.667l-1.021,6.521s-5.028,2.671-1.493,2.75,20.19,0,20.19,0,3.221,0-1.886-2.828l-1.021-6.835Z" transform="translate(-571.046 -311.352)" fill="#3f3d56"/><path d="M684.318,397.866a13.907,13.907,0,0,1,2.2-1.459l1.021-6.521,14.77.014,1.021,6.428a13.41,13.41,0,0,1,2.36,1.553c.656-.15,1.373-.706-2.36-2.773l-1.021-6.835-14.77.393-1.021,6.521S682.3,397.432,684.318,397.866Z" transform="translate(-571.05 -311.352)" opacity="0.1"/><rect width="66.542" height="46.352" rx="10.695" transform="translate(90.528 31.867)" fill="#3f3d56"/><rect width="62.064" height="34.724" transform="translate(92.767 34.342)" fill="#f2f2f2"/><circle cx="0.393" cy="0.393" r="0.393" transform="translate(123.406 32.849)" fill="#f2f2f2"/><path d="M648.866,364.931v4.063a2.339,2.339,0,0,1-2.34,2.34H584.664a2.339,2.339,0,0,1-2.34-2.34v-4.063Z" transform="translate(-491.797 -293.115)" fill="#3f3d56"/><circle cx="1.493" cy="1.493" r="1.493" transform="translate(122.306 73.544)" fill="#f2f2f2"/><path d="M404.337,405.1v.786H362.071v-.628l.058-.157,1.042-2.828h40.3Z" transform="translate(-282.865 -314.268)" fill="#3f3d56"/><path d="M755.759,438.662c-.077.329-.368.676-1.024,1-2.357,1.178-7.149-.314-7.149-.314s-3.692-.628-3.692-2.278a2.945,2.945,0,0,1,.324-.193c.991-.524,4.276-1.818,10.1.055a2.43,2.43,0,0,1,1.107.726,1.158,1.158,0,0,1,.333,1Z" transform="translate(-618.02 -348.604)" fill="#3f3d56"/><path d="M756.914,438.662c-2.885,1.105-5.456,1.188-8.095-.645a5.8,5.8,0,0,0-3.447-1.135c.991-.524,4.276-1.818,10.1.055a2.431,2.431,0,0,1,1.107.726,1.159,1.159,0,0,1,.333,1Z" transform="translate(-619.176 -348.604)" opacity="0.1"/><ellipse cx="1.021" cy="0.314" rx="1.021" ry="0.314" transform="translate(133.1 88.785)" fill="#f2f2f2"/><path d="M404.337,415.2v.786H362.071v-.629l.058-.157Z" transform="translate(-282.865 -324.368)" opacity="0.1"/><path d="M667.875,215.172c-.333-.333-4.613-5.725-5.336-6.614-.778-.889-1.112-.723-1.612-.667s-5.891,1-6.5,1.056c-.611.111-1,.333-.611.889.333.5,3.891,5.5,4.669,6.669l-14.173,3.39-11.227-18.841c-.445-.667-.556-.889-1.556-.834s-8.837.723-9.393.723c-.556.056-1.167.278-.611,1.612s9.448,20.453,9.671,21.009a1.911,1.911,0,0,0,2.39,1.112c1.556-.389,6.892-1.779,9.837-2.557,1.556,2.779,4.669,8.448,5.28,9.282.778,1.112,1.334.889,2.5.556.945-.278,14.562-5.169,15.173-5.447s1-.445.556-1.056c-.333-.445-3.891-5.28-5.78-7.781,1.278-.333,5.891-1.556,6.392-1.723.556-.167.667-.445.333-.778Zm-25.733,5.28c-.167.056-8.115,1.945-8.5,2.056-.445.111-.445.056-.445-.111-.111-.167-9.448-19.508-9.615-19.73-.111-.222-.111-.445,0-.445s7.5-.667,7.725-.667c.278,0,.222.056.333.222,0,0,10.393,17.952,10.56,18.23C642.419,220.285,642.308,220.4,642.142,220.452Zm22.343,4.168c.111.222.278.333-.167.445-.389.167-13.394,4.557-13.672,4.669s-.445.167-.778-.333-4.557-7.781-4.557-7.781l13.839-3.613c.333-.111.445-.167.667.167.222.389,4.557,6.28,4.669,6.447Zm.889-9.782c-.333.056-5.391,1.334-5.391,1.334l-4.168-5.669c-.111-.167-.222-.333.056-.389s5-.889,5.224-.945.389-.111.667.278c.278.333,3.835,4.891,4,5.058S665.707,214.783,665.373,214.839Z" transform="translate(-522.248 -164.431)" fill="#fb503b"/><circle cx="8.367" cy="8.367" r="8.367" transform="translate(77.964 25.737)" fill="#ffb9b9"/><path d="M534.957,207.729V220.94h13.651s-1.761-11.009-.881-14.312Z" transform="translate(-454.791 -169.443)" fill="#ffb9b9"/><path d="M500.707,254.118s-12.991-6.385-12.991-6.826-1.321-3.3-2.2-3.3-8.367-2.422-12.55,1.1l-.44,2.862-16.073,10.569,4.4,16.073s2.862,3.083,1.982,5.284.661,13.431.661,13.431l34.568-1.1V277.236a34.932,34.932,0,0,1,1.761-4.624c.661-1.1,0-4.4,0-4.4l5.284-6.605S504.45,255.438,500.707,254.118Z" transform="translate(-393.459 -197.996)" fill="#d0cde1"/><path d="M444.231,318.71l.991-5.394s-5.724,24.88-5.064,27.743,5.5,7.266,6.165,7.486,6.826-18.935,6.826-18.935Z" transform="translate(-380.689 -252.791)" opacity="0.1"/><path d="M441.919,310.3l-3.743.661s-5.725,24.88-5.064,27.742,5.5,7.266,6.165,7.486,6.826-18.935,6.826-18.935Z" transform="translate(-375.185 -250.433)" fill="#d0cde1"/><path d="M642.667,331.04l1.871-3.633s2.642,24.88.881,27.3-8.729,3.328-8.729,3.328l-.078-18.08Z" transform="translate(-534.209 -263.8)" opacity="0.1"/><path d="M647.716,314.323l2.862,2.862s2.642,24.88.881,27.3-8.729,3.328-8.729,3.328l-.078-18.08Z" transform="translate(-538.927 -253.578)" fill="#d0cde1"/><path d="M443.084,485.175s-6.385-2.422-7.486,2.2S438.24,512.7,438.24,512.7s2.422,15.633,3.963,16.073,8.367.661,9.468-1.321-3.3-22.238-3.3-22.238l25.541-.44s-1.541,17.614-2.422,19.156-.881,6.826,0,6.826,10.569-.44,11.229-1.761,4.4-31.045,4.4-31.045,3.082-10.348-.44-9.688S443.084,485.175,443.084,485.175Z" transform="translate(-377.009 -386.559)" fill="#3f3d56"/><path d="M611.986,681.259s2.2-1.541,3.3,0,1.541,3.3-3.3,5.945-8.587,1.982-8.587,1.541V682.36Z" transform="translate(-508.261 -539.708)" fill="#2f2e41"/><path d="M454.175,678.24s-2.2-1.541-3.3,0-1.541,3.3,3.3,5.945,8.587,1.982,8.587,1.541v-6.385Z" transform="translate(-388.541 -537.35)" fill="#2f2e41"/><path d="M529.411,144.3a7.077,7.077,0,0,0-2.457.35,9.5,9.5,0,0,0-1.751.926l-3.694,2.3a1.73,1.73,0,0,0-1.043,1.612l-.462,3.457a4.5,4.5,0,0,0,.167,2.594,7.156,7.156,0,0,0,1.459,1.636,6.006,6.006,0,0,1,1.583,3.076c.264,1.443.1,3.181,1.237,4.1a3.881,3.881,0,0,0,2.255.639,33.642,33.642,0,0,0,6.5-.25,2.586,2.586,0,0,0,.982-.275,2.7,2.7,0,0,0,.861-1.024,9.18,9.18,0,0,0,1.666-4.527,4.839,4.839,0,0,1,.176-2.378,9.289,9.289,0,0,1,.664-.863,4.767,4.767,0,0,0,.65-2.36c.249-2.627-.011-4.626-1.947-6.477A10.029,10.029,0,0,0,529.411,144.3Z" transform="translate(-443.026 -120.743)" fill="#2f2e41"/><path d="M274.694,569.7l-7.348,37.354h3.674l7.042-36.742Z" transform="translate(-208.862 -445.075)" fill="#2f2e41"/><path d="M408.708,579.326l4.593,42.865h3.062l-2.756-44.09Z" transform="translate(-319.3 -451.636)" fill="#2f2e41"/><path d="M466.093,575.914l6.43,28.475h3.062L469.461,575.3Z" transform="translate(-364.131 -449.45)" fill="#2f2e41"/><path d="M350.843,578.1l-.919,22.657h2.449l1.837-22.657Z" transform="translate(-273.375 -451.636)" fill="#2f2e41"/><path d="M442.621,466.414s-4.9-32.761,8.879-33.68,33.374,0,33.374,0,11.329-.919,7.961,33.68c0,0,3.062,10.1-24.494,9.185S442.621,466.414,442.621,466.414Z" transform="translate(-381.994 -345.767)" fill="#7209b7"/><path d="M965.319,602.951c0,5.713-3.4,7.708-7.586,7.708s-7.586-1.995-7.586-7.708,7.586-12.981,7.586-12.981S965.319,597.238,965.319,602.951Z" transform="translate(-779.155 -468.925)" fill="#7209b7"/><path d="M804.25,568.36l3.233-5.915-3.221,5.165.035-2.15,2.228-4.28-2.219,3.711.063-3.867,2.386-3.407-2.376,2.8.039-7.09-.236,8.984-2.416-3.7,2.387,4.457-.226,4.318-.007-.115-2.8-3.908,2.788,4.313-.028.54-.005.008,0,.044-.574,5.763h.766l.092-.465,2.782-4.3-2.775,3.877Z" transform="translate(-625.87 -432.282)" fill="#3f3d56"/><path d="M797.826,657.373h-9.044l-2.337-13.21h13.21Z" transform="translate(-614.403 -503.247)" fill="#2f2e41"/><rect width="18.813" height="22.057" transform="translate(31.72 64.818)" fill="#3f3d56"/><rect width="12.975" height="15.212" transform="translate(34.639 68.241)" fill="#f2f2f2"/><path d="M337.365,363.357l-1.318,2.282-1.318-2.282h-4.387l5.7,9.882,5.7-9.882Z" transform="translate(-294.938 -291.885)" fill="#4dba87"/><path d="M345.514,363.357l-1.318,2.282-1.318-2.282h-2.105l3.423,5.929,3.423-5.929Z" transform="translate(-303.088 -291.885)" fill="#435466"/></svg>