<svg xmlns="http://www.w3.org/2000/svg" width="1920" height="304.394" viewBox="0 0 1920 304.394">
  <path id="wave" d="M0,304.394l35.6-19.025C71.067,266.345,142.667,228.3,213.333,183.944,284.4,139.118,356,89.178,426.667,114.148,497.733,139.118,569.333,241.375,640,234.6c71.067-6.3,128.054-96.051,198.721-121.378,71.067-25.8,162.613,34.634,233.279,40.58,71.067,5.945,142.052-40.861,212.718-34.916,71.067,5.945,137.949,46.393,208.615,90.387,71.067,43.994,142.667,70.153,213.333,63.376,71.067-6.3,142.667-44.351,177.333-63.376l36-19.025V0H0Z" transform="translate(1920 304.394) rotate(180)" fill="#fcfcff"/>
</svg>
